G04 #@! TF.GenerationSoftware,KiCad,Pcbnew,8.0.9*
G04 #@! TF.CreationDate,2025-09-27T12:36:41+09:00*
G04 #@! TF.ProjectId,usb_sfc_pad,7573625f-7366-4635-9f70-61642e6b6963,rev?*
G04 #@! TF.SameCoordinates,Original*
G04 #@! TF.FileFunction,Legend,Top*
G04 #@! TF.FilePolarity,Positive*
%FSLAX46Y46*%
G04 Gerber Fmt 4.6, Leading zero omitted, Abs format (unit mm)*
G04 Created by KiCad (PCBNEW 8.0.9) date 2025-09-27 12:36:41*
%MOMM*%
%LPD*%
G01*
G04 APERTURE LIST*
G04 Aperture macros list*
%AMFreePoly0*
4,1,19,0.300000,-2.700000,-3.900000,-2.700000,-3.900000,-2.200000,-0.700000,-2.200000,-0.700000,-1.200000,-3.900000,-1.200000,-3.900000,-0.800000,-0.700000,-0.800000,-0.700000,0.200000,-3.900000,0.200000,-3.900000,0.600000,-0.700000,0.600000,-0.700000,1.600000,-3.900000,1.600000,-3.900000,2.000000,-0.700000,2.000000,-0.700000,2.800000,0.300000,2.800000,0.300000,-2.700000,0.300000,-2.700000,
$1*%
%AMFreePoly1*
4,1,19,3.900000,2.200000,0.700000,2.200000,0.700000,1.200000,3.900000,1.200000,3.900000,0.800000,0.700000,0.800000,0.700000,-0.200000,3.900000,-0.200000,3.900000,-0.600000,0.700000,-0.600000,0.700000,-1.600000,3.900000,-1.600000,3.900000,-2.000000,0.700000,-2.000000,0.700000,-2.800000,-0.300000,-2.800000,-0.300000,2.700000,3.900000,2.700000,3.900000,2.200000,3.900000,2.200000,
$1*%
G04 Aperture macros list end*
%ADD10C,0.100000*%
%ADD11C,0.508000*%
%ADD12FreePoly0,0.000000*%
%ADD13FreePoly1,0.000000*%
%ADD14FreePoly1,180.000000*%
%ADD15FreePoly0,180.000000*%
%ADD16R,1.700000X1.700000*%
%ADD17O,1.700000X1.700000*%
G04 APERTURE END LIST*
D10*
X139514286Y-116059800D02*
X139657143Y-116107419D01*
X139657143Y-116107419D02*
X139895238Y-116107419D01*
X139895238Y-116107419D02*
X139990476Y-116059800D01*
X139990476Y-116059800D02*
X140038095Y-116012180D01*
X140038095Y-116012180D02*
X140085714Y-115916942D01*
X140085714Y-115916942D02*
X140085714Y-115821704D01*
X140085714Y-115821704D02*
X140038095Y-115726466D01*
X140038095Y-115726466D02*
X139990476Y-115678847D01*
X139990476Y-115678847D02*
X139895238Y-115631228D01*
X139895238Y-115631228D02*
X139704762Y-115583609D01*
X139704762Y-115583609D02*
X139609524Y-115535990D01*
X139609524Y-115535990D02*
X139561905Y-115488371D01*
X139561905Y-115488371D02*
X139514286Y-115393133D01*
X139514286Y-115393133D02*
X139514286Y-115297895D01*
X139514286Y-115297895D02*
X139561905Y-115202657D01*
X139561905Y-115202657D02*
X139609524Y-115155038D01*
X139609524Y-115155038D02*
X139704762Y-115107419D01*
X139704762Y-115107419D02*
X139942857Y-115107419D01*
X139942857Y-115107419D02*
X140085714Y-115155038D01*
X140419048Y-115107419D02*
X140657143Y-116107419D01*
X140657143Y-116107419D02*
X140847619Y-115393133D01*
X140847619Y-115393133D02*
X141038095Y-116107419D01*
X141038095Y-116107419D02*
X141276191Y-115107419D01*
X142180952Y-116107419D02*
X141609524Y-116107419D01*
X141895238Y-116107419D02*
X141895238Y-115107419D01*
X141895238Y-115107419D02*
X141800000Y-115250276D01*
X141800000Y-115250276D02*
X141704762Y-115345514D01*
X141704762Y-115345514D02*
X141609524Y-115393133D01*
X143133333Y-116107419D02*
X142561905Y-116107419D01*
X142847619Y-116107419D02*
X142847619Y-115107419D01*
X142847619Y-115107419D02*
X142752381Y-115250276D01*
X142752381Y-115250276D02*
X142657143Y-115345514D01*
X142657143Y-115345514D02*
X142561905Y-115393133D01*
X143752381Y-115107419D02*
X143847619Y-115107419D01*
X143847619Y-115107419D02*
X143942857Y-115155038D01*
X143942857Y-115155038D02*
X143990476Y-115202657D01*
X143990476Y-115202657D02*
X144038095Y-115297895D01*
X144038095Y-115297895D02*
X144085714Y-115488371D01*
X144085714Y-115488371D02*
X144085714Y-115726466D01*
X144085714Y-115726466D02*
X144038095Y-115916942D01*
X144038095Y-115916942D02*
X143990476Y-116012180D01*
X143990476Y-116012180D02*
X143942857Y-116059800D01*
X143942857Y-116059800D02*
X143847619Y-116107419D01*
X143847619Y-116107419D02*
X143752381Y-116107419D01*
X143752381Y-116107419D02*
X143657143Y-116059800D01*
X143657143Y-116059800D02*
X143609524Y-116012180D01*
X143609524Y-116012180D02*
X143561905Y-115916942D01*
X143561905Y-115916942D02*
X143514286Y-115726466D01*
X143514286Y-115726466D02*
X143514286Y-115488371D01*
X143514286Y-115488371D02*
X143561905Y-115297895D01*
X143561905Y-115297895D02*
X143609524Y-115202657D01*
X143609524Y-115202657D02*
X143657143Y-115155038D01*
X143657143Y-115155038D02*
X143752381Y-115107419D01*
X138485713Y-132810840D02*
X138342856Y-132763220D01*
X138342856Y-132763220D02*
X138104761Y-132763220D01*
X138104761Y-132763220D02*
X138009523Y-132810840D01*
X138009523Y-132810840D02*
X137961904Y-132858459D01*
X137961904Y-132858459D02*
X137914285Y-132953697D01*
X137914285Y-132953697D02*
X137914285Y-133048935D01*
X137914285Y-133048935D02*
X137961904Y-133144173D01*
X137961904Y-133144173D02*
X138009523Y-133191792D01*
X138009523Y-133191792D02*
X138104761Y-133239411D01*
X138104761Y-133239411D02*
X138295237Y-133287030D01*
X138295237Y-133287030D02*
X138390475Y-133334649D01*
X138390475Y-133334649D02*
X138438094Y-133382268D01*
X138438094Y-133382268D02*
X138485713Y-133477506D01*
X138485713Y-133477506D02*
X138485713Y-133572744D01*
X138485713Y-133572744D02*
X138438094Y-133667982D01*
X138438094Y-133667982D02*
X138390475Y-133715601D01*
X138390475Y-133715601D02*
X138295237Y-133763220D01*
X138295237Y-133763220D02*
X138057142Y-133763220D01*
X138057142Y-133763220D02*
X137914285Y-133715601D01*
X137580951Y-133763220D02*
X137342856Y-132763220D01*
X137342856Y-132763220D02*
X137152380Y-133477506D01*
X137152380Y-133477506D02*
X136961904Y-132763220D01*
X136961904Y-132763220D02*
X136723809Y-133763220D01*
X135819047Y-132763220D02*
X136390475Y-132763220D01*
X136104761Y-132763220D02*
X136104761Y-133763220D01*
X136104761Y-133763220D02*
X136199999Y-133620363D01*
X136199999Y-133620363D02*
X136295237Y-133525125D01*
X136295237Y-133525125D02*
X136390475Y-133477506D01*
X134866666Y-132763220D02*
X135438094Y-132763220D01*
X135152380Y-132763220D02*
X135152380Y-133763220D01*
X135152380Y-133763220D02*
X135247618Y-133620363D01*
X135247618Y-133620363D02*
X135342856Y-133525125D01*
X135342856Y-133525125D02*
X135438094Y-133477506D01*
X134485713Y-133667982D02*
X134438094Y-133715601D01*
X134438094Y-133715601D02*
X134342856Y-133763220D01*
X134342856Y-133763220D02*
X134104761Y-133763220D01*
X134104761Y-133763220D02*
X134009523Y-133715601D01*
X134009523Y-133715601D02*
X133961904Y-133667982D01*
X133961904Y-133667982D02*
X133914285Y-133572744D01*
X133914285Y-133572744D02*
X133914285Y-133477506D01*
X133914285Y-133477506D02*
X133961904Y-133334649D01*
X133961904Y-133334649D02*
X134533332Y-132763220D01*
X134533332Y-132763220D02*
X133914285Y-132763220D01*
X102464286Y-111659800D02*
X102607143Y-111707419D01*
X102607143Y-111707419D02*
X102845238Y-111707419D01*
X102845238Y-111707419D02*
X102940476Y-111659800D01*
X102940476Y-111659800D02*
X102988095Y-111612180D01*
X102988095Y-111612180D02*
X103035714Y-111516942D01*
X103035714Y-111516942D02*
X103035714Y-111421704D01*
X103035714Y-111421704D02*
X102988095Y-111326466D01*
X102988095Y-111326466D02*
X102940476Y-111278847D01*
X102940476Y-111278847D02*
X102845238Y-111231228D01*
X102845238Y-111231228D02*
X102654762Y-111183609D01*
X102654762Y-111183609D02*
X102559524Y-111135990D01*
X102559524Y-111135990D02*
X102511905Y-111088371D01*
X102511905Y-111088371D02*
X102464286Y-110993133D01*
X102464286Y-110993133D02*
X102464286Y-110897895D01*
X102464286Y-110897895D02*
X102511905Y-110802657D01*
X102511905Y-110802657D02*
X102559524Y-110755038D01*
X102559524Y-110755038D02*
X102654762Y-110707419D01*
X102654762Y-110707419D02*
X102892857Y-110707419D01*
X102892857Y-110707419D02*
X103035714Y-110755038D01*
X103369048Y-110707419D02*
X103607143Y-111707419D01*
X103607143Y-111707419D02*
X103797619Y-110993133D01*
X103797619Y-110993133D02*
X103988095Y-111707419D01*
X103988095Y-111707419D02*
X104226191Y-110707419D01*
X105130952Y-111707419D02*
X104559524Y-111707419D01*
X104845238Y-111707419D02*
X104845238Y-110707419D01*
X104845238Y-110707419D02*
X104750000Y-110850276D01*
X104750000Y-110850276D02*
X104654762Y-110945514D01*
X104654762Y-110945514D02*
X104559524Y-110993133D01*
X105750000Y-110707419D02*
X105845238Y-110707419D01*
X105845238Y-110707419D02*
X105940476Y-110755038D01*
X105940476Y-110755038D02*
X105988095Y-110802657D01*
X105988095Y-110802657D02*
X106035714Y-110897895D01*
X106035714Y-110897895D02*
X106083333Y-111088371D01*
X106083333Y-111088371D02*
X106083333Y-111326466D01*
X106083333Y-111326466D02*
X106035714Y-111516942D01*
X106035714Y-111516942D02*
X105988095Y-111612180D01*
X105988095Y-111612180D02*
X105940476Y-111659800D01*
X105940476Y-111659800D02*
X105845238Y-111707419D01*
X105845238Y-111707419D02*
X105750000Y-111707419D01*
X105750000Y-111707419D02*
X105654762Y-111659800D01*
X105654762Y-111659800D02*
X105607143Y-111612180D01*
X105607143Y-111612180D02*
X105559524Y-111516942D01*
X105559524Y-111516942D02*
X105511905Y-111326466D01*
X105511905Y-111326466D02*
X105511905Y-111088371D01*
X105511905Y-111088371D02*
X105559524Y-110897895D01*
X105559524Y-110897895D02*
X105607143Y-110802657D01*
X105607143Y-110802657D02*
X105654762Y-110755038D01*
X105654762Y-110755038D02*
X105750000Y-110707419D01*
X106940476Y-110707419D02*
X106750000Y-110707419D01*
X106750000Y-110707419D02*
X106654762Y-110755038D01*
X106654762Y-110755038D02*
X106607143Y-110802657D01*
X106607143Y-110802657D02*
X106511905Y-110945514D01*
X106511905Y-110945514D02*
X106464286Y-111135990D01*
X106464286Y-111135990D02*
X106464286Y-111516942D01*
X106464286Y-111516942D02*
X106511905Y-111612180D01*
X106511905Y-111612180D02*
X106559524Y-111659800D01*
X106559524Y-111659800D02*
X106654762Y-111707419D01*
X106654762Y-111707419D02*
X106845238Y-111707419D01*
X106845238Y-111707419D02*
X106940476Y-111659800D01*
X106940476Y-111659800D02*
X106988095Y-111612180D01*
X106988095Y-111612180D02*
X107035714Y-111516942D01*
X107035714Y-111516942D02*
X107035714Y-111278847D01*
X107035714Y-111278847D02*
X106988095Y-111183609D01*
X106988095Y-111183609D02*
X106940476Y-111135990D01*
X106940476Y-111135990D02*
X106845238Y-111088371D01*
X106845238Y-111088371D02*
X106654762Y-111088371D01*
X106654762Y-111088371D02*
X106559524Y-111135990D01*
X106559524Y-111135990D02*
X106511905Y-111183609D01*
X106511905Y-111183609D02*
X106464286Y-111278847D01*
X120214286Y-111659800D02*
X120357143Y-111707419D01*
X120357143Y-111707419D02*
X120595238Y-111707419D01*
X120595238Y-111707419D02*
X120690476Y-111659800D01*
X120690476Y-111659800D02*
X120738095Y-111612180D01*
X120738095Y-111612180D02*
X120785714Y-111516942D01*
X120785714Y-111516942D02*
X120785714Y-111421704D01*
X120785714Y-111421704D02*
X120738095Y-111326466D01*
X120738095Y-111326466D02*
X120690476Y-111278847D01*
X120690476Y-111278847D02*
X120595238Y-111231228D01*
X120595238Y-111231228D02*
X120404762Y-111183609D01*
X120404762Y-111183609D02*
X120309524Y-111135990D01*
X120309524Y-111135990D02*
X120261905Y-111088371D01*
X120261905Y-111088371D02*
X120214286Y-110993133D01*
X120214286Y-110993133D02*
X120214286Y-110897895D01*
X120214286Y-110897895D02*
X120261905Y-110802657D01*
X120261905Y-110802657D02*
X120309524Y-110755038D01*
X120309524Y-110755038D02*
X120404762Y-110707419D01*
X120404762Y-110707419D02*
X120642857Y-110707419D01*
X120642857Y-110707419D02*
X120785714Y-110755038D01*
X121119048Y-110707419D02*
X121357143Y-111707419D01*
X121357143Y-111707419D02*
X121547619Y-110993133D01*
X121547619Y-110993133D02*
X121738095Y-111707419D01*
X121738095Y-111707419D02*
X121976191Y-110707419D01*
X122880952Y-111707419D02*
X122309524Y-111707419D01*
X122595238Y-111707419D02*
X122595238Y-110707419D01*
X122595238Y-110707419D02*
X122500000Y-110850276D01*
X122500000Y-110850276D02*
X122404762Y-110945514D01*
X122404762Y-110945514D02*
X122309524Y-110993133D01*
X123500000Y-110707419D02*
X123595238Y-110707419D01*
X123595238Y-110707419D02*
X123690476Y-110755038D01*
X123690476Y-110755038D02*
X123738095Y-110802657D01*
X123738095Y-110802657D02*
X123785714Y-110897895D01*
X123785714Y-110897895D02*
X123833333Y-111088371D01*
X123833333Y-111088371D02*
X123833333Y-111326466D01*
X123833333Y-111326466D02*
X123785714Y-111516942D01*
X123785714Y-111516942D02*
X123738095Y-111612180D01*
X123738095Y-111612180D02*
X123690476Y-111659800D01*
X123690476Y-111659800D02*
X123595238Y-111707419D01*
X123595238Y-111707419D02*
X123500000Y-111707419D01*
X123500000Y-111707419D02*
X123404762Y-111659800D01*
X123404762Y-111659800D02*
X123357143Y-111612180D01*
X123357143Y-111612180D02*
X123309524Y-111516942D01*
X123309524Y-111516942D02*
X123261905Y-111326466D01*
X123261905Y-111326466D02*
X123261905Y-111088371D01*
X123261905Y-111088371D02*
X123309524Y-110897895D01*
X123309524Y-110897895D02*
X123357143Y-110802657D01*
X123357143Y-110802657D02*
X123404762Y-110755038D01*
X123404762Y-110755038D02*
X123500000Y-110707419D01*
X124738095Y-110707419D02*
X124261905Y-110707419D01*
X124261905Y-110707419D02*
X124214286Y-111183609D01*
X124214286Y-111183609D02*
X124261905Y-111135990D01*
X124261905Y-111135990D02*
X124357143Y-111088371D01*
X124357143Y-111088371D02*
X124595238Y-111088371D01*
X124595238Y-111088371D02*
X124690476Y-111135990D01*
X124690476Y-111135990D02*
X124738095Y-111183609D01*
X124738095Y-111183609D02*
X124785714Y-111278847D01*
X124785714Y-111278847D02*
X124785714Y-111516942D01*
X124785714Y-111516942D02*
X124738095Y-111612180D01*
X124738095Y-111612180D02*
X124690476Y-111659800D01*
X124690476Y-111659800D02*
X124595238Y-111707419D01*
X124595238Y-111707419D02*
X124357143Y-111707419D01*
X124357143Y-111707419D02*
X124261905Y-111659800D01*
X124261905Y-111659800D02*
X124214286Y-111612180D01*
X193014286Y-122159800D02*
X193157143Y-122207419D01*
X193157143Y-122207419D02*
X193395238Y-122207419D01*
X193395238Y-122207419D02*
X193490476Y-122159800D01*
X193490476Y-122159800D02*
X193538095Y-122112180D01*
X193538095Y-122112180D02*
X193585714Y-122016942D01*
X193585714Y-122016942D02*
X193585714Y-121921704D01*
X193585714Y-121921704D02*
X193538095Y-121826466D01*
X193538095Y-121826466D02*
X193490476Y-121778847D01*
X193490476Y-121778847D02*
X193395238Y-121731228D01*
X193395238Y-121731228D02*
X193204762Y-121683609D01*
X193204762Y-121683609D02*
X193109524Y-121635990D01*
X193109524Y-121635990D02*
X193061905Y-121588371D01*
X193061905Y-121588371D02*
X193014286Y-121493133D01*
X193014286Y-121493133D02*
X193014286Y-121397895D01*
X193014286Y-121397895D02*
X193061905Y-121302657D01*
X193061905Y-121302657D02*
X193109524Y-121255038D01*
X193109524Y-121255038D02*
X193204762Y-121207419D01*
X193204762Y-121207419D02*
X193442857Y-121207419D01*
X193442857Y-121207419D02*
X193585714Y-121255038D01*
X193919048Y-121207419D02*
X194157143Y-122207419D01*
X194157143Y-122207419D02*
X194347619Y-121493133D01*
X194347619Y-121493133D02*
X194538095Y-122207419D01*
X194538095Y-122207419D02*
X194776191Y-121207419D01*
X195680952Y-122207419D02*
X195109524Y-122207419D01*
X195395238Y-122207419D02*
X195395238Y-121207419D01*
X195395238Y-121207419D02*
X195300000Y-121350276D01*
X195300000Y-121350276D02*
X195204762Y-121445514D01*
X195204762Y-121445514D02*
X195109524Y-121493133D01*
X196300000Y-121207419D02*
X196395238Y-121207419D01*
X196395238Y-121207419D02*
X196490476Y-121255038D01*
X196490476Y-121255038D02*
X196538095Y-121302657D01*
X196538095Y-121302657D02*
X196585714Y-121397895D01*
X196585714Y-121397895D02*
X196633333Y-121588371D01*
X196633333Y-121588371D02*
X196633333Y-121826466D01*
X196633333Y-121826466D02*
X196585714Y-122016942D01*
X196585714Y-122016942D02*
X196538095Y-122112180D01*
X196538095Y-122112180D02*
X196490476Y-122159800D01*
X196490476Y-122159800D02*
X196395238Y-122207419D01*
X196395238Y-122207419D02*
X196300000Y-122207419D01*
X196300000Y-122207419D02*
X196204762Y-122159800D01*
X196204762Y-122159800D02*
X196157143Y-122112180D01*
X196157143Y-122112180D02*
X196109524Y-122016942D01*
X196109524Y-122016942D02*
X196061905Y-121826466D01*
X196061905Y-121826466D02*
X196061905Y-121588371D01*
X196061905Y-121588371D02*
X196109524Y-121397895D01*
X196109524Y-121397895D02*
X196157143Y-121302657D01*
X196157143Y-121302657D02*
X196204762Y-121255038D01*
X196204762Y-121255038D02*
X196300000Y-121207419D01*
X197014286Y-121302657D02*
X197061905Y-121255038D01*
X197061905Y-121255038D02*
X197157143Y-121207419D01*
X197157143Y-121207419D02*
X197395238Y-121207419D01*
X197395238Y-121207419D02*
X197490476Y-121255038D01*
X197490476Y-121255038D02*
X197538095Y-121302657D01*
X197538095Y-121302657D02*
X197585714Y-121397895D01*
X197585714Y-121397895D02*
X197585714Y-121493133D01*
X197585714Y-121493133D02*
X197538095Y-121635990D01*
X197538095Y-121635990D02*
X196966667Y-122207419D01*
X196966667Y-122207419D02*
X197585714Y-122207419D01*
X111714286Y-120659800D02*
X111857143Y-120707419D01*
X111857143Y-120707419D02*
X112095238Y-120707419D01*
X112095238Y-120707419D02*
X112190476Y-120659800D01*
X112190476Y-120659800D02*
X112238095Y-120612180D01*
X112238095Y-120612180D02*
X112285714Y-120516942D01*
X112285714Y-120516942D02*
X112285714Y-120421704D01*
X112285714Y-120421704D02*
X112238095Y-120326466D01*
X112238095Y-120326466D02*
X112190476Y-120278847D01*
X112190476Y-120278847D02*
X112095238Y-120231228D01*
X112095238Y-120231228D02*
X111904762Y-120183609D01*
X111904762Y-120183609D02*
X111809524Y-120135990D01*
X111809524Y-120135990D02*
X111761905Y-120088371D01*
X111761905Y-120088371D02*
X111714286Y-119993133D01*
X111714286Y-119993133D02*
X111714286Y-119897895D01*
X111714286Y-119897895D02*
X111761905Y-119802657D01*
X111761905Y-119802657D02*
X111809524Y-119755038D01*
X111809524Y-119755038D02*
X111904762Y-119707419D01*
X111904762Y-119707419D02*
X112142857Y-119707419D01*
X112142857Y-119707419D02*
X112285714Y-119755038D01*
X112619048Y-119707419D02*
X112857143Y-120707419D01*
X112857143Y-120707419D02*
X113047619Y-119993133D01*
X113047619Y-119993133D02*
X113238095Y-120707419D01*
X113238095Y-120707419D02*
X113476191Y-119707419D01*
X114380952Y-120707419D02*
X113809524Y-120707419D01*
X114095238Y-120707419D02*
X114095238Y-119707419D01*
X114095238Y-119707419D02*
X114000000Y-119850276D01*
X114000000Y-119850276D02*
X113904762Y-119945514D01*
X113904762Y-119945514D02*
X113809524Y-119993133D01*
X115000000Y-119707419D02*
X115095238Y-119707419D01*
X115095238Y-119707419D02*
X115190476Y-119755038D01*
X115190476Y-119755038D02*
X115238095Y-119802657D01*
X115238095Y-119802657D02*
X115285714Y-119897895D01*
X115285714Y-119897895D02*
X115333333Y-120088371D01*
X115333333Y-120088371D02*
X115333333Y-120326466D01*
X115333333Y-120326466D02*
X115285714Y-120516942D01*
X115285714Y-120516942D02*
X115238095Y-120612180D01*
X115238095Y-120612180D02*
X115190476Y-120659800D01*
X115190476Y-120659800D02*
X115095238Y-120707419D01*
X115095238Y-120707419D02*
X115000000Y-120707419D01*
X115000000Y-120707419D02*
X114904762Y-120659800D01*
X114904762Y-120659800D02*
X114857143Y-120612180D01*
X114857143Y-120612180D02*
X114809524Y-120516942D01*
X114809524Y-120516942D02*
X114761905Y-120326466D01*
X114761905Y-120326466D02*
X114761905Y-120088371D01*
X114761905Y-120088371D02*
X114809524Y-119897895D01*
X114809524Y-119897895D02*
X114857143Y-119802657D01*
X114857143Y-119802657D02*
X114904762Y-119755038D01*
X114904762Y-119755038D02*
X115000000Y-119707419D01*
X115904762Y-120135990D02*
X115809524Y-120088371D01*
X115809524Y-120088371D02*
X115761905Y-120040752D01*
X115761905Y-120040752D02*
X115714286Y-119945514D01*
X115714286Y-119945514D02*
X115714286Y-119897895D01*
X115714286Y-119897895D02*
X115761905Y-119802657D01*
X115761905Y-119802657D02*
X115809524Y-119755038D01*
X115809524Y-119755038D02*
X115904762Y-119707419D01*
X115904762Y-119707419D02*
X116095238Y-119707419D01*
X116095238Y-119707419D02*
X116190476Y-119755038D01*
X116190476Y-119755038D02*
X116238095Y-119802657D01*
X116238095Y-119802657D02*
X116285714Y-119897895D01*
X116285714Y-119897895D02*
X116285714Y-119945514D01*
X116285714Y-119945514D02*
X116238095Y-120040752D01*
X116238095Y-120040752D02*
X116190476Y-120088371D01*
X116190476Y-120088371D02*
X116095238Y-120135990D01*
X116095238Y-120135990D02*
X115904762Y-120135990D01*
X115904762Y-120135990D02*
X115809524Y-120183609D01*
X115809524Y-120183609D02*
X115761905Y-120231228D01*
X115761905Y-120231228D02*
X115714286Y-120326466D01*
X115714286Y-120326466D02*
X115714286Y-120516942D01*
X115714286Y-120516942D02*
X115761905Y-120612180D01*
X115761905Y-120612180D02*
X115809524Y-120659800D01*
X115809524Y-120659800D02*
X115904762Y-120707419D01*
X115904762Y-120707419D02*
X116095238Y-120707419D01*
X116095238Y-120707419D02*
X116190476Y-120659800D01*
X116190476Y-120659800D02*
X116238095Y-120612180D01*
X116238095Y-120612180D02*
X116285714Y-120516942D01*
X116285714Y-120516942D02*
X116285714Y-120326466D01*
X116285714Y-120326466D02*
X116238095Y-120231228D01*
X116238095Y-120231228D02*
X116190476Y-120183609D01*
X116190476Y-120183609D02*
X116095238Y-120135990D01*
X111714286Y-102659800D02*
X111857143Y-102707419D01*
X111857143Y-102707419D02*
X112095238Y-102707419D01*
X112095238Y-102707419D02*
X112190476Y-102659800D01*
X112190476Y-102659800D02*
X112238095Y-102612180D01*
X112238095Y-102612180D02*
X112285714Y-102516942D01*
X112285714Y-102516942D02*
X112285714Y-102421704D01*
X112285714Y-102421704D02*
X112238095Y-102326466D01*
X112238095Y-102326466D02*
X112190476Y-102278847D01*
X112190476Y-102278847D02*
X112095238Y-102231228D01*
X112095238Y-102231228D02*
X111904762Y-102183609D01*
X111904762Y-102183609D02*
X111809524Y-102135990D01*
X111809524Y-102135990D02*
X111761905Y-102088371D01*
X111761905Y-102088371D02*
X111714286Y-101993133D01*
X111714286Y-101993133D02*
X111714286Y-101897895D01*
X111714286Y-101897895D02*
X111761905Y-101802657D01*
X111761905Y-101802657D02*
X111809524Y-101755038D01*
X111809524Y-101755038D02*
X111904762Y-101707419D01*
X111904762Y-101707419D02*
X112142857Y-101707419D01*
X112142857Y-101707419D02*
X112285714Y-101755038D01*
X112619048Y-101707419D02*
X112857143Y-102707419D01*
X112857143Y-102707419D02*
X113047619Y-101993133D01*
X113047619Y-101993133D02*
X113238095Y-102707419D01*
X113238095Y-102707419D02*
X113476191Y-101707419D01*
X114380952Y-102707419D02*
X113809524Y-102707419D01*
X114095238Y-102707419D02*
X114095238Y-101707419D01*
X114095238Y-101707419D02*
X114000000Y-101850276D01*
X114000000Y-101850276D02*
X113904762Y-101945514D01*
X113904762Y-101945514D02*
X113809524Y-101993133D01*
X115000000Y-101707419D02*
X115095238Y-101707419D01*
X115095238Y-101707419D02*
X115190476Y-101755038D01*
X115190476Y-101755038D02*
X115238095Y-101802657D01*
X115238095Y-101802657D02*
X115285714Y-101897895D01*
X115285714Y-101897895D02*
X115333333Y-102088371D01*
X115333333Y-102088371D02*
X115333333Y-102326466D01*
X115333333Y-102326466D02*
X115285714Y-102516942D01*
X115285714Y-102516942D02*
X115238095Y-102612180D01*
X115238095Y-102612180D02*
X115190476Y-102659800D01*
X115190476Y-102659800D02*
X115095238Y-102707419D01*
X115095238Y-102707419D02*
X115000000Y-102707419D01*
X115000000Y-102707419D02*
X114904762Y-102659800D01*
X114904762Y-102659800D02*
X114857143Y-102612180D01*
X114857143Y-102612180D02*
X114809524Y-102516942D01*
X114809524Y-102516942D02*
X114761905Y-102326466D01*
X114761905Y-102326466D02*
X114761905Y-102088371D01*
X114761905Y-102088371D02*
X114809524Y-101897895D01*
X114809524Y-101897895D02*
X114857143Y-101802657D01*
X114857143Y-101802657D02*
X114904762Y-101755038D01*
X114904762Y-101755038D02*
X115000000Y-101707419D01*
X115666667Y-101707419D02*
X116333333Y-101707419D01*
X116333333Y-101707419D02*
X115904762Y-102707419D01*
X114485713Y-132810840D02*
X114342856Y-132763220D01*
X114342856Y-132763220D02*
X114104761Y-132763220D01*
X114104761Y-132763220D02*
X114009523Y-132810840D01*
X114009523Y-132810840D02*
X113961904Y-132858459D01*
X113961904Y-132858459D02*
X113914285Y-132953697D01*
X113914285Y-132953697D02*
X113914285Y-133048935D01*
X113914285Y-133048935D02*
X113961904Y-133144173D01*
X113961904Y-133144173D02*
X114009523Y-133191792D01*
X114009523Y-133191792D02*
X114104761Y-133239411D01*
X114104761Y-133239411D02*
X114295237Y-133287030D01*
X114295237Y-133287030D02*
X114390475Y-133334649D01*
X114390475Y-133334649D02*
X114438094Y-133382268D01*
X114438094Y-133382268D02*
X114485713Y-133477506D01*
X114485713Y-133477506D02*
X114485713Y-133572744D01*
X114485713Y-133572744D02*
X114438094Y-133667982D01*
X114438094Y-133667982D02*
X114390475Y-133715601D01*
X114390475Y-133715601D02*
X114295237Y-133763220D01*
X114295237Y-133763220D02*
X114057142Y-133763220D01*
X114057142Y-133763220D02*
X113914285Y-133715601D01*
X113580951Y-133763220D02*
X113342856Y-132763220D01*
X113342856Y-132763220D02*
X113152380Y-133477506D01*
X113152380Y-133477506D02*
X112961904Y-132763220D01*
X112961904Y-132763220D02*
X112723809Y-133763220D01*
X111819047Y-132763220D02*
X112390475Y-132763220D01*
X112104761Y-132763220D02*
X112104761Y-133763220D01*
X112104761Y-133763220D02*
X112199999Y-133620363D01*
X112199999Y-133620363D02*
X112295237Y-133525125D01*
X112295237Y-133525125D02*
X112390475Y-133477506D01*
X110866666Y-132763220D02*
X111438094Y-132763220D01*
X111152380Y-132763220D02*
X111152380Y-133763220D01*
X111152380Y-133763220D02*
X111247618Y-133620363D01*
X111247618Y-133620363D02*
X111342856Y-133525125D01*
X111342856Y-133525125D02*
X111438094Y-133477506D01*
X109914285Y-132763220D02*
X110485713Y-132763220D01*
X110199999Y-132763220D02*
X110199999Y-133763220D01*
X110199999Y-133763220D02*
X110295237Y-133620363D01*
X110295237Y-133620363D02*
X110390475Y-133525125D01*
X110390475Y-133525125D02*
X110485713Y-133477506D01*
X179414286Y-111559800D02*
X179557143Y-111607419D01*
X179557143Y-111607419D02*
X179795238Y-111607419D01*
X179795238Y-111607419D02*
X179890476Y-111559800D01*
X179890476Y-111559800D02*
X179938095Y-111512180D01*
X179938095Y-111512180D02*
X179985714Y-111416942D01*
X179985714Y-111416942D02*
X179985714Y-111321704D01*
X179985714Y-111321704D02*
X179938095Y-111226466D01*
X179938095Y-111226466D02*
X179890476Y-111178847D01*
X179890476Y-111178847D02*
X179795238Y-111131228D01*
X179795238Y-111131228D02*
X179604762Y-111083609D01*
X179604762Y-111083609D02*
X179509524Y-111035990D01*
X179509524Y-111035990D02*
X179461905Y-110988371D01*
X179461905Y-110988371D02*
X179414286Y-110893133D01*
X179414286Y-110893133D02*
X179414286Y-110797895D01*
X179414286Y-110797895D02*
X179461905Y-110702657D01*
X179461905Y-110702657D02*
X179509524Y-110655038D01*
X179509524Y-110655038D02*
X179604762Y-110607419D01*
X179604762Y-110607419D02*
X179842857Y-110607419D01*
X179842857Y-110607419D02*
X179985714Y-110655038D01*
X180319048Y-110607419D02*
X180557143Y-111607419D01*
X180557143Y-111607419D02*
X180747619Y-110893133D01*
X180747619Y-110893133D02*
X180938095Y-111607419D01*
X180938095Y-111607419D02*
X181176191Y-110607419D01*
X182080952Y-111607419D02*
X181509524Y-111607419D01*
X181795238Y-111607419D02*
X181795238Y-110607419D01*
X181795238Y-110607419D02*
X181700000Y-110750276D01*
X181700000Y-110750276D02*
X181604762Y-110845514D01*
X181604762Y-110845514D02*
X181509524Y-110893133D01*
X182700000Y-110607419D02*
X182795238Y-110607419D01*
X182795238Y-110607419D02*
X182890476Y-110655038D01*
X182890476Y-110655038D02*
X182938095Y-110702657D01*
X182938095Y-110702657D02*
X182985714Y-110797895D01*
X182985714Y-110797895D02*
X183033333Y-110988371D01*
X183033333Y-110988371D02*
X183033333Y-111226466D01*
X183033333Y-111226466D02*
X182985714Y-111416942D01*
X182985714Y-111416942D02*
X182938095Y-111512180D01*
X182938095Y-111512180D02*
X182890476Y-111559800D01*
X182890476Y-111559800D02*
X182795238Y-111607419D01*
X182795238Y-111607419D02*
X182700000Y-111607419D01*
X182700000Y-111607419D02*
X182604762Y-111559800D01*
X182604762Y-111559800D02*
X182557143Y-111512180D01*
X182557143Y-111512180D02*
X182509524Y-111416942D01*
X182509524Y-111416942D02*
X182461905Y-111226466D01*
X182461905Y-111226466D02*
X182461905Y-110988371D01*
X182461905Y-110988371D02*
X182509524Y-110797895D01*
X182509524Y-110797895D02*
X182557143Y-110702657D01*
X182557143Y-110702657D02*
X182604762Y-110655038D01*
X182604762Y-110655038D02*
X182700000Y-110607419D01*
X183890476Y-110940752D02*
X183890476Y-111607419D01*
X183652381Y-110559800D02*
X183414286Y-111274085D01*
X183414286Y-111274085D02*
X184033333Y-111274085D01*
X206114286Y-111759800D02*
X206257143Y-111807419D01*
X206257143Y-111807419D02*
X206495238Y-111807419D01*
X206495238Y-111807419D02*
X206590476Y-111759800D01*
X206590476Y-111759800D02*
X206638095Y-111712180D01*
X206638095Y-111712180D02*
X206685714Y-111616942D01*
X206685714Y-111616942D02*
X206685714Y-111521704D01*
X206685714Y-111521704D02*
X206638095Y-111426466D01*
X206638095Y-111426466D02*
X206590476Y-111378847D01*
X206590476Y-111378847D02*
X206495238Y-111331228D01*
X206495238Y-111331228D02*
X206304762Y-111283609D01*
X206304762Y-111283609D02*
X206209524Y-111235990D01*
X206209524Y-111235990D02*
X206161905Y-111188371D01*
X206161905Y-111188371D02*
X206114286Y-111093133D01*
X206114286Y-111093133D02*
X206114286Y-110997895D01*
X206114286Y-110997895D02*
X206161905Y-110902657D01*
X206161905Y-110902657D02*
X206209524Y-110855038D01*
X206209524Y-110855038D02*
X206304762Y-110807419D01*
X206304762Y-110807419D02*
X206542857Y-110807419D01*
X206542857Y-110807419D02*
X206685714Y-110855038D01*
X207019048Y-110807419D02*
X207257143Y-111807419D01*
X207257143Y-111807419D02*
X207447619Y-111093133D01*
X207447619Y-111093133D02*
X207638095Y-111807419D01*
X207638095Y-111807419D02*
X207876191Y-110807419D01*
X208780952Y-111807419D02*
X208209524Y-111807419D01*
X208495238Y-111807419D02*
X208495238Y-110807419D01*
X208495238Y-110807419D02*
X208400000Y-110950276D01*
X208400000Y-110950276D02*
X208304762Y-111045514D01*
X208304762Y-111045514D02*
X208209524Y-111093133D01*
X209400000Y-110807419D02*
X209495238Y-110807419D01*
X209495238Y-110807419D02*
X209590476Y-110855038D01*
X209590476Y-110855038D02*
X209638095Y-110902657D01*
X209638095Y-110902657D02*
X209685714Y-110997895D01*
X209685714Y-110997895D02*
X209733333Y-111188371D01*
X209733333Y-111188371D02*
X209733333Y-111426466D01*
X209733333Y-111426466D02*
X209685714Y-111616942D01*
X209685714Y-111616942D02*
X209638095Y-111712180D01*
X209638095Y-111712180D02*
X209590476Y-111759800D01*
X209590476Y-111759800D02*
X209495238Y-111807419D01*
X209495238Y-111807419D02*
X209400000Y-111807419D01*
X209400000Y-111807419D02*
X209304762Y-111759800D01*
X209304762Y-111759800D02*
X209257143Y-111712180D01*
X209257143Y-111712180D02*
X209209524Y-111616942D01*
X209209524Y-111616942D02*
X209161905Y-111426466D01*
X209161905Y-111426466D02*
X209161905Y-111188371D01*
X209161905Y-111188371D02*
X209209524Y-110997895D01*
X209209524Y-110997895D02*
X209257143Y-110902657D01*
X209257143Y-110902657D02*
X209304762Y-110855038D01*
X209304762Y-110855038D02*
X209400000Y-110807419D01*
X210685714Y-111807419D02*
X210114286Y-111807419D01*
X210400000Y-111807419D02*
X210400000Y-110807419D01*
X210400000Y-110807419D02*
X210304762Y-110950276D01*
X210304762Y-110950276D02*
X210209524Y-111045514D01*
X210209524Y-111045514D02*
X210114286Y-111093133D01*
X155014286Y-116059800D02*
X155157143Y-116107419D01*
X155157143Y-116107419D02*
X155395238Y-116107419D01*
X155395238Y-116107419D02*
X155490476Y-116059800D01*
X155490476Y-116059800D02*
X155538095Y-116012180D01*
X155538095Y-116012180D02*
X155585714Y-115916942D01*
X155585714Y-115916942D02*
X155585714Y-115821704D01*
X155585714Y-115821704D02*
X155538095Y-115726466D01*
X155538095Y-115726466D02*
X155490476Y-115678847D01*
X155490476Y-115678847D02*
X155395238Y-115631228D01*
X155395238Y-115631228D02*
X155204762Y-115583609D01*
X155204762Y-115583609D02*
X155109524Y-115535990D01*
X155109524Y-115535990D02*
X155061905Y-115488371D01*
X155061905Y-115488371D02*
X155014286Y-115393133D01*
X155014286Y-115393133D02*
X155014286Y-115297895D01*
X155014286Y-115297895D02*
X155061905Y-115202657D01*
X155061905Y-115202657D02*
X155109524Y-115155038D01*
X155109524Y-115155038D02*
X155204762Y-115107419D01*
X155204762Y-115107419D02*
X155442857Y-115107419D01*
X155442857Y-115107419D02*
X155585714Y-115155038D01*
X155919048Y-115107419D02*
X156157143Y-116107419D01*
X156157143Y-116107419D02*
X156347619Y-115393133D01*
X156347619Y-115393133D02*
X156538095Y-116107419D01*
X156538095Y-116107419D02*
X156776191Y-115107419D01*
X157680952Y-116107419D02*
X157109524Y-116107419D01*
X157395238Y-116107419D02*
X157395238Y-115107419D01*
X157395238Y-115107419D02*
X157300000Y-115250276D01*
X157300000Y-115250276D02*
X157204762Y-115345514D01*
X157204762Y-115345514D02*
X157109524Y-115393133D01*
X158300000Y-115107419D02*
X158395238Y-115107419D01*
X158395238Y-115107419D02*
X158490476Y-115155038D01*
X158490476Y-115155038D02*
X158538095Y-115202657D01*
X158538095Y-115202657D02*
X158585714Y-115297895D01*
X158585714Y-115297895D02*
X158633333Y-115488371D01*
X158633333Y-115488371D02*
X158633333Y-115726466D01*
X158633333Y-115726466D02*
X158585714Y-115916942D01*
X158585714Y-115916942D02*
X158538095Y-116012180D01*
X158538095Y-116012180D02*
X158490476Y-116059800D01*
X158490476Y-116059800D02*
X158395238Y-116107419D01*
X158395238Y-116107419D02*
X158300000Y-116107419D01*
X158300000Y-116107419D02*
X158204762Y-116059800D01*
X158204762Y-116059800D02*
X158157143Y-116012180D01*
X158157143Y-116012180D02*
X158109524Y-115916942D01*
X158109524Y-115916942D02*
X158061905Y-115726466D01*
X158061905Y-115726466D02*
X158061905Y-115488371D01*
X158061905Y-115488371D02*
X158109524Y-115297895D01*
X158109524Y-115297895D02*
X158157143Y-115202657D01*
X158157143Y-115202657D02*
X158204762Y-115155038D01*
X158204762Y-115155038D02*
X158300000Y-115107419D01*
X159109524Y-116107419D02*
X159300000Y-116107419D01*
X159300000Y-116107419D02*
X159395238Y-116059800D01*
X159395238Y-116059800D02*
X159442857Y-116012180D01*
X159442857Y-116012180D02*
X159538095Y-115869323D01*
X159538095Y-115869323D02*
X159585714Y-115678847D01*
X159585714Y-115678847D02*
X159585714Y-115297895D01*
X159585714Y-115297895D02*
X159538095Y-115202657D01*
X159538095Y-115202657D02*
X159490476Y-115155038D01*
X159490476Y-115155038D02*
X159395238Y-115107419D01*
X159395238Y-115107419D02*
X159204762Y-115107419D01*
X159204762Y-115107419D02*
X159109524Y-115155038D01*
X159109524Y-115155038D02*
X159061905Y-115202657D01*
X159061905Y-115202657D02*
X159014286Y-115297895D01*
X159014286Y-115297895D02*
X159014286Y-115535990D01*
X159014286Y-115535990D02*
X159061905Y-115631228D01*
X159061905Y-115631228D02*
X159109524Y-115678847D01*
X159109524Y-115678847D02*
X159204762Y-115726466D01*
X159204762Y-115726466D02*
X159395238Y-115726466D01*
X159395238Y-115726466D02*
X159490476Y-115678847D01*
X159490476Y-115678847D02*
X159538095Y-115631228D01*
X159538095Y-115631228D02*
X159585714Y-115535990D01*
X192814286Y-101359800D02*
X192957143Y-101407419D01*
X192957143Y-101407419D02*
X193195238Y-101407419D01*
X193195238Y-101407419D02*
X193290476Y-101359800D01*
X193290476Y-101359800D02*
X193338095Y-101312180D01*
X193338095Y-101312180D02*
X193385714Y-101216942D01*
X193385714Y-101216942D02*
X193385714Y-101121704D01*
X193385714Y-101121704D02*
X193338095Y-101026466D01*
X193338095Y-101026466D02*
X193290476Y-100978847D01*
X193290476Y-100978847D02*
X193195238Y-100931228D01*
X193195238Y-100931228D02*
X193004762Y-100883609D01*
X193004762Y-100883609D02*
X192909524Y-100835990D01*
X192909524Y-100835990D02*
X192861905Y-100788371D01*
X192861905Y-100788371D02*
X192814286Y-100693133D01*
X192814286Y-100693133D02*
X192814286Y-100597895D01*
X192814286Y-100597895D02*
X192861905Y-100502657D01*
X192861905Y-100502657D02*
X192909524Y-100455038D01*
X192909524Y-100455038D02*
X193004762Y-100407419D01*
X193004762Y-100407419D02*
X193242857Y-100407419D01*
X193242857Y-100407419D02*
X193385714Y-100455038D01*
X193719048Y-100407419D02*
X193957143Y-101407419D01*
X193957143Y-101407419D02*
X194147619Y-100693133D01*
X194147619Y-100693133D02*
X194338095Y-101407419D01*
X194338095Y-101407419D02*
X194576191Y-100407419D01*
X195480952Y-101407419D02*
X194909524Y-101407419D01*
X195195238Y-101407419D02*
X195195238Y-100407419D01*
X195195238Y-100407419D02*
X195100000Y-100550276D01*
X195100000Y-100550276D02*
X195004762Y-100645514D01*
X195004762Y-100645514D02*
X194909524Y-100693133D01*
X196100000Y-100407419D02*
X196195238Y-100407419D01*
X196195238Y-100407419D02*
X196290476Y-100455038D01*
X196290476Y-100455038D02*
X196338095Y-100502657D01*
X196338095Y-100502657D02*
X196385714Y-100597895D01*
X196385714Y-100597895D02*
X196433333Y-100788371D01*
X196433333Y-100788371D02*
X196433333Y-101026466D01*
X196433333Y-101026466D02*
X196385714Y-101216942D01*
X196385714Y-101216942D02*
X196338095Y-101312180D01*
X196338095Y-101312180D02*
X196290476Y-101359800D01*
X196290476Y-101359800D02*
X196195238Y-101407419D01*
X196195238Y-101407419D02*
X196100000Y-101407419D01*
X196100000Y-101407419D02*
X196004762Y-101359800D01*
X196004762Y-101359800D02*
X195957143Y-101312180D01*
X195957143Y-101312180D02*
X195909524Y-101216942D01*
X195909524Y-101216942D02*
X195861905Y-101026466D01*
X195861905Y-101026466D02*
X195861905Y-100788371D01*
X195861905Y-100788371D02*
X195909524Y-100597895D01*
X195909524Y-100597895D02*
X195957143Y-100502657D01*
X195957143Y-100502657D02*
X196004762Y-100455038D01*
X196004762Y-100455038D02*
X196100000Y-100407419D01*
X196766667Y-100407419D02*
X197385714Y-100407419D01*
X197385714Y-100407419D02*
X197052381Y-100788371D01*
X197052381Y-100788371D02*
X197195238Y-100788371D01*
X197195238Y-100788371D02*
X197290476Y-100835990D01*
X197290476Y-100835990D02*
X197338095Y-100883609D01*
X197338095Y-100883609D02*
X197385714Y-100978847D01*
X197385714Y-100978847D02*
X197385714Y-101216942D01*
X197385714Y-101216942D02*
X197338095Y-101312180D01*
X197338095Y-101312180D02*
X197290476Y-101359800D01*
X197290476Y-101359800D02*
X197195238Y-101407419D01*
X197195238Y-101407419D02*
X196909524Y-101407419D01*
X196909524Y-101407419D02*
X196814286Y-101359800D01*
X196814286Y-101359800D02*
X196766667Y-101312180D01*
D11*
X147835200Y-136200000D02*
G75*
G02*
X147073200Y-136200000I-381000J0D01*
G01*
X147073200Y-136200000D02*
G75*
G02*
X147835200Y-136200000I381000J0D01*
G01*
X101981000Y-142725000D02*
G75*
G02*
X101219000Y-142725000I-381000J0D01*
G01*
X101219000Y-142725000D02*
G75*
G02*
X101981000Y-142725000I381000J0D01*
G01*
X211885200Y-102450000D02*
G75*
G02*
X211123200Y-102450000I-381000J0D01*
G01*
X211123200Y-102450000D02*
G75*
G02*
X211885200Y-102450000I381000J0D01*
G01*
X97381000Y-108825000D02*
G75*
G02*
X96619000Y-108825000I-381000J0D01*
G01*
X96619000Y-108825000D02*
G75*
G02*
X97381000Y-108825000I381000J0D01*
G01*
X162419900Y-103800000D02*
G75*
G02*
X161657900Y-103800000I-381000J0D01*
G01*
X161657900Y-103800000D02*
G75*
G02*
X162419900Y-103800000I381000J0D01*
G01*
%LPC*%
D12*
X144050000Y-111950000D03*
D13*
X139150000Y-111850000D03*
D14*
X138850000Y-137020640D03*
D15*
X133950000Y-136920640D03*
D12*
X107000000Y-107550000D03*
D13*
X102100000Y-107450000D03*
D12*
X124750000Y-107550000D03*
D13*
X119850000Y-107450000D03*
D12*
X197550000Y-118050000D03*
D13*
X192650000Y-117950000D03*
D12*
X116250000Y-116550000D03*
D13*
X111350000Y-116450000D03*
D12*
X116250000Y-98550000D03*
D13*
X111350000Y-98450000D03*
D15*
X109950000Y-136920640D03*
D14*
X114850000Y-137020640D03*
D12*
X183950000Y-107450000D03*
D13*
X179050000Y-107350000D03*
D12*
X210650000Y-107650000D03*
D13*
X205750000Y-107550000D03*
D12*
X159550000Y-111950000D03*
D13*
X154650000Y-111850000D03*
D12*
X197350000Y-97250000D03*
D13*
X192450000Y-97150000D03*
D16*
X148020000Y-90000000D03*
D17*
X145480000Y-90000000D03*
X142940000Y-90000000D03*
X140400000Y-90000000D03*
X137860000Y-90000000D03*
X135320000Y-90000000D03*
%LPD*%
M02*
