G04 #@! TF.GenerationSoftware,KiCad,Pcbnew,8.0.9*
G04 #@! TF.CreationDate,2025-09-21T23:16:37+09:00*
G04 #@! TF.ProjectId,usb_sfc_pad,7573625f-7366-4635-9f70-61642e6b6963,rev?*
G04 #@! TF.SameCoordinates,Original*
G04 #@! TF.FileFunction,Legend,Bot*
G04 #@! TF.FilePolarity,Positive*
%FSLAX46Y46*%
G04 Gerber Fmt 4.6, Leading zero omitted, Abs format (unit mm)*
G04 Created by KiCad (PCBNEW 8.0.9) date 2025-09-21 23:16:37*
%MOMM*%
%LPD*%
G01*
G04 APERTURE LIST*
G04 Aperture macros list*
%AMRoundRect*
0 Rectangle with rounded corners*
0 $1 Rounding radius*
0 $2 $3 $4 $5 $6 $7 $8 $9 X,Y pos of 4 corners*
0 Add a 4 corners polygon primitive as box body*
4,1,4,$2,$3,$4,$5,$6,$7,$8,$9,$2,$3,0*
0 Add four circle primitives for the rounded corners*
1,1,$1+$1,$2,$3*
1,1,$1+$1,$4,$5*
1,1,$1+$1,$6,$7*
1,1,$1+$1,$8,$9*
0 Add four rect primitives between the rounded corners*
20,1,$1+$1,$2,$3,$4,$5,0*
20,1,$1+$1,$4,$5,$6,$7,0*
20,1,$1+$1,$6,$7,$8,$9,0*
20,1,$1+$1,$8,$9,$2,$3,0*%
%AMFreePoly0*
4,1,6,1.000000,0.000000,0.500000,-0.750000,-0.500000,-0.750000,-0.500000,0.750000,0.500000,0.750000,1.000000,0.000000,1.000000,0.000000,$1*%
%AMFreePoly1*
4,1,6,0.500000,-0.750000,-0.650000,-0.750000,-0.150000,0.000000,-0.650000,0.750000,0.500000,0.750000,0.500000,-0.750000,0.500000,-0.750000,$1*%
G04 Aperture macros list end*
%ADD10C,0.150000*%
%ADD11C,0.120000*%
%ADD12C,0.152400*%
%ADD13C,0.508000*%
%ADD14RoundRect,0.200000X-0.275000X0.200000X-0.275000X-0.200000X0.275000X-0.200000X0.275000X0.200000X0*%
%ADD15R,1.701800X0.812800*%
%ADD16R,3.098800X2.209800*%
%ADD17RoundRect,0.200000X0.200000X0.275000X-0.200000X0.275000X-0.200000X-0.275000X0.200000X-0.275000X0*%
%ADD18RoundRect,0.200000X0.275000X-0.200000X0.275000X0.200000X-0.275000X0.200000X-0.275000X-0.200000X0*%
%ADD19R,0.812800X1.701800*%
%ADD20R,2.209800X3.098800*%
%ADD21FreePoly0,270.000000*%
%ADD22FreePoly1,270.000000*%
%ADD23RoundRect,0.140000X0.170000X-0.140000X0.170000X0.140000X-0.170000X0.140000X-0.170000X-0.140000X0*%
%ADD24RoundRect,0.140000X-0.140000X-0.170000X0.140000X-0.170000X0.140000X0.170000X-0.140000X0.170000X0*%
%ADD25RoundRect,0.112500X0.112500X-0.837500X0.112500X0.837500X-0.112500X0.837500X-0.112500X-0.837500X0*%
%ADD26R,1.700000X1.700000*%
%ADD27O,1.700000X1.700000*%
G04 APERTURE END LIST*
D10*
X182454819Y-123555952D02*
X181978628Y-123222619D01*
X182454819Y-122984524D02*
X181454819Y-122984524D01*
X181454819Y-122984524D02*
X181454819Y-123365476D01*
X181454819Y-123365476D02*
X181502438Y-123460714D01*
X181502438Y-123460714D02*
X181550057Y-123508333D01*
X181550057Y-123508333D02*
X181645295Y-123555952D01*
X181645295Y-123555952D02*
X181788152Y-123555952D01*
X181788152Y-123555952D02*
X181883390Y-123508333D01*
X181883390Y-123508333D02*
X181931009Y-123460714D01*
X181931009Y-123460714D02*
X181978628Y-123365476D01*
X181978628Y-123365476D02*
X181978628Y-122984524D01*
X182454819Y-124508333D02*
X182454819Y-123936905D01*
X182454819Y-124222619D02*
X181454819Y-124222619D01*
X181454819Y-124222619D02*
X181597676Y-124127381D01*
X181597676Y-124127381D02*
X181692914Y-124032143D01*
X181692914Y-124032143D02*
X181740533Y-123936905D01*
X181454819Y-125127381D02*
X181454819Y-125222619D01*
X181454819Y-125222619D02*
X181502438Y-125317857D01*
X181502438Y-125317857D02*
X181550057Y-125365476D01*
X181550057Y-125365476D02*
X181645295Y-125413095D01*
X181645295Y-125413095D02*
X181835771Y-125460714D01*
X181835771Y-125460714D02*
X182073866Y-125460714D01*
X182073866Y-125460714D02*
X182264342Y-125413095D01*
X182264342Y-125413095D02*
X182359580Y-125365476D01*
X182359580Y-125365476D02*
X182407200Y-125317857D01*
X182407200Y-125317857D02*
X182454819Y-125222619D01*
X182454819Y-125222619D02*
X182454819Y-125127381D01*
X182454819Y-125127381D02*
X182407200Y-125032143D01*
X182407200Y-125032143D02*
X182359580Y-124984524D01*
X182359580Y-124984524D02*
X182264342Y-124936905D01*
X182264342Y-124936905D02*
X182073866Y-124889286D01*
X182073866Y-124889286D02*
X181835771Y-124889286D01*
X181835771Y-124889286D02*
X181645295Y-124936905D01*
X181645295Y-124936905D02*
X181550057Y-124984524D01*
X181550057Y-124984524D02*
X181502438Y-125032143D01*
X181502438Y-125032143D02*
X181454819Y-125127381D01*
X181550057Y-125841667D02*
X181502438Y-125889286D01*
X181502438Y-125889286D02*
X181454819Y-125984524D01*
X181454819Y-125984524D02*
X181454819Y-126222619D01*
X181454819Y-126222619D02*
X181502438Y-126317857D01*
X181502438Y-126317857D02*
X181550057Y-126365476D01*
X181550057Y-126365476D02*
X181645295Y-126413095D01*
X181645295Y-126413095D02*
X181740533Y-126413095D01*
X181740533Y-126413095D02*
X181883390Y-126365476D01*
X181883390Y-126365476D02*
X182454819Y-125794048D01*
X182454819Y-125794048D02*
X182454819Y-126413095D01*
X137454819Y-135684925D02*
X138169104Y-135684925D01*
X138169104Y-135684925D02*
X138311961Y-135637306D01*
X138311961Y-135637306D02*
X138407200Y-135542068D01*
X138407200Y-135542068D02*
X138454819Y-135399211D01*
X138454819Y-135399211D02*
X138454819Y-135303973D01*
X138454819Y-136684925D02*
X138454819Y-136113497D01*
X138454819Y-136399211D02*
X137454819Y-136399211D01*
X137454819Y-136399211D02*
X137597676Y-136303973D01*
X137597676Y-136303973D02*
X137692914Y-136208735D01*
X137692914Y-136208735D02*
X137740533Y-136113497D01*
X137454819Y-137303973D02*
X137454819Y-137399211D01*
X137454819Y-137399211D02*
X137502438Y-137494449D01*
X137502438Y-137494449D02*
X137550057Y-137542068D01*
X137550057Y-137542068D02*
X137645295Y-137589687D01*
X137645295Y-137589687D02*
X137835771Y-137637306D01*
X137835771Y-137637306D02*
X138073866Y-137637306D01*
X138073866Y-137637306D02*
X138264342Y-137589687D01*
X138264342Y-137589687D02*
X138359580Y-137542068D01*
X138359580Y-137542068D02*
X138407200Y-137494449D01*
X138407200Y-137494449D02*
X138454819Y-137399211D01*
X138454819Y-137399211D02*
X138454819Y-137303973D01*
X138454819Y-137303973D02*
X138407200Y-137208735D01*
X138407200Y-137208735D02*
X138359580Y-137161116D01*
X138359580Y-137161116D02*
X138264342Y-137113497D01*
X138264342Y-137113497D02*
X138073866Y-137065878D01*
X138073866Y-137065878D02*
X137835771Y-137065878D01*
X137835771Y-137065878D02*
X137645295Y-137113497D01*
X137645295Y-137113497D02*
X137550057Y-137161116D01*
X137550057Y-137161116D02*
X137502438Y-137208735D01*
X137502438Y-137208735D02*
X137454819Y-137303973D01*
X137788152Y-138494449D02*
X138454819Y-138494449D01*
X137407200Y-138256354D02*
X138121485Y-138018259D01*
X138121485Y-138018259D02*
X138121485Y-138637306D01*
X159054819Y-108205952D02*
X158578628Y-107872619D01*
X159054819Y-107634524D02*
X158054819Y-107634524D01*
X158054819Y-107634524D02*
X158054819Y-108015476D01*
X158054819Y-108015476D02*
X158102438Y-108110714D01*
X158102438Y-108110714D02*
X158150057Y-108158333D01*
X158150057Y-108158333D02*
X158245295Y-108205952D01*
X158245295Y-108205952D02*
X158388152Y-108205952D01*
X158388152Y-108205952D02*
X158483390Y-108158333D01*
X158483390Y-108158333D02*
X158531009Y-108110714D01*
X158531009Y-108110714D02*
X158578628Y-108015476D01*
X158578628Y-108015476D02*
X158578628Y-107634524D01*
X159054819Y-109158333D02*
X159054819Y-108586905D01*
X159054819Y-108872619D02*
X158054819Y-108872619D01*
X158054819Y-108872619D02*
X158197676Y-108777381D01*
X158197676Y-108777381D02*
X158292914Y-108682143D01*
X158292914Y-108682143D02*
X158340533Y-108586905D01*
X158054819Y-109777381D02*
X158054819Y-109872619D01*
X158054819Y-109872619D02*
X158102438Y-109967857D01*
X158102438Y-109967857D02*
X158150057Y-110015476D01*
X158150057Y-110015476D02*
X158245295Y-110063095D01*
X158245295Y-110063095D02*
X158435771Y-110110714D01*
X158435771Y-110110714D02*
X158673866Y-110110714D01*
X158673866Y-110110714D02*
X158864342Y-110063095D01*
X158864342Y-110063095D02*
X158959580Y-110015476D01*
X158959580Y-110015476D02*
X159007200Y-109967857D01*
X159007200Y-109967857D02*
X159054819Y-109872619D01*
X159054819Y-109872619D02*
X159054819Y-109777381D01*
X159054819Y-109777381D02*
X159007200Y-109682143D01*
X159007200Y-109682143D02*
X158959580Y-109634524D01*
X158959580Y-109634524D02*
X158864342Y-109586905D01*
X158864342Y-109586905D02*
X158673866Y-109539286D01*
X158673866Y-109539286D02*
X158435771Y-109539286D01*
X158435771Y-109539286D02*
X158245295Y-109586905D01*
X158245295Y-109586905D02*
X158150057Y-109634524D01*
X158150057Y-109634524D02*
X158102438Y-109682143D01*
X158102438Y-109682143D02*
X158054819Y-109777381D01*
X159054819Y-110586905D02*
X159054819Y-110777381D01*
X159054819Y-110777381D02*
X159007200Y-110872619D01*
X159007200Y-110872619D02*
X158959580Y-110920238D01*
X158959580Y-110920238D02*
X158816723Y-111015476D01*
X158816723Y-111015476D02*
X158626247Y-111063095D01*
X158626247Y-111063095D02*
X158245295Y-111063095D01*
X158245295Y-111063095D02*
X158150057Y-111015476D01*
X158150057Y-111015476D02*
X158102438Y-110967857D01*
X158102438Y-110967857D02*
X158054819Y-110872619D01*
X158054819Y-110872619D02*
X158054819Y-110682143D01*
X158054819Y-110682143D02*
X158102438Y-110586905D01*
X158102438Y-110586905D02*
X158150057Y-110539286D01*
X158150057Y-110539286D02*
X158245295Y-110491667D01*
X158245295Y-110491667D02*
X158483390Y-110491667D01*
X158483390Y-110491667D02*
X158578628Y-110539286D01*
X158578628Y-110539286D02*
X158626247Y-110586905D01*
X158626247Y-110586905D02*
X158673866Y-110682143D01*
X158673866Y-110682143D02*
X158673866Y-110872619D01*
X158673866Y-110872619D02*
X158626247Y-110967857D01*
X158626247Y-110967857D02*
X158578628Y-111015476D01*
X158578628Y-111015476D02*
X158483390Y-111063095D01*
X177394047Y-116654819D02*
X177727380Y-116178628D01*
X177965475Y-116654819D02*
X177965475Y-115654819D01*
X177965475Y-115654819D02*
X177584523Y-115654819D01*
X177584523Y-115654819D02*
X177489285Y-115702438D01*
X177489285Y-115702438D02*
X177441666Y-115750057D01*
X177441666Y-115750057D02*
X177394047Y-115845295D01*
X177394047Y-115845295D02*
X177394047Y-115988152D01*
X177394047Y-115988152D02*
X177441666Y-116083390D01*
X177441666Y-116083390D02*
X177489285Y-116131009D01*
X177489285Y-116131009D02*
X177584523Y-116178628D01*
X177584523Y-116178628D02*
X177965475Y-116178628D01*
X176441666Y-116654819D02*
X177013094Y-116654819D01*
X176727380Y-116654819D02*
X176727380Y-115654819D01*
X176727380Y-115654819D02*
X176822618Y-115797676D01*
X176822618Y-115797676D02*
X176917856Y-115892914D01*
X176917856Y-115892914D02*
X177013094Y-115940533D01*
X175822618Y-115654819D02*
X175727380Y-115654819D01*
X175727380Y-115654819D02*
X175632142Y-115702438D01*
X175632142Y-115702438D02*
X175584523Y-115750057D01*
X175584523Y-115750057D02*
X175536904Y-115845295D01*
X175536904Y-115845295D02*
X175489285Y-116035771D01*
X175489285Y-116035771D02*
X175489285Y-116273866D01*
X175489285Y-116273866D02*
X175536904Y-116464342D01*
X175536904Y-116464342D02*
X175584523Y-116559580D01*
X175584523Y-116559580D02*
X175632142Y-116607200D01*
X175632142Y-116607200D02*
X175727380Y-116654819D01*
X175727380Y-116654819D02*
X175822618Y-116654819D01*
X175822618Y-116654819D02*
X175917856Y-116607200D01*
X175917856Y-116607200D02*
X175965475Y-116559580D01*
X175965475Y-116559580D02*
X176013094Y-116464342D01*
X176013094Y-116464342D02*
X176060713Y-116273866D01*
X176060713Y-116273866D02*
X176060713Y-116035771D01*
X176060713Y-116035771D02*
X176013094Y-115845295D01*
X176013094Y-115845295D02*
X175965475Y-115750057D01*
X175965475Y-115750057D02*
X175917856Y-115702438D01*
X175917856Y-115702438D02*
X175822618Y-115654819D01*
X174632142Y-115988152D02*
X174632142Y-116654819D01*
X174870237Y-115607200D02*
X175108332Y-116321485D01*
X175108332Y-116321485D02*
X174489285Y-116321485D01*
X144784819Y-109680952D02*
X144308628Y-109347619D01*
X144784819Y-109109524D02*
X143784819Y-109109524D01*
X143784819Y-109109524D02*
X143784819Y-109490476D01*
X143784819Y-109490476D02*
X143832438Y-109585714D01*
X143832438Y-109585714D02*
X143880057Y-109633333D01*
X143880057Y-109633333D02*
X143975295Y-109680952D01*
X143975295Y-109680952D02*
X144118152Y-109680952D01*
X144118152Y-109680952D02*
X144213390Y-109633333D01*
X144213390Y-109633333D02*
X144261009Y-109585714D01*
X144261009Y-109585714D02*
X144308628Y-109490476D01*
X144308628Y-109490476D02*
X144308628Y-109109524D01*
X144784819Y-110633333D02*
X144784819Y-110061905D01*
X144784819Y-110347619D02*
X143784819Y-110347619D01*
X143784819Y-110347619D02*
X143927676Y-110252381D01*
X143927676Y-110252381D02*
X144022914Y-110157143D01*
X144022914Y-110157143D02*
X144070533Y-110061905D01*
X144784819Y-111585714D02*
X144784819Y-111014286D01*
X144784819Y-111300000D02*
X143784819Y-111300000D01*
X143784819Y-111300000D02*
X143927676Y-111204762D01*
X143927676Y-111204762D02*
X144022914Y-111109524D01*
X144022914Y-111109524D02*
X144070533Y-111014286D01*
X143880057Y-111966667D02*
X143832438Y-112014286D01*
X143832438Y-112014286D02*
X143784819Y-112109524D01*
X143784819Y-112109524D02*
X143784819Y-112347619D01*
X143784819Y-112347619D02*
X143832438Y-112442857D01*
X143832438Y-112442857D02*
X143880057Y-112490476D01*
X143880057Y-112490476D02*
X143975295Y-112538095D01*
X143975295Y-112538095D02*
X144070533Y-112538095D01*
X144070533Y-112538095D02*
X144213390Y-112490476D01*
X144213390Y-112490476D02*
X144784819Y-111919048D01*
X144784819Y-111919048D02*
X144784819Y-112538095D01*
X179354819Y-123655952D02*
X178878628Y-123322619D01*
X179354819Y-123084524D02*
X178354819Y-123084524D01*
X178354819Y-123084524D02*
X178354819Y-123465476D01*
X178354819Y-123465476D02*
X178402438Y-123560714D01*
X178402438Y-123560714D02*
X178450057Y-123608333D01*
X178450057Y-123608333D02*
X178545295Y-123655952D01*
X178545295Y-123655952D02*
X178688152Y-123655952D01*
X178688152Y-123655952D02*
X178783390Y-123608333D01*
X178783390Y-123608333D02*
X178831009Y-123560714D01*
X178831009Y-123560714D02*
X178878628Y-123465476D01*
X178878628Y-123465476D02*
X178878628Y-123084524D01*
X179354819Y-124608333D02*
X179354819Y-124036905D01*
X179354819Y-124322619D02*
X178354819Y-124322619D01*
X178354819Y-124322619D02*
X178497676Y-124227381D01*
X178497676Y-124227381D02*
X178592914Y-124132143D01*
X178592914Y-124132143D02*
X178640533Y-124036905D01*
X178354819Y-125227381D02*
X178354819Y-125322619D01*
X178354819Y-125322619D02*
X178402438Y-125417857D01*
X178402438Y-125417857D02*
X178450057Y-125465476D01*
X178450057Y-125465476D02*
X178545295Y-125513095D01*
X178545295Y-125513095D02*
X178735771Y-125560714D01*
X178735771Y-125560714D02*
X178973866Y-125560714D01*
X178973866Y-125560714D02*
X179164342Y-125513095D01*
X179164342Y-125513095D02*
X179259580Y-125465476D01*
X179259580Y-125465476D02*
X179307200Y-125417857D01*
X179307200Y-125417857D02*
X179354819Y-125322619D01*
X179354819Y-125322619D02*
X179354819Y-125227381D01*
X179354819Y-125227381D02*
X179307200Y-125132143D01*
X179307200Y-125132143D02*
X179259580Y-125084524D01*
X179259580Y-125084524D02*
X179164342Y-125036905D01*
X179164342Y-125036905D02*
X178973866Y-124989286D01*
X178973866Y-124989286D02*
X178735771Y-124989286D01*
X178735771Y-124989286D02*
X178545295Y-125036905D01*
X178545295Y-125036905D02*
X178450057Y-125084524D01*
X178450057Y-125084524D02*
X178402438Y-125132143D01*
X178402438Y-125132143D02*
X178354819Y-125227381D01*
X179354819Y-126513095D02*
X179354819Y-125941667D01*
X179354819Y-126227381D02*
X178354819Y-126227381D01*
X178354819Y-126227381D02*
X178497676Y-126132143D01*
X178497676Y-126132143D02*
X178592914Y-126036905D01*
X178592914Y-126036905D02*
X178640533Y-125941667D01*
X148219047Y-97054819D02*
X148552380Y-96578628D01*
X148790475Y-97054819D02*
X148790475Y-96054819D01*
X148790475Y-96054819D02*
X148409523Y-96054819D01*
X148409523Y-96054819D02*
X148314285Y-96102438D01*
X148314285Y-96102438D02*
X148266666Y-96150057D01*
X148266666Y-96150057D02*
X148219047Y-96245295D01*
X148219047Y-96245295D02*
X148219047Y-96388152D01*
X148219047Y-96388152D02*
X148266666Y-96483390D01*
X148266666Y-96483390D02*
X148314285Y-96531009D01*
X148314285Y-96531009D02*
X148409523Y-96578628D01*
X148409523Y-96578628D02*
X148790475Y-96578628D01*
X147266666Y-97054819D02*
X147838094Y-97054819D01*
X147552380Y-97054819D02*
X147552380Y-96054819D01*
X147552380Y-96054819D02*
X147647618Y-96197676D01*
X147647618Y-96197676D02*
X147742856Y-96292914D01*
X147742856Y-96292914D02*
X147838094Y-96340533D01*
X146314285Y-97054819D02*
X146885713Y-97054819D01*
X146599999Y-97054819D02*
X146599999Y-96054819D01*
X146599999Y-96054819D02*
X146695237Y-96197676D01*
X146695237Y-96197676D02*
X146790475Y-96292914D01*
X146790475Y-96292914D02*
X146885713Y-96340533D01*
X145980951Y-96054819D02*
X145361904Y-96054819D01*
X145361904Y-96054819D02*
X145695237Y-96435771D01*
X145695237Y-96435771D02*
X145552380Y-96435771D01*
X145552380Y-96435771D02*
X145457142Y-96483390D01*
X145457142Y-96483390D02*
X145409523Y-96531009D01*
X145409523Y-96531009D02*
X145361904Y-96626247D01*
X145361904Y-96626247D02*
X145361904Y-96864342D01*
X145361904Y-96864342D02*
X145409523Y-96959580D01*
X145409523Y-96959580D02*
X145457142Y-97007200D01*
X145457142Y-97007200D02*
X145552380Y-97054819D01*
X145552380Y-97054819D02*
X145838094Y-97054819D01*
X145838094Y-97054819D02*
X145933332Y-97007200D01*
X145933332Y-97007200D02*
X145980951Y-96959580D01*
X192285714Y-99854819D02*
X192285714Y-100569104D01*
X192285714Y-100569104D02*
X192333333Y-100711961D01*
X192333333Y-100711961D02*
X192428571Y-100807200D01*
X192428571Y-100807200D02*
X192571428Y-100854819D01*
X192571428Y-100854819D02*
X192666666Y-100854819D01*
X191285714Y-100854819D02*
X191857142Y-100854819D01*
X191571428Y-100854819D02*
X191571428Y-99854819D01*
X191571428Y-99854819D02*
X191666666Y-99997676D01*
X191666666Y-99997676D02*
X191761904Y-100092914D01*
X191761904Y-100092914D02*
X191857142Y-100140533D01*
X190666666Y-99854819D02*
X190571428Y-99854819D01*
X190571428Y-99854819D02*
X190476190Y-99902438D01*
X190476190Y-99902438D02*
X190428571Y-99950057D01*
X190428571Y-99950057D02*
X190380952Y-100045295D01*
X190380952Y-100045295D02*
X190333333Y-100235771D01*
X190333333Y-100235771D02*
X190333333Y-100473866D01*
X190333333Y-100473866D02*
X190380952Y-100664342D01*
X190380952Y-100664342D02*
X190428571Y-100759580D01*
X190428571Y-100759580D02*
X190476190Y-100807200D01*
X190476190Y-100807200D02*
X190571428Y-100854819D01*
X190571428Y-100854819D02*
X190666666Y-100854819D01*
X190666666Y-100854819D02*
X190761904Y-100807200D01*
X190761904Y-100807200D02*
X190809523Y-100759580D01*
X190809523Y-100759580D02*
X190857142Y-100664342D01*
X190857142Y-100664342D02*
X190904761Y-100473866D01*
X190904761Y-100473866D02*
X190904761Y-100235771D01*
X190904761Y-100235771D02*
X190857142Y-100045295D01*
X190857142Y-100045295D02*
X190809523Y-99950057D01*
X190809523Y-99950057D02*
X190761904Y-99902438D01*
X190761904Y-99902438D02*
X190666666Y-99854819D01*
X189999999Y-99854819D02*
X189380952Y-99854819D01*
X189380952Y-99854819D02*
X189714285Y-100235771D01*
X189714285Y-100235771D02*
X189571428Y-100235771D01*
X189571428Y-100235771D02*
X189476190Y-100283390D01*
X189476190Y-100283390D02*
X189428571Y-100331009D01*
X189428571Y-100331009D02*
X189380952Y-100426247D01*
X189380952Y-100426247D02*
X189380952Y-100664342D01*
X189380952Y-100664342D02*
X189428571Y-100759580D01*
X189428571Y-100759580D02*
X189476190Y-100807200D01*
X189476190Y-100807200D02*
X189571428Y-100854819D01*
X189571428Y-100854819D02*
X189857142Y-100854819D01*
X189857142Y-100854819D02*
X189952380Y-100807200D01*
X189952380Y-100807200D02*
X189999999Y-100759580D01*
X143324819Y-120180952D02*
X142848628Y-119847619D01*
X143324819Y-119609524D02*
X142324819Y-119609524D01*
X142324819Y-119609524D02*
X142324819Y-119990476D01*
X142324819Y-119990476D02*
X142372438Y-120085714D01*
X142372438Y-120085714D02*
X142420057Y-120133333D01*
X142420057Y-120133333D02*
X142515295Y-120180952D01*
X142515295Y-120180952D02*
X142658152Y-120180952D01*
X142658152Y-120180952D02*
X142753390Y-120133333D01*
X142753390Y-120133333D02*
X142801009Y-120085714D01*
X142801009Y-120085714D02*
X142848628Y-119990476D01*
X142848628Y-119990476D02*
X142848628Y-119609524D01*
X143324819Y-121133333D02*
X143324819Y-120561905D01*
X143324819Y-120847619D02*
X142324819Y-120847619D01*
X142324819Y-120847619D02*
X142467676Y-120752381D01*
X142467676Y-120752381D02*
X142562914Y-120657143D01*
X142562914Y-120657143D02*
X142610533Y-120561905D01*
X142324819Y-121752381D02*
X142324819Y-121847619D01*
X142324819Y-121847619D02*
X142372438Y-121942857D01*
X142372438Y-121942857D02*
X142420057Y-121990476D01*
X142420057Y-121990476D02*
X142515295Y-122038095D01*
X142515295Y-122038095D02*
X142705771Y-122085714D01*
X142705771Y-122085714D02*
X142943866Y-122085714D01*
X142943866Y-122085714D02*
X143134342Y-122038095D01*
X143134342Y-122038095D02*
X143229580Y-121990476D01*
X143229580Y-121990476D02*
X143277200Y-121942857D01*
X143277200Y-121942857D02*
X143324819Y-121847619D01*
X143324819Y-121847619D02*
X143324819Y-121752381D01*
X143324819Y-121752381D02*
X143277200Y-121657143D01*
X143277200Y-121657143D02*
X143229580Y-121609524D01*
X143229580Y-121609524D02*
X143134342Y-121561905D01*
X143134342Y-121561905D02*
X142943866Y-121514286D01*
X142943866Y-121514286D02*
X142705771Y-121514286D01*
X142705771Y-121514286D02*
X142515295Y-121561905D01*
X142515295Y-121561905D02*
X142420057Y-121609524D01*
X142420057Y-121609524D02*
X142372438Y-121657143D01*
X142372438Y-121657143D02*
X142324819Y-121752381D01*
X142324819Y-122942857D02*
X142324819Y-122752381D01*
X142324819Y-122752381D02*
X142372438Y-122657143D01*
X142372438Y-122657143D02*
X142420057Y-122609524D01*
X142420057Y-122609524D02*
X142562914Y-122514286D01*
X142562914Y-122514286D02*
X142753390Y-122466667D01*
X142753390Y-122466667D02*
X143134342Y-122466667D01*
X143134342Y-122466667D02*
X143229580Y-122514286D01*
X143229580Y-122514286D02*
X143277200Y-122561905D01*
X143277200Y-122561905D02*
X143324819Y-122657143D01*
X143324819Y-122657143D02*
X143324819Y-122847619D01*
X143324819Y-122847619D02*
X143277200Y-122942857D01*
X143277200Y-122942857D02*
X143229580Y-122990476D01*
X143229580Y-122990476D02*
X143134342Y-123038095D01*
X143134342Y-123038095D02*
X142896247Y-123038095D01*
X142896247Y-123038095D02*
X142801009Y-122990476D01*
X142801009Y-122990476D02*
X142753390Y-122942857D01*
X142753390Y-122942857D02*
X142705771Y-122847619D01*
X142705771Y-122847619D02*
X142705771Y-122657143D01*
X142705771Y-122657143D02*
X142753390Y-122561905D01*
X142753390Y-122561905D02*
X142801009Y-122514286D01*
X142801009Y-122514286D02*
X142896247Y-122466667D01*
X144354819Y-99014285D02*
X145069104Y-99014285D01*
X145069104Y-99014285D02*
X145211961Y-98966666D01*
X145211961Y-98966666D02*
X145307200Y-98871428D01*
X145307200Y-98871428D02*
X145354819Y-98728571D01*
X145354819Y-98728571D02*
X145354819Y-98633333D01*
X145354819Y-99490476D02*
X144354819Y-99490476D01*
X144354819Y-99490476D02*
X144354819Y-99871428D01*
X144354819Y-99871428D02*
X144402438Y-99966666D01*
X144402438Y-99966666D02*
X144450057Y-100014285D01*
X144450057Y-100014285D02*
X144545295Y-100061904D01*
X144545295Y-100061904D02*
X144688152Y-100061904D01*
X144688152Y-100061904D02*
X144783390Y-100014285D01*
X144783390Y-100014285D02*
X144831009Y-99966666D01*
X144831009Y-99966666D02*
X144878628Y-99871428D01*
X144878628Y-99871428D02*
X144878628Y-99490476D01*
X145354819Y-101014285D02*
X145354819Y-100442857D01*
X145354819Y-100728571D02*
X144354819Y-100728571D01*
X144354819Y-100728571D02*
X144497676Y-100633333D01*
X144497676Y-100633333D02*
X144592914Y-100538095D01*
X144592914Y-100538095D02*
X144640533Y-100442857D01*
X144354819Y-101633333D02*
X144354819Y-101728571D01*
X144354819Y-101728571D02*
X144402438Y-101823809D01*
X144402438Y-101823809D02*
X144450057Y-101871428D01*
X144450057Y-101871428D02*
X144545295Y-101919047D01*
X144545295Y-101919047D02*
X144735771Y-101966666D01*
X144735771Y-101966666D02*
X144973866Y-101966666D01*
X144973866Y-101966666D02*
X145164342Y-101919047D01*
X145164342Y-101919047D02*
X145259580Y-101871428D01*
X145259580Y-101871428D02*
X145307200Y-101823809D01*
X145307200Y-101823809D02*
X145354819Y-101728571D01*
X145354819Y-101728571D02*
X145354819Y-101633333D01*
X145354819Y-101633333D02*
X145307200Y-101538095D01*
X145307200Y-101538095D02*
X145259580Y-101490476D01*
X145259580Y-101490476D02*
X145164342Y-101442857D01*
X145164342Y-101442857D02*
X144973866Y-101395238D01*
X144973866Y-101395238D02*
X144735771Y-101395238D01*
X144735771Y-101395238D02*
X144545295Y-101442857D01*
X144545295Y-101442857D02*
X144450057Y-101490476D01*
X144450057Y-101490476D02*
X144402438Y-101538095D01*
X144402438Y-101538095D02*
X144354819Y-101633333D01*
X145354819Y-102919047D02*
X145354819Y-102347619D01*
X145354819Y-102633333D02*
X144354819Y-102633333D01*
X144354819Y-102633333D02*
X144497676Y-102538095D01*
X144497676Y-102538095D02*
X144592914Y-102442857D01*
X144592914Y-102442857D02*
X144640533Y-102347619D01*
X149224819Y-119180952D02*
X148748628Y-118847619D01*
X149224819Y-118609524D02*
X148224819Y-118609524D01*
X148224819Y-118609524D02*
X148224819Y-118990476D01*
X148224819Y-118990476D02*
X148272438Y-119085714D01*
X148272438Y-119085714D02*
X148320057Y-119133333D01*
X148320057Y-119133333D02*
X148415295Y-119180952D01*
X148415295Y-119180952D02*
X148558152Y-119180952D01*
X148558152Y-119180952D02*
X148653390Y-119133333D01*
X148653390Y-119133333D02*
X148701009Y-119085714D01*
X148701009Y-119085714D02*
X148748628Y-118990476D01*
X148748628Y-118990476D02*
X148748628Y-118609524D01*
X149224819Y-120133333D02*
X149224819Y-119561905D01*
X149224819Y-119847619D02*
X148224819Y-119847619D01*
X148224819Y-119847619D02*
X148367676Y-119752381D01*
X148367676Y-119752381D02*
X148462914Y-119657143D01*
X148462914Y-119657143D02*
X148510533Y-119561905D01*
X148224819Y-120752381D02*
X148224819Y-120847619D01*
X148224819Y-120847619D02*
X148272438Y-120942857D01*
X148272438Y-120942857D02*
X148320057Y-120990476D01*
X148320057Y-120990476D02*
X148415295Y-121038095D01*
X148415295Y-121038095D02*
X148605771Y-121085714D01*
X148605771Y-121085714D02*
X148843866Y-121085714D01*
X148843866Y-121085714D02*
X149034342Y-121038095D01*
X149034342Y-121038095D02*
X149129580Y-120990476D01*
X149129580Y-120990476D02*
X149177200Y-120942857D01*
X149177200Y-120942857D02*
X149224819Y-120847619D01*
X149224819Y-120847619D02*
X149224819Y-120752381D01*
X149224819Y-120752381D02*
X149177200Y-120657143D01*
X149177200Y-120657143D02*
X149129580Y-120609524D01*
X149129580Y-120609524D02*
X149034342Y-120561905D01*
X149034342Y-120561905D02*
X148843866Y-120514286D01*
X148843866Y-120514286D02*
X148605771Y-120514286D01*
X148605771Y-120514286D02*
X148415295Y-120561905D01*
X148415295Y-120561905D02*
X148320057Y-120609524D01*
X148320057Y-120609524D02*
X148272438Y-120657143D01*
X148272438Y-120657143D02*
X148224819Y-120752381D01*
X148653390Y-121657143D02*
X148605771Y-121561905D01*
X148605771Y-121561905D02*
X148558152Y-121514286D01*
X148558152Y-121514286D02*
X148462914Y-121466667D01*
X148462914Y-121466667D02*
X148415295Y-121466667D01*
X148415295Y-121466667D02*
X148320057Y-121514286D01*
X148320057Y-121514286D02*
X148272438Y-121561905D01*
X148272438Y-121561905D02*
X148224819Y-121657143D01*
X148224819Y-121657143D02*
X148224819Y-121847619D01*
X148224819Y-121847619D02*
X148272438Y-121942857D01*
X148272438Y-121942857D02*
X148320057Y-121990476D01*
X148320057Y-121990476D02*
X148415295Y-122038095D01*
X148415295Y-122038095D02*
X148462914Y-122038095D01*
X148462914Y-122038095D02*
X148558152Y-121990476D01*
X148558152Y-121990476D02*
X148605771Y-121942857D01*
X148605771Y-121942857D02*
X148653390Y-121847619D01*
X148653390Y-121847619D02*
X148653390Y-121657143D01*
X148653390Y-121657143D02*
X148701009Y-121561905D01*
X148701009Y-121561905D02*
X148748628Y-121514286D01*
X148748628Y-121514286D02*
X148843866Y-121466667D01*
X148843866Y-121466667D02*
X149034342Y-121466667D01*
X149034342Y-121466667D02*
X149129580Y-121514286D01*
X149129580Y-121514286D02*
X149177200Y-121561905D01*
X149177200Y-121561905D02*
X149224819Y-121657143D01*
X149224819Y-121657143D02*
X149224819Y-121847619D01*
X149224819Y-121847619D02*
X149177200Y-121942857D01*
X149177200Y-121942857D02*
X149129580Y-121990476D01*
X149129580Y-121990476D02*
X149034342Y-122038095D01*
X149034342Y-122038095D02*
X148843866Y-122038095D01*
X148843866Y-122038095D02*
X148748628Y-121990476D01*
X148748628Y-121990476D02*
X148701009Y-121942857D01*
X148701009Y-121942857D02*
X148653390Y-121847619D01*
X132835714Y-99854819D02*
X132835714Y-100569104D01*
X132835714Y-100569104D02*
X132883333Y-100711961D01*
X132883333Y-100711961D02*
X132978571Y-100807200D01*
X132978571Y-100807200D02*
X133121428Y-100854819D01*
X133121428Y-100854819D02*
X133216666Y-100854819D01*
X131835714Y-100854819D02*
X132407142Y-100854819D01*
X132121428Y-100854819D02*
X132121428Y-99854819D01*
X132121428Y-99854819D02*
X132216666Y-99997676D01*
X132216666Y-99997676D02*
X132311904Y-100092914D01*
X132311904Y-100092914D02*
X132407142Y-100140533D01*
X131216666Y-99854819D02*
X131121428Y-99854819D01*
X131121428Y-99854819D02*
X131026190Y-99902438D01*
X131026190Y-99902438D02*
X130978571Y-99950057D01*
X130978571Y-99950057D02*
X130930952Y-100045295D01*
X130930952Y-100045295D02*
X130883333Y-100235771D01*
X130883333Y-100235771D02*
X130883333Y-100473866D01*
X130883333Y-100473866D02*
X130930952Y-100664342D01*
X130930952Y-100664342D02*
X130978571Y-100759580D01*
X130978571Y-100759580D02*
X131026190Y-100807200D01*
X131026190Y-100807200D02*
X131121428Y-100854819D01*
X131121428Y-100854819D02*
X131216666Y-100854819D01*
X131216666Y-100854819D02*
X131311904Y-100807200D01*
X131311904Y-100807200D02*
X131359523Y-100759580D01*
X131359523Y-100759580D02*
X131407142Y-100664342D01*
X131407142Y-100664342D02*
X131454761Y-100473866D01*
X131454761Y-100473866D02*
X131454761Y-100235771D01*
X131454761Y-100235771D02*
X131407142Y-100045295D01*
X131407142Y-100045295D02*
X131359523Y-99950057D01*
X131359523Y-99950057D02*
X131311904Y-99902438D01*
X131311904Y-99902438D02*
X131216666Y-99854819D01*
X129978571Y-99854819D02*
X130454761Y-99854819D01*
X130454761Y-99854819D02*
X130502380Y-100331009D01*
X130502380Y-100331009D02*
X130454761Y-100283390D01*
X130454761Y-100283390D02*
X130359523Y-100235771D01*
X130359523Y-100235771D02*
X130121428Y-100235771D01*
X130121428Y-100235771D02*
X130026190Y-100283390D01*
X130026190Y-100283390D02*
X129978571Y-100331009D01*
X129978571Y-100331009D02*
X129930952Y-100426247D01*
X129930952Y-100426247D02*
X129930952Y-100664342D01*
X129930952Y-100664342D02*
X129978571Y-100759580D01*
X129978571Y-100759580D02*
X130026190Y-100807200D01*
X130026190Y-100807200D02*
X130121428Y-100854819D01*
X130121428Y-100854819D02*
X130359523Y-100854819D01*
X130359523Y-100854819D02*
X130454761Y-100807200D01*
X130454761Y-100807200D02*
X130502380Y-100759580D01*
X172259580Y-121880952D02*
X172307200Y-121833333D01*
X172307200Y-121833333D02*
X172354819Y-121690476D01*
X172354819Y-121690476D02*
X172354819Y-121595238D01*
X172354819Y-121595238D02*
X172307200Y-121452381D01*
X172307200Y-121452381D02*
X172211961Y-121357143D01*
X172211961Y-121357143D02*
X172116723Y-121309524D01*
X172116723Y-121309524D02*
X171926247Y-121261905D01*
X171926247Y-121261905D02*
X171783390Y-121261905D01*
X171783390Y-121261905D02*
X171592914Y-121309524D01*
X171592914Y-121309524D02*
X171497676Y-121357143D01*
X171497676Y-121357143D02*
X171402438Y-121452381D01*
X171402438Y-121452381D02*
X171354819Y-121595238D01*
X171354819Y-121595238D02*
X171354819Y-121690476D01*
X171354819Y-121690476D02*
X171402438Y-121833333D01*
X171402438Y-121833333D02*
X171450057Y-121880952D01*
X172354819Y-122833333D02*
X172354819Y-122261905D01*
X172354819Y-122547619D02*
X171354819Y-122547619D01*
X171354819Y-122547619D02*
X171497676Y-122452381D01*
X171497676Y-122452381D02*
X171592914Y-122357143D01*
X171592914Y-122357143D02*
X171640533Y-122261905D01*
X171354819Y-123452381D02*
X171354819Y-123547619D01*
X171354819Y-123547619D02*
X171402438Y-123642857D01*
X171402438Y-123642857D02*
X171450057Y-123690476D01*
X171450057Y-123690476D02*
X171545295Y-123738095D01*
X171545295Y-123738095D02*
X171735771Y-123785714D01*
X171735771Y-123785714D02*
X171973866Y-123785714D01*
X171973866Y-123785714D02*
X172164342Y-123738095D01*
X172164342Y-123738095D02*
X172259580Y-123690476D01*
X172259580Y-123690476D02*
X172307200Y-123642857D01*
X172307200Y-123642857D02*
X172354819Y-123547619D01*
X172354819Y-123547619D02*
X172354819Y-123452381D01*
X172354819Y-123452381D02*
X172307200Y-123357143D01*
X172307200Y-123357143D02*
X172259580Y-123309524D01*
X172259580Y-123309524D02*
X172164342Y-123261905D01*
X172164342Y-123261905D02*
X171973866Y-123214286D01*
X171973866Y-123214286D02*
X171735771Y-123214286D01*
X171735771Y-123214286D02*
X171545295Y-123261905D01*
X171545295Y-123261905D02*
X171450057Y-123309524D01*
X171450057Y-123309524D02*
X171402438Y-123357143D01*
X171402438Y-123357143D02*
X171354819Y-123452381D01*
X171450057Y-124166667D02*
X171402438Y-124214286D01*
X171402438Y-124214286D02*
X171354819Y-124309524D01*
X171354819Y-124309524D02*
X171354819Y-124547619D01*
X171354819Y-124547619D02*
X171402438Y-124642857D01*
X171402438Y-124642857D02*
X171450057Y-124690476D01*
X171450057Y-124690476D02*
X171545295Y-124738095D01*
X171545295Y-124738095D02*
X171640533Y-124738095D01*
X171640533Y-124738095D02*
X171783390Y-124690476D01*
X171783390Y-124690476D02*
X172354819Y-124119048D01*
X172354819Y-124119048D02*
X172354819Y-124738095D01*
X163819047Y-107259580D02*
X163866666Y-107307200D01*
X163866666Y-107307200D02*
X164009523Y-107354819D01*
X164009523Y-107354819D02*
X164104761Y-107354819D01*
X164104761Y-107354819D02*
X164247618Y-107307200D01*
X164247618Y-107307200D02*
X164342856Y-107211961D01*
X164342856Y-107211961D02*
X164390475Y-107116723D01*
X164390475Y-107116723D02*
X164438094Y-106926247D01*
X164438094Y-106926247D02*
X164438094Y-106783390D01*
X164438094Y-106783390D02*
X164390475Y-106592914D01*
X164390475Y-106592914D02*
X164342856Y-106497676D01*
X164342856Y-106497676D02*
X164247618Y-106402438D01*
X164247618Y-106402438D02*
X164104761Y-106354819D01*
X164104761Y-106354819D02*
X164009523Y-106354819D01*
X164009523Y-106354819D02*
X163866666Y-106402438D01*
X163866666Y-106402438D02*
X163819047Y-106450057D01*
X162866666Y-107354819D02*
X163438094Y-107354819D01*
X163152380Y-107354819D02*
X163152380Y-106354819D01*
X163152380Y-106354819D02*
X163247618Y-106497676D01*
X163247618Y-106497676D02*
X163342856Y-106592914D01*
X163342856Y-106592914D02*
X163438094Y-106640533D01*
X162247618Y-106354819D02*
X162152380Y-106354819D01*
X162152380Y-106354819D02*
X162057142Y-106402438D01*
X162057142Y-106402438D02*
X162009523Y-106450057D01*
X162009523Y-106450057D02*
X161961904Y-106545295D01*
X161961904Y-106545295D02*
X161914285Y-106735771D01*
X161914285Y-106735771D02*
X161914285Y-106973866D01*
X161914285Y-106973866D02*
X161961904Y-107164342D01*
X161961904Y-107164342D02*
X162009523Y-107259580D01*
X162009523Y-107259580D02*
X162057142Y-107307200D01*
X162057142Y-107307200D02*
X162152380Y-107354819D01*
X162152380Y-107354819D02*
X162247618Y-107354819D01*
X162247618Y-107354819D02*
X162342856Y-107307200D01*
X162342856Y-107307200D02*
X162390475Y-107259580D01*
X162390475Y-107259580D02*
X162438094Y-107164342D01*
X162438094Y-107164342D02*
X162485713Y-106973866D01*
X162485713Y-106973866D02*
X162485713Y-106735771D01*
X162485713Y-106735771D02*
X162438094Y-106545295D01*
X162438094Y-106545295D02*
X162390475Y-106450057D01*
X162390475Y-106450057D02*
X162342856Y-106402438D01*
X162342856Y-106402438D02*
X162247618Y-106354819D01*
X161580951Y-106354819D02*
X160961904Y-106354819D01*
X160961904Y-106354819D02*
X161295237Y-106735771D01*
X161295237Y-106735771D02*
X161152380Y-106735771D01*
X161152380Y-106735771D02*
X161057142Y-106783390D01*
X161057142Y-106783390D02*
X161009523Y-106831009D01*
X161009523Y-106831009D02*
X160961904Y-106926247D01*
X160961904Y-106926247D02*
X160961904Y-107164342D01*
X160961904Y-107164342D02*
X161009523Y-107259580D01*
X161009523Y-107259580D02*
X161057142Y-107307200D01*
X161057142Y-107307200D02*
X161152380Y-107354819D01*
X161152380Y-107354819D02*
X161438094Y-107354819D01*
X161438094Y-107354819D02*
X161533332Y-107307200D01*
X161533332Y-107307200D02*
X161580951Y-107259580D01*
X169585714Y-96954819D02*
X169585714Y-97669104D01*
X169585714Y-97669104D02*
X169633333Y-97811961D01*
X169633333Y-97811961D02*
X169728571Y-97907200D01*
X169728571Y-97907200D02*
X169871428Y-97954819D01*
X169871428Y-97954819D02*
X169966666Y-97954819D01*
X168585714Y-97954819D02*
X169157142Y-97954819D01*
X168871428Y-97954819D02*
X168871428Y-96954819D01*
X168871428Y-96954819D02*
X168966666Y-97097676D01*
X168966666Y-97097676D02*
X169061904Y-97192914D01*
X169061904Y-97192914D02*
X169157142Y-97240533D01*
X167966666Y-96954819D02*
X167871428Y-96954819D01*
X167871428Y-96954819D02*
X167776190Y-97002438D01*
X167776190Y-97002438D02*
X167728571Y-97050057D01*
X167728571Y-97050057D02*
X167680952Y-97145295D01*
X167680952Y-97145295D02*
X167633333Y-97335771D01*
X167633333Y-97335771D02*
X167633333Y-97573866D01*
X167633333Y-97573866D02*
X167680952Y-97764342D01*
X167680952Y-97764342D02*
X167728571Y-97859580D01*
X167728571Y-97859580D02*
X167776190Y-97907200D01*
X167776190Y-97907200D02*
X167871428Y-97954819D01*
X167871428Y-97954819D02*
X167966666Y-97954819D01*
X167966666Y-97954819D02*
X168061904Y-97907200D01*
X168061904Y-97907200D02*
X168109523Y-97859580D01*
X168109523Y-97859580D02*
X168157142Y-97764342D01*
X168157142Y-97764342D02*
X168204761Y-97573866D01*
X168204761Y-97573866D02*
X168204761Y-97335771D01*
X168204761Y-97335771D02*
X168157142Y-97145295D01*
X168157142Y-97145295D02*
X168109523Y-97050057D01*
X168109523Y-97050057D02*
X168061904Y-97002438D01*
X168061904Y-97002438D02*
X167966666Y-96954819D01*
X166680952Y-97954819D02*
X167252380Y-97954819D01*
X166966666Y-97954819D02*
X166966666Y-96954819D01*
X166966666Y-96954819D02*
X167061904Y-97097676D01*
X167061904Y-97097676D02*
X167157142Y-97192914D01*
X167157142Y-97192914D02*
X167252380Y-97240533D01*
X155124819Y-117980952D02*
X154648628Y-117647619D01*
X155124819Y-117409524D02*
X154124819Y-117409524D01*
X154124819Y-117409524D02*
X154124819Y-117790476D01*
X154124819Y-117790476D02*
X154172438Y-117885714D01*
X154172438Y-117885714D02*
X154220057Y-117933333D01*
X154220057Y-117933333D02*
X154315295Y-117980952D01*
X154315295Y-117980952D02*
X154458152Y-117980952D01*
X154458152Y-117980952D02*
X154553390Y-117933333D01*
X154553390Y-117933333D02*
X154601009Y-117885714D01*
X154601009Y-117885714D02*
X154648628Y-117790476D01*
X154648628Y-117790476D02*
X154648628Y-117409524D01*
X155124819Y-118933333D02*
X155124819Y-118361905D01*
X155124819Y-118647619D02*
X154124819Y-118647619D01*
X154124819Y-118647619D02*
X154267676Y-118552381D01*
X154267676Y-118552381D02*
X154362914Y-118457143D01*
X154362914Y-118457143D02*
X154410533Y-118361905D01*
X154124819Y-119552381D02*
X154124819Y-119647619D01*
X154124819Y-119647619D02*
X154172438Y-119742857D01*
X154172438Y-119742857D02*
X154220057Y-119790476D01*
X154220057Y-119790476D02*
X154315295Y-119838095D01*
X154315295Y-119838095D02*
X154505771Y-119885714D01*
X154505771Y-119885714D02*
X154743866Y-119885714D01*
X154743866Y-119885714D02*
X154934342Y-119838095D01*
X154934342Y-119838095D02*
X155029580Y-119790476D01*
X155029580Y-119790476D02*
X155077200Y-119742857D01*
X155077200Y-119742857D02*
X155124819Y-119647619D01*
X155124819Y-119647619D02*
X155124819Y-119552381D01*
X155124819Y-119552381D02*
X155077200Y-119457143D01*
X155077200Y-119457143D02*
X155029580Y-119409524D01*
X155029580Y-119409524D02*
X154934342Y-119361905D01*
X154934342Y-119361905D02*
X154743866Y-119314286D01*
X154743866Y-119314286D02*
X154505771Y-119314286D01*
X154505771Y-119314286D02*
X154315295Y-119361905D01*
X154315295Y-119361905D02*
X154220057Y-119409524D01*
X154220057Y-119409524D02*
X154172438Y-119457143D01*
X154172438Y-119457143D02*
X154124819Y-119552381D01*
X154124819Y-120219048D02*
X154124819Y-120885714D01*
X154124819Y-120885714D02*
X155124819Y-120457143D01*
X159054819Y-119555952D02*
X158578628Y-119222619D01*
X159054819Y-118984524D02*
X158054819Y-118984524D01*
X158054819Y-118984524D02*
X158054819Y-119365476D01*
X158054819Y-119365476D02*
X158102438Y-119460714D01*
X158102438Y-119460714D02*
X158150057Y-119508333D01*
X158150057Y-119508333D02*
X158245295Y-119555952D01*
X158245295Y-119555952D02*
X158388152Y-119555952D01*
X158388152Y-119555952D02*
X158483390Y-119508333D01*
X158483390Y-119508333D02*
X158531009Y-119460714D01*
X158531009Y-119460714D02*
X158578628Y-119365476D01*
X158578628Y-119365476D02*
X158578628Y-118984524D01*
X159054819Y-120508333D02*
X159054819Y-119936905D01*
X159054819Y-120222619D02*
X158054819Y-120222619D01*
X158054819Y-120222619D02*
X158197676Y-120127381D01*
X158197676Y-120127381D02*
X158292914Y-120032143D01*
X158292914Y-120032143D02*
X158340533Y-119936905D01*
X158054819Y-121127381D02*
X158054819Y-121222619D01*
X158054819Y-121222619D02*
X158102438Y-121317857D01*
X158102438Y-121317857D02*
X158150057Y-121365476D01*
X158150057Y-121365476D02*
X158245295Y-121413095D01*
X158245295Y-121413095D02*
X158435771Y-121460714D01*
X158435771Y-121460714D02*
X158673866Y-121460714D01*
X158673866Y-121460714D02*
X158864342Y-121413095D01*
X158864342Y-121413095D02*
X158959580Y-121365476D01*
X158959580Y-121365476D02*
X159007200Y-121317857D01*
X159007200Y-121317857D02*
X159054819Y-121222619D01*
X159054819Y-121222619D02*
X159054819Y-121127381D01*
X159054819Y-121127381D02*
X159007200Y-121032143D01*
X159007200Y-121032143D02*
X158959580Y-120984524D01*
X158959580Y-120984524D02*
X158864342Y-120936905D01*
X158864342Y-120936905D02*
X158673866Y-120889286D01*
X158673866Y-120889286D02*
X158435771Y-120889286D01*
X158435771Y-120889286D02*
X158245295Y-120936905D01*
X158245295Y-120936905D02*
X158150057Y-120984524D01*
X158150057Y-120984524D02*
X158102438Y-121032143D01*
X158102438Y-121032143D02*
X158054819Y-121127381D01*
X158054819Y-122365476D02*
X158054819Y-121889286D01*
X158054819Y-121889286D02*
X158531009Y-121841667D01*
X158531009Y-121841667D02*
X158483390Y-121889286D01*
X158483390Y-121889286D02*
X158435771Y-121984524D01*
X158435771Y-121984524D02*
X158435771Y-122222619D01*
X158435771Y-122222619D02*
X158483390Y-122317857D01*
X158483390Y-122317857D02*
X158531009Y-122365476D01*
X158531009Y-122365476D02*
X158626247Y-122413095D01*
X158626247Y-122413095D02*
X158864342Y-122413095D01*
X158864342Y-122413095D02*
X158959580Y-122365476D01*
X158959580Y-122365476D02*
X159007200Y-122317857D01*
X159007200Y-122317857D02*
X159054819Y-122222619D01*
X159054819Y-122222619D02*
X159054819Y-121984524D01*
X159054819Y-121984524D02*
X159007200Y-121889286D01*
X159007200Y-121889286D02*
X158959580Y-121841667D01*
X177394047Y-113154819D02*
X177727380Y-112678628D01*
X177965475Y-113154819D02*
X177965475Y-112154819D01*
X177965475Y-112154819D02*
X177584523Y-112154819D01*
X177584523Y-112154819D02*
X177489285Y-112202438D01*
X177489285Y-112202438D02*
X177441666Y-112250057D01*
X177441666Y-112250057D02*
X177394047Y-112345295D01*
X177394047Y-112345295D02*
X177394047Y-112488152D01*
X177394047Y-112488152D02*
X177441666Y-112583390D01*
X177441666Y-112583390D02*
X177489285Y-112631009D01*
X177489285Y-112631009D02*
X177584523Y-112678628D01*
X177584523Y-112678628D02*
X177965475Y-112678628D01*
X176441666Y-113154819D02*
X177013094Y-113154819D01*
X176727380Y-113154819D02*
X176727380Y-112154819D01*
X176727380Y-112154819D02*
X176822618Y-112297676D01*
X176822618Y-112297676D02*
X176917856Y-112392914D01*
X176917856Y-112392914D02*
X177013094Y-112440533D01*
X175489285Y-113154819D02*
X176060713Y-113154819D01*
X175774999Y-113154819D02*
X175774999Y-112154819D01*
X175774999Y-112154819D02*
X175870237Y-112297676D01*
X175870237Y-112297676D02*
X175965475Y-112392914D01*
X175965475Y-112392914D02*
X176060713Y-112440533D01*
X174536904Y-113154819D02*
X175108332Y-113154819D01*
X174822618Y-113154819D02*
X174822618Y-112154819D01*
X174822618Y-112154819D02*
X174917856Y-112297676D01*
X174917856Y-112297676D02*
X175013094Y-112392914D01*
X175013094Y-112392914D02*
X175108332Y-112440533D01*
X170559580Y-121880952D02*
X170607200Y-121833333D01*
X170607200Y-121833333D02*
X170654819Y-121690476D01*
X170654819Y-121690476D02*
X170654819Y-121595238D01*
X170654819Y-121595238D02*
X170607200Y-121452381D01*
X170607200Y-121452381D02*
X170511961Y-121357143D01*
X170511961Y-121357143D02*
X170416723Y-121309524D01*
X170416723Y-121309524D02*
X170226247Y-121261905D01*
X170226247Y-121261905D02*
X170083390Y-121261905D01*
X170083390Y-121261905D02*
X169892914Y-121309524D01*
X169892914Y-121309524D02*
X169797676Y-121357143D01*
X169797676Y-121357143D02*
X169702438Y-121452381D01*
X169702438Y-121452381D02*
X169654819Y-121595238D01*
X169654819Y-121595238D02*
X169654819Y-121690476D01*
X169654819Y-121690476D02*
X169702438Y-121833333D01*
X169702438Y-121833333D02*
X169750057Y-121880952D01*
X170654819Y-122833333D02*
X170654819Y-122261905D01*
X170654819Y-122547619D02*
X169654819Y-122547619D01*
X169654819Y-122547619D02*
X169797676Y-122452381D01*
X169797676Y-122452381D02*
X169892914Y-122357143D01*
X169892914Y-122357143D02*
X169940533Y-122261905D01*
X169654819Y-123452381D02*
X169654819Y-123547619D01*
X169654819Y-123547619D02*
X169702438Y-123642857D01*
X169702438Y-123642857D02*
X169750057Y-123690476D01*
X169750057Y-123690476D02*
X169845295Y-123738095D01*
X169845295Y-123738095D02*
X170035771Y-123785714D01*
X170035771Y-123785714D02*
X170273866Y-123785714D01*
X170273866Y-123785714D02*
X170464342Y-123738095D01*
X170464342Y-123738095D02*
X170559580Y-123690476D01*
X170559580Y-123690476D02*
X170607200Y-123642857D01*
X170607200Y-123642857D02*
X170654819Y-123547619D01*
X170654819Y-123547619D02*
X170654819Y-123452381D01*
X170654819Y-123452381D02*
X170607200Y-123357143D01*
X170607200Y-123357143D02*
X170559580Y-123309524D01*
X170559580Y-123309524D02*
X170464342Y-123261905D01*
X170464342Y-123261905D02*
X170273866Y-123214286D01*
X170273866Y-123214286D02*
X170035771Y-123214286D01*
X170035771Y-123214286D02*
X169845295Y-123261905D01*
X169845295Y-123261905D02*
X169750057Y-123309524D01*
X169750057Y-123309524D02*
X169702438Y-123357143D01*
X169702438Y-123357143D02*
X169654819Y-123452381D01*
X170654819Y-124738095D02*
X170654819Y-124166667D01*
X170654819Y-124452381D02*
X169654819Y-124452381D01*
X169654819Y-124452381D02*
X169797676Y-124357143D01*
X169797676Y-124357143D02*
X169892914Y-124261905D01*
X169892914Y-124261905D02*
X169940533Y-124166667D01*
X155124819Y-112980952D02*
X154648628Y-112647619D01*
X155124819Y-112409524D02*
X154124819Y-112409524D01*
X154124819Y-112409524D02*
X154124819Y-112790476D01*
X154124819Y-112790476D02*
X154172438Y-112885714D01*
X154172438Y-112885714D02*
X154220057Y-112933333D01*
X154220057Y-112933333D02*
X154315295Y-112980952D01*
X154315295Y-112980952D02*
X154458152Y-112980952D01*
X154458152Y-112980952D02*
X154553390Y-112933333D01*
X154553390Y-112933333D02*
X154601009Y-112885714D01*
X154601009Y-112885714D02*
X154648628Y-112790476D01*
X154648628Y-112790476D02*
X154648628Y-112409524D01*
X155124819Y-113933333D02*
X155124819Y-113361905D01*
X155124819Y-113647619D02*
X154124819Y-113647619D01*
X154124819Y-113647619D02*
X154267676Y-113552381D01*
X154267676Y-113552381D02*
X154362914Y-113457143D01*
X154362914Y-113457143D02*
X154410533Y-113361905D01*
X155124819Y-114885714D02*
X155124819Y-114314286D01*
X155124819Y-114600000D02*
X154124819Y-114600000D01*
X154124819Y-114600000D02*
X154267676Y-114504762D01*
X154267676Y-114504762D02*
X154362914Y-114409524D01*
X154362914Y-114409524D02*
X154410533Y-114314286D01*
X154124819Y-115504762D02*
X154124819Y-115600000D01*
X154124819Y-115600000D02*
X154172438Y-115695238D01*
X154172438Y-115695238D02*
X154220057Y-115742857D01*
X154220057Y-115742857D02*
X154315295Y-115790476D01*
X154315295Y-115790476D02*
X154505771Y-115838095D01*
X154505771Y-115838095D02*
X154743866Y-115838095D01*
X154743866Y-115838095D02*
X154934342Y-115790476D01*
X154934342Y-115790476D02*
X155029580Y-115742857D01*
X155029580Y-115742857D02*
X155077200Y-115695238D01*
X155077200Y-115695238D02*
X155124819Y-115600000D01*
X155124819Y-115600000D02*
X155124819Y-115504762D01*
X155124819Y-115504762D02*
X155077200Y-115409524D01*
X155077200Y-115409524D02*
X155029580Y-115361905D01*
X155029580Y-115361905D02*
X154934342Y-115314286D01*
X154934342Y-115314286D02*
X154743866Y-115266667D01*
X154743866Y-115266667D02*
X154505771Y-115266667D01*
X154505771Y-115266667D02*
X154315295Y-115314286D01*
X154315295Y-115314286D02*
X154220057Y-115361905D01*
X154220057Y-115361905D02*
X154172438Y-115409524D01*
X154172438Y-115409524D02*
X154124819Y-115504762D01*
X111545180Y-138156354D02*
X110830895Y-138156354D01*
X110830895Y-138156354D02*
X110688038Y-138203973D01*
X110688038Y-138203973D02*
X110592800Y-138299211D01*
X110592800Y-138299211D02*
X110545180Y-138442068D01*
X110545180Y-138442068D02*
X110545180Y-138537306D01*
X110545180Y-137156354D02*
X110545180Y-137727782D01*
X110545180Y-137442068D02*
X111545180Y-137442068D01*
X111545180Y-137442068D02*
X111402323Y-137537306D01*
X111402323Y-137537306D02*
X111307085Y-137632544D01*
X111307085Y-137632544D02*
X111259466Y-137727782D01*
X111545180Y-136537306D02*
X111545180Y-136442068D01*
X111545180Y-136442068D02*
X111497561Y-136346830D01*
X111497561Y-136346830D02*
X111449942Y-136299211D01*
X111449942Y-136299211D02*
X111354704Y-136251592D01*
X111354704Y-136251592D02*
X111164228Y-136203973D01*
X111164228Y-136203973D02*
X110926133Y-136203973D01*
X110926133Y-136203973D02*
X110735657Y-136251592D01*
X110735657Y-136251592D02*
X110640419Y-136299211D01*
X110640419Y-136299211D02*
X110592800Y-136346830D01*
X110592800Y-136346830D02*
X110545180Y-136442068D01*
X110545180Y-136442068D02*
X110545180Y-136537306D01*
X110545180Y-136537306D02*
X110592800Y-136632544D01*
X110592800Y-136632544D02*
X110640419Y-136680163D01*
X110640419Y-136680163D02*
X110735657Y-136727782D01*
X110735657Y-136727782D02*
X110926133Y-136775401D01*
X110926133Y-136775401D02*
X111164228Y-136775401D01*
X111164228Y-136775401D02*
X111354704Y-136727782D01*
X111354704Y-136727782D02*
X111449942Y-136680163D01*
X111449942Y-136680163D02*
X111497561Y-136632544D01*
X111497561Y-136632544D02*
X111545180Y-136537306D01*
X111545180Y-135346830D02*
X111545180Y-135537306D01*
X111545180Y-135537306D02*
X111497561Y-135632544D01*
X111497561Y-135632544D02*
X111449942Y-135680163D01*
X111449942Y-135680163D02*
X111307085Y-135775401D01*
X111307085Y-135775401D02*
X111116609Y-135823020D01*
X111116609Y-135823020D02*
X110735657Y-135823020D01*
X110735657Y-135823020D02*
X110640419Y-135775401D01*
X110640419Y-135775401D02*
X110592800Y-135727782D01*
X110592800Y-135727782D02*
X110545180Y-135632544D01*
X110545180Y-135632544D02*
X110545180Y-135442068D01*
X110545180Y-135442068D02*
X110592800Y-135346830D01*
X110592800Y-135346830D02*
X110640419Y-135299211D01*
X110640419Y-135299211D02*
X110735657Y-135251592D01*
X110735657Y-135251592D02*
X110973752Y-135251592D01*
X110973752Y-135251592D02*
X111068990Y-135299211D01*
X111068990Y-135299211D02*
X111116609Y-135346830D01*
X111116609Y-135346830D02*
X111164228Y-135442068D01*
X111164228Y-135442068D02*
X111164228Y-135632544D01*
X111164228Y-135632544D02*
X111116609Y-135727782D01*
X111116609Y-135727782D02*
X111068990Y-135775401D01*
X111068990Y-135775401D02*
X110973752Y-135823020D01*
X176054819Y-123555952D02*
X175578628Y-123222619D01*
X176054819Y-122984524D02*
X175054819Y-122984524D01*
X175054819Y-122984524D02*
X175054819Y-123365476D01*
X175054819Y-123365476D02*
X175102438Y-123460714D01*
X175102438Y-123460714D02*
X175150057Y-123508333D01*
X175150057Y-123508333D02*
X175245295Y-123555952D01*
X175245295Y-123555952D02*
X175388152Y-123555952D01*
X175388152Y-123555952D02*
X175483390Y-123508333D01*
X175483390Y-123508333D02*
X175531009Y-123460714D01*
X175531009Y-123460714D02*
X175578628Y-123365476D01*
X175578628Y-123365476D02*
X175578628Y-122984524D01*
X176054819Y-124508333D02*
X176054819Y-123936905D01*
X176054819Y-124222619D02*
X175054819Y-124222619D01*
X175054819Y-124222619D02*
X175197676Y-124127381D01*
X175197676Y-124127381D02*
X175292914Y-124032143D01*
X175292914Y-124032143D02*
X175340533Y-123936905D01*
X175054819Y-125127381D02*
X175054819Y-125222619D01*
X175054819Y-125222619D02*
X175102438Y-125317857D01*
X175102438Y-125317857D02*
X175150057Y-125365476D01*
X175150057Y-125365476D02*
X175245295Y-125413095D01*
X175245295Y-125413095D02*
X175435771Y-125460714D01*
X175435771Y-125460714D02*
X175673866Y-125460714D01*
X175673866Y-125460714D02*
X175864342Y-125413095D01*
X175864342Y-125413095D02*
X175959580Y-125365476D01*
X175959580Y-125365476D02*
X176007200Y-125317857D01*
X176007200Y-125317857D02*
X176054819Y-125222619D01*
X176054819Y-125222619D02*
X176054819Y-125127381D01*
X176054819Y-125127381D02*
X176007200Y-125032143D01*
X176007200Y-125032143D02*
X175959580Y-124984524D01*
X175959580Y-124984524D02*
X175864342Y-124936905D01*
X175864342Y-124936905D02*
X175673866Y-124889286D01*
X175673866Y-124889286D02*
X175435771Y-124889286D01*
X175435771Y-124889286D02*
X175245295Y-124936905D01*
X175245295Y-124936905D02*
X175150057Y-124984524D01*
X175150057Y-124984524D02*
X175102438Y-125032143D01*
X175102438Y-125032143D02*
X175054819Y-125127381D01*
X175054819Y-125794048D02*
X175054819Y-126413095D01*
X175054819Y-126413095D02*
X175435771Y-126079762D01*
X175435771Y-126079762D02*
X175435771Y-126222619D01*
X175435771Y-126222619D02*
X175483390Y-126317857D01*
X175483390Y-126317857D02*
X175531009Y-126365476D01*
X175531009Y-126365476D02*
X175626247Y-126413095D01*
X175626247Y-126413095D02*
X175864342Y-126413095D01*
X175864342Y-126413095D02*
X175959580Y-126365476D01*
X175959580Y-126365476D02*
X176007200Y-126317857D01*
X176007200Y-126317857D02*
X176054819Y-126222619D01*
X176054819Y-126222619D02*
X176054819Y-125936905D01*
X176054819Y-125936905D02*
X176007200Y-125841667D01*
X176007200Y-125841667D02*
X175959580Y-125794048D01*
X170379819Y-113271429D02*
X169379819Y-113271429D01*
X170284580Y-114319047D02*
X170332200Y-114271428D01*
X170332200Y-114271428D02*
X170379819Y-114128571D01*
X170379819Y-114128571D02*
X170379819Y-114033333D01*
X170379819Y-114033333D02*
X170332200Y-113890476D01*
X170332200Y-113890476D02*
X170236961Y-113795238D01*
X170236961Y-113795238D02*
X170141723Y-113747619D01*
X170141723Y-113747619D02*
X169951247Y-113700000D01*
X169951247Y-113700000D02*
X169808390Y-113700000D01*
X169808390Y-113700000D02*
X169617914Y-113747619D01*
X169617914Y-113747619D02*
X169522676Y-113795238D01*
X169522676Y-113795238D02*
X169427438Y-113890476D01*
X169427438Y-113890476D02*
X169379819Y-114033333D01*
X169379819Y-114033333D02*
X169379819Y-114128571D01*
X169379819Y-114128571D02*
X169427438Y-114271428D01*
X169427438Y-114271428D02*
X169475057Y-114319047D01*
X170379819Y-115271428D02*
X170379819Y-114700000D01*
X170379819Y-114985714D02*
X169379819Y-114985714D01*
X169379819Y-114985714D02*
X169522676Y-114890476D01*
X169522676Y-114890476D02*
X169617914Y-114795238D01*
X169617914Y-114795238D02*
X169665533Y-114700000D01*
X169379819Y-115890476D02*
X169379819Y-115985714D01*
X169379819Y-115985714D02*
X169427438Y-116080952D01*
X169427438Y-116080952D02*
X169475057Y-116128571D01*
X169475057Y-116128571D02*
X169570295Y-116176190D01*
X169570295Y-116176190D02*
X169760771Y-116223809D01*
X169760771Y-116223809D02*
X169998866Y-116223809D01*
X169998866Y-116223809D02*
X170189342Y-116176190D01*
X170189342Y-116176190D02*
X170284580Y-116128571D01*
X170284580Y-116128571D02*
X170332200Y-116080952D01*
X170332200Y-116080952D02*
X170379819Y-115985714D01*
X170379819Y-115985714D02*
X170379819Y-115890476D01*
X170379819Y-115890476D02*
X170332200Y-115795238D01*
X170332200Y-115795238D02*
X170284580Y-115747619D01*
X170284580Y-115747619D02*
X170189342Y-115700000D01*
X170189342Y-115700000D02*
X169998866Y-115652381D01*
X169998866Y-115652381D02*
X169760771Y-115652381D01*
X169760771Y-115652381D02*
X169570295Y-115700000D01*
X169570295Y-115700000D02*
X169475057Y-115747619D01*
X169475057Y-115747619D02*
X169427438Y-115795238D01*
X169427438Y-115795238D02*
X169379819Y-115890476D01*
X170379819Y-117176190D02*
X170379819Y-116604762D01*
X170379819Y-116890476D02*
X169379819Y-116890476D01*
X169379819Y-116890476D02*
X169522676Y-116795238D01*
X169522676Y-116795238D02*
X169617914Y-116700000D01*
X169617914Y-116700000D02*
X169665533Y-116604762D01*
X150674819Y-88714285D02*
X151389104Y-88714285D01*
X151389104Y-88714285D02*
X151531961Y-88666666D01*
X151531961Y-88666666D02*
X151627200Y-88571428D01*
X151627200Y-88571428D02*
X151674819Y-88428571D01*
X151674819Y-88428571D02*
X151674819Y-88333333D01*
X151674819Y-89714285D02*
X151674819Y-89142857D01*
X151674819Y-89428571D02*
X150674819Y-89428571D01*
X150674819Y-89428571D02*
X150817676Y-89333333D01*
X150817676Y-89333333D02*
X150912914Y-89238095D01*
X150912914Y-89238095D02*
X150960533Y-89142857D01*
X150674819Y-90333333D02*
X150674819Y-90428571D01*
X150674819Y-90428571D02*
X150722438Y-90523809D01*
X150722438Y-90523809D02*
X150770057Y-90571428D01*
X150770057Y-90571428D02*
X150865295Y-90619047D01*
X150865295Y-90619047D02*
X151055771Y-90666666D01*
X151055771Y-90666666D02*
X151293866Y-90666666D01*
X151293866Y-90666666D02*
X151484342Y-90619047D01*
X151484342Y-90619047D02*
X151579580Y-90571428D01*
X151579580Y-90571428D02*
X151627200Y-90523809D01*
X151627200Y-90523809D02*
X151674819Y-90428571D01*
X151674819Y-90428571D02*
X151674819Y-90333333D01*
X151674819Y-90333333D02*
X151627200Y-90238095D01*
X151627200Y-90238095D02*
X151579580Y-90190476D01*
X151579580Y-90190476D02*
X151484342Y-90142857D01*
X151484342Y-90142857D02*
X151293866Y-90095238D01*
X151293866Y-90095238D02*
X151055771Y-90095238D01*
X151055771Y-90095238D02*
X150865295Y-90142857D01*
X150865295Y-90142857D02*
X150770057Y-90190476D01*
X150770057Y-90190476D02*
X150722438Y-90238095D01*
X150722438Y-90238095D02*
X150674819Y-90333333D01*
X150770057Y-91047619D02*
X150722438Y-91095238D01*
X150722438Y-91095238D02*
X150674819Y-91190476D01*
X150674819Y-91190476D02*
X150674819Y-91428571D01*
X150674819Y-91428571D02*
X150722438Y-91523809D01*
X150722438Y-91523809D02*
X150770057Y-91571428D01*
X150770057Y-91571428D02*
X150865295Y-91619047D01*
X150865295Y-91619047D02*
X150960533Y-91619047D01*
X150960533Y-91619047D02*
X151103390Y-91571428D01*
X151103390Y-91571428D02*
X151674819Y-91000000D01*
X151674819Y-91000000D02*
X151674819Y-91619047D01*
D11*
X181477500Y-121137258D02*
X181477500Y-120662742D01*
X182522500Y-121137258D02*
X182522500Y-120662742D01*
D12*
X138972999Y-133224140D02*
X138972999Y-140717140D01*
X138972999Y-140717140D02*
X139317860Y-140717140D01*
X139317860Y-133224140D02*
X138972999Y-133224140D01*
X143082140Y-140717140D02*
X143417999Y-140717140D01*
X143417999Y-133224140D02*
X143082140Y-133224140D01*
X143417999Y-135606500D02*
X143417999Y-133224140D01*
X143417999Y-140717140D02*
X143417999Y-138334780D01*
D13*
X144480999Y-141352140D02*
G75*
G02*
X143718999Y-141352140I-381000J0D01*
G01*
X143718999Y-141352140D02*
G75*
G02*
X144480999Y-141352140I381000J0D01*
G01*
D11*
X158077500Y-113237258D02*
X158077500Y-112762742D01*
X159122500Y-113237258D02*
X159122500Y-112762742D01*
X172062742Y-115677500D02*
X172537258Y-115677500D01*
X172062742Y-116722500D02*
X172537258Y-116722500D01*
X142377500Y-110562742D02*
X142377500Y-111037258D01*
X143422500Y-110562742D02*
X143422500Y-111037258D01*
X178277500Y-121137258D02*
X178277500Y-120662742D01*
X179322500Y-121137258D02*
X179322500Y-120662742D01*
X146962742Y-94477500D02*
X147437258Y-94477500D01*
X146962742Y-95522500D02*
X147437258Y-95522500D01*
D12*
X187353500Y-101877500D02*
X187353500Y-102222361D01*
X187353500Y-105986641D02*
X187353500Y-106322500D01*
X187353500Y-106322500D02*
X189735860Y-106322500D01*
X192464140Y-106322500D02*
X194846500Y-106322500D01*
X194846500Y-101877500D02*
X187353500Y-101877500D01*
X194846500Y-102222361D02*
X194846500Y-101877500D01*
X194846500Y-106322500D02*
X194846500Y-105986641D01*
D13*
X187099500Y-107004500D02*
G75*
G02*
X186337500Y-107004500I-381000J0D01*
G01*
X186337500Y-107004500D02*
G75*
G02*
X187099500Y-107004500I381000J0D01*
G01*
D11*
X143777500Y-121537258D02*
X143777500Y-121062742D01*
X144822500Y-121537258D02*
X144822500Y-121062742D01*
X145800000Y-99400000D02*
X147800000Y-99400000D01*
X145800000Y-102200000D02*
X145800000Y-99400000D01*
X147800000Y-99400000D02*
X147800000Y-102200000D01*
X147800000Y-102200000D02*
X145800000Y-102200000D01*
X149677500Y-120537258D02*
X149677500Y-120062742D01*
X150722500Y-120537258D02*
X150722500Y-120062742D01*
D12*
X127828500Y-101772999D02*
X127828500Y-102117860D01*
X127828500Y-105882140D02*
X127828500Y-106217999D01*
X127828500Y-106217999D02*
X130210860Y-106217999D01*
X132939140Y-106217999D02*
X135321500Y-106217999D01*
X135321500Y-101772999D02*
X127828500Y-101772999D01*
X135321500Y-102117860D02*
X135321500Y-101772999D01*
X135321500Y-106217999D02*
X135321500Y-105882140D01*
D13*
X127574500Y-106899999D02*
G75*
G02*
X126812500Y-106899999I-381000J0D01*
G01*
X126812500Y-106899999D02*
G75*
G02*
X127574500Y-106899999I381000J0D01*
G01*
D11*
X171540000Y-119592164D02*
X171540000Y-119807836D01*
X172260000Y-119592164D02*
X172260000Y-119807836D01*
X162807836Y-107840000D02*
X162592164Y-107840000D01*
X162807836Y-108560000D02*
X162592164Y-108560000D01*
D12*
X162673900Y-98673000D02*
X162673900Y-99017861D01*
X162673900Y-102782141D02*
X162673900Y-103118000D01*
X162673900Y-103118000D02*
X165060860Y-103118000D01*
X171539140Y-103118000D02*
X173926100Y-103118000D01*
X173926100Y-98673000D02*
X162673900Y-98673000D01*
X173926100Y-99017861D02*
X173926100Y-98673000D01*
X173926100Y-103118000D02*
X173926100Y-102782141D01*
D13*
X162419900Y-103800000D02*
G75*
G02*
X161657900Y-103800000I-381000J0D01*
G01*
X161657900Y-103800000D02*
G75*
G02*
X162419900Y-103800000I381000J0D01*
G01*
D11*
X155577500Y-119337258D02*
X155577500Y-118862742D01*
X156622500Y-119337258D02*
X156622500Y-118862742D01*
X158077500Y-116762742D02*
X158077500Y-117237258D01*
X159122500Y-116762742D02*
X159122500Y-117237258D01*
X172062742Y-112177500D02*
X172537258Y-112177500D01*
X172062742Y-113222500D02*
X172537258Y-113222500D01*
X169840000Y-119592164D02*
X169840000Y-119807836D01*
X170560000Y-119592164D02*
X170560000Y-119807836D01*
X155577500Y-114337258D02*
X155577500Y-113862742D01*
X156622500Y-114337258D02*
X156622500Y-113862742D01*
D12*
X105482001Y-133249140D02*
X105482001Y-135631500D01*
X105482001Y-138359780D02*
X105482001Y-140742140D01*
X105482001Y-140742140D02*
X105817860Y-140742140D01*
X105817860Y-133249140D02*
X105482001Y-133249140D01*
X109582140Y-140742140D02*
X109927001Y-140742140D01*
X109927001Y-133249140D02*
X109582140Y-133249140D01*
X109927001Y-140742140D02*
X109927001Y-133249140D01*
D13*
X105181001Y-132614140D02*
G75*
G02*
X104419001Y-132614140I-381000J0D01*
G01*
X104419001Y-132614140D02*
G75*
G02*
X105181001Y-132614140I381000J0D01*
G01*
D11*
X175077500Y-121137258D02*
X175077500Y-120662742D01*
X176122500Y-121137258D02*
X176122500Y-120662742D01*
X161665000Y-112440000D02*
X161665000Y-115200000D01*
X161665000Y-117960000D02*
X161665000Y-115200000D01*
X161940000Y-112440000D02*
X161665000Y-112440000D01*
X161940000Y-117960000D02*
X161665000Y-117960000D01*
X168810000Y-112440000D02*
X169085000Y-112440000D01*
X168810000Y-117960000D02*
X169085000Y-117960000D01*
X169085000Y-112440000D02*
X169085000Y-115200000D01*
X169085000Y-117960000D02*
X169085000Y-115200000D01*
X169140000Y-118990000D02*
X168810000Y-118750000D01*
X169140000Y-118510000D01*
X169140000Y-118990000D01*
G36*
X169140000Y-118990000D02*
G01*
X168810000Y-118750000D01*
X169140000Y-118510000D01*
X169140000Y-118990000D01*
G37*
X133990000Y-88670000D02*
X133990000Y-91330000D01*
X133990000Y-88670000D02*
X146750000Y-88670000D01*
X133990000Y-91330000D02*
X146750000Y-91330000D01*
X146750000Y-88670000D02*
X146750000Y-91330000D01*
X149350000Y-90000000D02*
X149350000Y-91330000D01*
X149350000Y-91330000D02*
X148020000Y-91330000D01*
%LPC*%
D14*
X182000000Y-120075000D03*
X182000000Y-121725000D03*
D15*
X144099999Y-137595640D03*
X144099999Y-136345640D03*
D16*
X141200000Y-133795640D03*
X141200000Y-140145640D03*
D14*
X158600000Y-112175000D03*
X158600000Y-113825000D03*
D17*
X173125000Y-116200000D03*
X171475000Y-116200000D03*
D18*
X142900000Y-111625000D03*
X142900000Y-109975000D03*
D14*
X178800000Y-120075000D03*
X178800000Y-121725000D03*
D17*
X148025000Y-95000000D03*
X146375000Y-95000000D03*
D19*
X190475000Y-107004500D03*
X191725000Y-107004500D03*
D20*
X194275000Y-104104501D03*
X187925000Y-104104501D03*
D14*
X144300000Y-120475000D03*
X144300000Y-122125000D03*
D21*
X146800000Y-100075000D03*
D22*
X146800000Y-101525000D03*
D14*
X150200000Y-119475000D03*
X150200000Y-121125000D03*
D19*
X130950000Y-106899999D03*
X132200000Y-106899999D03*
D20*
X134750000Y-104000000D03*
X128400000Y-104000000D03*
D23*
X171900000Y-120180000D03*
X171900000Y-119220000D03*
D24*
X162220000Y-108200000D03*
X163180000Y-108200000D03*
D19*
X165800000Y-103800000D03*
X167050000Y-103800000D03*
X168300000Y-103800000D03*
X169550000Y-103800000D03*
X170800000Y-103800000D03*
D20*
X173350000Y-100900001D03*
X163250000Y-100900001D03*
D14*
X156100000Y-118275000D03*
X156100000Y-119925000D03*
D18*
X158600000Y-117825000D03*
X158600000Y-116175000D03*
D17*
X173125000Y-112700000D03*
X171475000Y-112700000D03*
D23*
X170200000Y-120180000D03*
X170200000Y-119220000D03*
D14*
X156100000Y-113275000D03*
X156100000Y-114925000D03*
D15*
X104800001Y-136370640D03*
X104800001Y-137620640D03*
D16*
X107700000Y-140170640D03*
X107700000Y-133820640D03*
D14*
X175600000Y-120075000D03*
X175600000Y-121725000D03*
D25*
X168300000Y-118700000D03*
X167650000Y-118700000D03*
X167000000Y-118700000D03*
X166350000Y-118700000D03*
X165700000Y-118700000D03*
X165050000Y-118700000D03*
X164400000Y-118700000D03*
X163750000Y-118700000D03*
X163100000Y-118700000D03*
X162450000Y-118700000D03*
X162450000Y-111700000D03*
X163100000Y-111700000D03*
X163750000Y-111700000D03*
X164400000Y-111700000D03*
X165050000Y-111700000D03*
X165700000Y-111700000D03*
X166350000Y-111700000D03*
X167000000Y-111700000D03*
X167650000Y-111700000D03*
X168300000Y-111700000D03*
D26*
X148020000Y-90000000D03*
D27*
X145480000Y-90000000D03*
X142940000Y-90000000D03*
X140400000Y-90000000D03*
X137860000Y-90000000D03*
X135320000Y-90000000D03*
%LPD*%
M02*
