G04 #@! TF.GenerationSoftware,KiCad,Pcbnew,8.0.9*
G04 #@! TF.CreationDate,2025-09-21T23:16:37+09:00*
G04 #@! TF.ProjectId,usb_sfc_pad,7573625f-7366-4635-9f70-61642e6b6963,rev?*
G04 #@! TF.SameCoordinates,Original*
G04 #@! TF.FileFunction,Soldermask,Bot*
G04 #@! TF.FilePolarity,Negative*
%FSLAX46Y46*%
G04 Gerber Fmt 4.6, Leading zero omitted, Abs format (unit mm)*
G04 Created by KiCad (PCBNEW 8.0.9) date 2025-09-21 23:16:37*
%MOMM*%
%LPD*%
G01*
G04 APERTURE LIST*
G04 Aperture macros list*
%AMRoundRect*
0 Rectangle with rounded corners*
0 $1 Rounding radius*
0 $2 $3 $4 $5 $6 $7 $8 $9 X,Y pos of 4 corners*
0 Add a 4 corners polygon primitive as box body*
4,1,4,$2,$3,$4,$5,$6,$7,$8,$9,$2,$3,0*
0 Add four circle primitives for the rounded corners*
1,1,$1+$1,$2,$3*
1,1,$1+$1,$4,$5*
1,1,$1+$1,$6,$7*
1,1,$1+$1,$8,$9*
0 Add four rect primitives between the rounded corners*
20,1,$1+$1,$2,$3,$4,$5,0*
20,1,$1+$1,$4,$5,$6,$7,0*
20,1,$1+$1,$6,$7,$8,$9,0*
20,1,$1+$1,$8,$9,$2,$3,0*%
%AMFreePoly0*
4,1,6,1.000000,0.000000,0.500000,-0.750000,-0.500000,-0.750000,-0.500000,0.750000,0.500000,0.750000,1.000000,0.000000,1.000000,0.000000,$1*%
%AMFreePoly1*
4,1,6,0.500000,-0.750000,-0.650000,-0.750000,-0.150000,0.000000,-0.650000,0.750000,0.500000,0.750000,0.500000,-0.750000,0.500000,-0.750000,$1*%
G04 Aperture macros list end*
%ADD10RoundRect,0.200000X-0.275000X0.200000X-0.275000X-0.200000X0.275000X-0.200000X0.275000X0.200000X0*%
%ADD11R,1.701800X0.812800*%
%ADD12R,3.098800X2.209800*%
%ADD13RoundRect,0.200000X0.200000X0.275000X-0.200000X0.275000X-0.200000X-0.275000X0.200000X-0.275000X0*%
%ADD14RoundRect,0.200000X0.275000X-0.200000X0.275000X0.200000X-0.275000X0.200000X-0.275000X-0.200000X0*%
%ADD15R,0.812800X1.701800*%
%ADD16R,2.209800X3.098800*%
%ADD17FreePoly0,270.000000*%
%ADD18FreePoly1,270.000000*%
%ADD19RoundRect,0.140000X0.170000X-0.140000X0.170000X0.140000X-0.170000X0.140000X-0.170000X-0.140000X0*%
%ADD20RoundRect,0.140000X-0.140000X-0.170000X0.140000X-0.170000X0.140000X0.170000X-0.140000X0.170000X0*%
%ADD21RoundRect,0.112500X0.112500X-0.837500X0.112500X0.837500X-0.112500X0.837500X-0.112500X-0.837500X0*%
%ADD22R,1.700000X1.700000*%
%ADD23O,1.700000X1.700000*%
G04 APERTURE END LIST*
D10*
X182000000Y-120075000D03*
X182000000Y-121725000D03*
D11*
X144099999Y-137595640D03*
X144099999Y-136345640D03*
D12*
X141200000Y-133795640D03*
X141200000Y-140145640D03*
D10*
X158600000Y-112175000D03*
X158600000Y-113825000D03*
D13*
X173125000Y-116200000D03*
X171475000Y-116200000D03*
D14*
X142900000Y-111625000D03*
X142900000Y-109975000D03*
D10*
X178800000Y-120075000D03*
X178800000Y-121725000D03*
D13*
X148025000Y-95000000D03*
X146375000Y-95000000D03*
D15*
X190475000Y-107004500D03*
X191725000Y-107004500D03*
D16*
X194275000Y-104104501D03*
X187925000Y-104104501D03*
D10*
X144300000Y-120475000D03*
X144300000Y-122125000D03*
D17*
X146800000Y-100075000D03*
D18*
X146800000Y-101525000D03*
D10*
X150200000Y-119475000D03*
X150200000Y-121125000D03*
D15*
X130950000Y-106899999D03*
X132200000Y-106899999D03*
D16*
X134750000Y-104000000D03*
X128400000Y-104000000D03*
D19*
X171900000Y-120180000D03*
X171900000Y-119220000D03*
D20*
X162220000Y-108200000D03*
X163180000Y-108200000D03*
D15*
X165800000Y-103800000D03*
X167050000Y-103800000D03*
X168300000Y-103800000D03*
X169550000Y-103800000D03*
X170800000Y-103800000D03*
D16*
X173350000Y-100900001D03*
X163250000Y-100900001D03*
D10*
X156100000Y-118275000D03*
X156100000Y-119925000D03*
D14*
X158600000Y-117825000D03*
X158600000Y-116175000D03*
D13*
X173125000Y-112700000D03*
X171475000Y-112700000D03*
D19*
X170200000Y-120180000D03*
X170200000Y-119220000D03*
D10*
X156100000Y-113275000D03*
X156100000Y-114925000D03*
D11*
X104800001Y-136370640D03*
X104800001Y-137620640D03*
D12*
X107700000Y-140170640D03*
X107700000Y-133820640D03*
D10*
X175600000Y-120075000D03*
X175600000Y-121725000D03*
D21*
X168300000Y-118700000D03*
X167650000Y-118700000D03*
X167000000Y-118700000D03*
X166350000Y-118700000D03*
X165700000Y-118700000D03*
X165050000Y-118700000D03*
X164400000Y-118700000D03*
X163750000Y-118700000D03*
X163100000Y-118700000D03*
X162450000Y-118700000D03*
X162450000Y-111700000D03*
X163100000Y-111700000D03*
X163750000Y-111700000D03*
X164400000Y-111700000D03*
X165050000Y-111700000D03*
X165700000Y-111700000D03*
X166350000Y-111700000D03*
X167000000Y-111700000D03*
X167650000Y-111700000D03*
X168300000Y-111700000D03*
D22*
X148020000Y-90000000D03*
D23*
X145480000Y-90000000D03*
X142940000Y-90000000D03*
X140400000Y-90000000D03*
X137860000Y-90000000D03*
X135320000Y-90000000D03*
M02*
