%TF.GenerationSoftware,KiCad,Pcbnew,8.0.9*%
%TF.CreationDate,2025-09-21T23:16:44+09:00*%
%TF.ProjectId,usb_sfc_pad,7573625f-7366-4635-9f70-61642e6b6963,rev?*%
%TF.SameCoordinates,Original*%
%TF.FileFunction,Drillmap*%
%TF.FilePolarity,Positive*%
%FSLAX45Y45*%
G04 Gerber Fmt 4.5, Leading zero omitted, Abs format (unit mm)*
G04 Created by KiCad (PCBNEW 8.0.9) date 2025-09-21 23:16:44*
%MOMM*%
%LPD*%
G01*
G04 APERTURE LIST*
%ADD10C,0.200000*%
%ADD11C,0.050000*%
%ADD12C,0.100000*%
G04 APERTURE END LIST*
D10*
X10156271Y-12747936D02*
X10260000Y-12747936D01*
X10153771Y-12950000D02*
X10260000Y-12950000D01*
X10260000Y-12747936D02*
G75*
G02*
X10260000Y-12950000I3160J-101032D01*
G01*
X10560000Y-12950000D02*
G75*
G02*
X10560000Y-12747936I0J101032D01*
G01*
X15166155Y-12552955D02*
G75*
G02*
X15666787Y-12558575I250275J-6465D01*
G01*
X13392241Y-8609462D02*
X12992122Y-8609462D01*
X12353771Y-12950000D02*
X12353771Y-13637500D01*
X21708663Y-11801257D02*
G75*
G02*
X21708662Y-11282103I-31583J259577D01*
G01*
X12553771Y-13937500D02*
X12553771Y-14150000D01*
X12956271Y-12747936D02*
X14856271Y-12747936D01*
X17907513Y-8870472D02*
G75*
G02*
X17816331Y-8961653I-91183J2D01*
G01*
X12553771Y-13637500D02*
G75*
G02*
X12353771Y-13637500I-100000J0D01*
G01*
X17816331Y-8961654D02*
X16674113Y-8961654D01*
X18978236Y-8269557D02*
X18338130Y-8269557D01*
X17907513Y-8700174D02*
G75*
G02*
X18338130Y-8269553I430617J4D01*
G01*
X13489798Y-8574752D02*
G75*
G02*
X13392241Y-8609461I-97558J119752D01*
G01*
X9142289Y-11813560D02*
X9142289Y-11944802D01*
X9421554Y-9052068D02*
X9231940Y-9114902D01*
X12992122Y-8609462D02*
G75*
G02*
X12859578Y-8476923I-2J132542D01*
G01*
X12859583Y-8476923D02*
X12859583Y-8398885D01*
X9142289Y-11297846D02*
G75*
G02*
X9142289Y-11813560I36020J-257857D01*
G01*
X21216225Y-9052481D02*
X21125553Y-9337870D01*
X9737625Y-9353309D02*
X9642500Y-9385000D01*
X14753771Y-14450000D02*
X14753771Y-12950000D01*
X11773121Y-8389529D02*
G75*
G02*
X11861629Y-8266892I88509J29379D01*
G01*
X18724928Y-8971095D02*
G75*
G02*
X18272108Y-8971095I-226410J0D01*
G01*
X18272108Y-8971095D02*
G75*
G02*
X18724928Y-8971095I226410J0D01*
G01*
X11773121Y-8389529D02*
X11859256Y-8648994D01*
X14753771Y-12950000D02*
X12553771Y-12950000D01*
X21708663Y-11940487D02*
X21708663Y-11801257D01*
X15666791Y-12558575D02*
X15666791Y-12747936D01*
X21393964Y-9707707D02*
G75*
G02*
X21167544Y-9707707I-113210J0D01*
G01*
X21167544Y-9707707D02*
G75*
G02*
X21393964Y-9707707I113210J0D01*
G01*
X12353771Y-12950000D02*
X10560000Y-12950000D01*
X12553771Y-12950000D02*
X12553771Y-13637500D01*
X14982698Y-11211638D02*
G75*
G02*
X14806068Y-11211638I-88315J0D01*
G01*
X14806068Y-11211638D02*
G75*
G02*
X14982698Y-11211638I88315J0D01*
G01*
X9421554Y-9052068D02*
G75*
G02*
X9554031Y-9118512I33016J-99462D01*
G01*
X9676283Y-9708732D02*
G75*
G02*
X9356283Y-9708732I-160000J0D01*
G01*
X9356283Y-9708732D02*
G75*
G02*
X9676283Y-9708732I160000J0D01*
G01*
X9142289Y-9239125D02*
G75*
G02*
X9231941Y-9114905I130891J-5D01*
G01*
X21216225Y-9052481D02*
G75*
G02*
X21305850Y-9005853I68215J-21669D01*
G01*
X10153771Y-12950000D02*
X10153771Y-14450000D01*
X16321176Y-8614729D02*
X15150646Y-8614729D01*
X12353771Y-13937500D02*
X12353771Y-14150000D01*
X12553771Y-14150000D02*
G75*
G02*
X12353771Y-14150000I-100000J0D01*
G01*
X12353771Y-14450000D02*
G75*
G02*
X12553771Y-14450000I100000J0D01*
G01*
X12551631Y-8964978D02*
G75*
G02*
X12051631Y-8964978I-250000J0D01*
G01*
X12051631Y-8964978D02*
G75*
G02*
X12551631Y-8964978I250000J0D01*
G01*
X15666791Y-12747936D02*
X20666039Y-12747936D01*
X9142289Y-11944802D02*
X10156271Y-12747936D01*
X21708663Y-11282092D02*
X21708663Y-9239664D01*
X15130040Y-8612264D02*
G75*
G02*
X15059998Y-8575002I21250J124404D01*
G01*
X10153771Y-14450000D02*
X12353771Y-14450000D01*
X18996614Y-8661480D02*
X19077864Y-8405745D01*
X12553771Y-14450000D02*
X14753771Y-14450000D01*
D11*
X15130040Y-8612264D02*
X15150646Y-8614729D01*
D10*
X17907513Y-8700174D02*
X17907513Y-8870472D01*
X16674113Y-8961654D02*
X16321176Y-8614729D01*
X9142289Y-9239125D02*
X9142289Y-11297846D01*
X14856271Y-12747936D02*
X15166155Y-12747936D01*
X15166155Y-12747936D02*
X15166155Y-12552955D01*
X21125553Y-9337870D02*
X18996614Y-8661480D01*
X15060000Y-8575000D02*
X13489798Y-8574752D01*
X11456271Y-12747936D02*
X12956271Y-12747936D01*
X12727589Y-8266890D02*
X11861629Y-8266890D01*
X21606014Y-9099921D02*
G75*
G02*
X21708661Y-9239664I-43794J-139739D01*
G01*
X9642500Y-9385000D02*
X9554034Y-9118511D01*
X10560000Y-12747936D02*
X11456271Y-12747936D01*
X18978237Y-8269557D02*
G75*
G02*
X19077865Y-8405745I3J-104533D01*
G01*
X21606014Y-9099921D02*
X21305851Y-9005851D01*
X12727589Y-8266890D02*
G75*
G02*
X12859580Y-8398885I1J-131990D01*
G01*
X12353771Y-13937500D02*
G75*
G02*
X12553771Y-13937500I100000J0D01*
G01*
X11859256Y-8648994D02*
X9737625Y-9353309D01*
X20666039Y-12747936D02*
X21708663Y-11940487D01*
D12*
X10215000Y-11325000D02*
X10245000Y-11355000D01*
X10245000Y-11325000D02*
X10215000Y-11355000D01*
X10765000Y-13092064D02*
X10795000Y-13122064D01*
X10795000Y-13092064D02*
X10765000Y-13122064D01*
X10775000Y-14292064D02*
X10805000Y-14322064D01*
X10805000Y-14292064D02*
X10775000Y-14322064D01*
X12675000Y-10945000D02*
X12705000Y-10975000D01*
X12705000Y-10945000D02*
X12675000Y-10975000D01*
X14075000Y-13072064D02*
X14105000Y-13102064D01*
X14105000Y-13072064D02*
X14075000Y-13102064D01*
X14095000Y-14292064D02*
X14125000Y-14322064D01*
X14125000Y-14292064D02*
X14095000Y-14322064D01*
X14279000Y-9251000D02*
X14309000Y-9281000D01*
X14309000Y-9251000D02*
X14279000Y-9281000D01*
X14545000Y-11435000D02*
X14575000Y-11465000D01*
X14575000Y-11435000D02*
X14545000Y-11465000D01*
X14615000Y-9315000D02*
X14645000Y-9345000D01*
X14645000Y-9315000D02*
X14615000Y-9345000D01*
X14665000Y-10585000D02*
X14695000Y-10615000D01*
X14695000Y-10585000D02*
X14665000Y-10615000D01*
X14765000Y-12097500D02*
X14795000Y-12127500D01*
X14795000Y-12097500D02*
X14765000Y-12127500D01*
X14785000Y-9745000D02*
X14815000Y-9775000D01*
X14815000Y-9745000D02*
X14785000Y-9775000D01*
X15255000Y-11346029D02*
X15285000Y-11376029D01*
X15285000Y-11346029D02*
X15255000Y-11376029D01*
X15357500Y-11977500D02*
X15387500Y-12007500D01*
X15387500Y-11977500D02*
X15357500Y-12007500D01*
X16005000Y-11765000D02*
X16035000Y-11795000D01*
X16035000Y-11765000D02*
X16005000Y-11795000D01*
X16210000Y-11340000D02*
X16240000Y-11370000D01*
X16240000Y-11340000D02*
X16210000Y-11370000D01*
X16620000Y-11600000D02*
X16650000Y-11630000D01*
X16650000Y-11600000D02*
X16620000Y-11630000D01*
X17062500Y-10677500D02*
X17092500Y-10707500D01*
X17092500Y-10677500D02*
X17062500Y-10707500D01*
X17125000Y-11475000D02*
X17155000Y-11505000D01*
X17155000Y-11475000D02*
X17125000Y-11505000D01*
X17295000Y-11992500D02*
X17325000Y-12022500D01*
X17325000Y-11992500D02*
X17295000Y-12022500D01*
X17297500Y-11385000D02*
X17327500Y-11415000D01*
X17327500Y-11385000D02*
X17297500Y-11415000D01*
X17692500Y-12157500D02*
X17722500Y-12187500D01*
X17722500Y-12157500D02*
X17692500Y-12187500D01*
X18012500Y-12157500D02*
X18042500Y-12187500D01*
X18042500Y-12157500D02*
X18012500Y-12187500D01*
X18322500Y-12157500D02*
X18352500Y-12187500D01*
X18352500Y-12157500D02*
X18322500Y-12187500D01*
X13582000Y-9000000D02*
G75*
G02*
X13482000Y-9000000I-50000J0D01*
G01*
X13482000Y-9000000D02*
G75*
G02*
X13582000Y-9000000I50000J0D01*
G01*
X13836000Y-9000000D02*
G75*
G02*
X13736000Y-9000000I-50000J0D01*
G01*
X13736000Y-9000000D02*
G75*
G02*
X13836000Y-9000000I50000J0D01*
G01*
X14090000Y-9000000D02*
G75*
G02*
X13990000Y-9000000I-50000J0D01*
G01*
X13990000Y-9000000D02*
G75*
G02*
X14090000Y-9000000I50000J0D01*
G01*
X14344000Y-9000000D02*
G75*
G02*
X14244000Y-9000000I-50000J0D01*
G01*
X14244000Y-9000000D02*
G75*
G02*
X14344000Y-9000000I50000J0D01*
G01*
X14598000Y-9000000D02*
G75*
G02*
X14498000Y-9000000I-50000J0D01*
G01*
X14498000Y-9000000D02*
G75*
G02*
X14598000Y-9000000I50000J0D01*
G01*
X14852000Y-9000000D02*
G75*
G02*
X14752000Y-9000000I-50000J0D01*
G01*
X14752000Y-9000000D02*
G75*
G02*
X14852000Y-9000000I50000J0D01*
G01*
D10*
X9393066Y-14771484D02*
X9393066Y-14571484D01*
X9393066Y-14571484D02*
X9440685Y-14571484D01*
X9440685Y-14571484D02*
X9469256Y-14581008D01*
X9469256Y-14581008D02*
X9488304Y-14600055D01*
X9488304Y-14600055D02*
X9497828Y-14619103D01*
X9497828Y-14619103D02*
X9507352Y-14657198D01*
X9507352Y-14657198D02*
X9507352Y-14685769D01*
X9507352Y-14685769D02*
X9497828Y-14723865D01*
X9497828Y-14723865D02*
X9488304Y-14742912D01*
X9488304Y-14742912D02*
X9469256Y-14761960D01*
X9469256Y-14761960D02*
X9440685Y-14771484D01*
X9440685Y-14771484D02*
X9393066Y-14771484D01*
X9593066Y-14771484D02*
X9593066Y-14638150D01*
X9593066Y-14676246D02*
X9602590Y-14657198D01*
X9602590Y-14657198D02*
X9612113Y-14647674D01*
X9612113Y-14647674D02*
X9631161Y-14638150D01*
X9631161Y-14638150D02*
X9650209Y-14638150D01*
X9716875Y-14771484D02*
X9716875Y-14638150D01*
X9716875Y-14571484D02*
X9707352Y-14581008D01*
X9707352Y-14581008D02*
X9716875Y-14590531D01*
X9716875Y-14590531D02*
X9726399Y-14581008D01*
X9726399Y-14581008D02*
X9716875Y-14571484D01*
X9716875Y-14571484D02*
X9716875Y-14590531D01*
X9840685Y-14771484D02*
X9821637Y-14761960D01*
X9821637Y-14761960D02*
X9812113Y-14742912D01*
X9812113Y-14742912D02*
X9812113Y-14571484D01*
X9945447Y-14771484D02*
X9926399Y-14761960D01*
X9926399Y-14761960D02*
X9916875Y-14742912D01*
X9916875Y-14742912D02*
X9916875Y-14571484D01*
X10174018Y-14771484D02*
X10174018Y-14571484D01*
X10174018Y-14571484D02*
X10240685Y-14714341D01*
X10240685Y-14714341D02*
X10307352Y-14571484D01*
X10307352Y-14571484D02*
X10307352Y-14771484D01*
X10488304Y-14771484D02*
X10488304Y-14666722D01*
X10488304Y-14666722D02*
X10478780Y-14647674D01*
X10478780Y-14647674D02*
X10459733Y-14638150D01*
X10459733Y-14638150D02*
X10421637Y-14638150D01*
X10421637Y-14638150D02*
X10402590Y-14647674D01*
X10488304Y-14761960D02*
X10469256Y-14771484D01*
X10469256Y-14771484D02*
X10421637Y-14771484D01*
X10421637Y-14771484D02*
X10402590Y-14761960D01*
X10402590Y-14761960D02*
X10393066Y-14742912D01*
X10393066Y-14742912D02*
X10393066Y-14723865D01*
X10393066Y-14723865D02*
X10402590Y-14704817D01*
X10402590Y-14704817D02*
X10421637Y-14695293D01*
X10421637Y-14695293D02*
X10469256Y-14695293D01*
X10469256Y-14695293D02*
X10488304Y-14685769D01*
X10583542Y-14638150D02*
X10583542Y-14838150D01*
X10583542Y-14647674D02*
X10602590Y-14638150D01*
X10602590Y-14638150D02*
X10640685Y-14638150D01*
X10640685Y-14638150D02*
X10659733Y-14647674D01*
X10659733Y-14647674D02*
X10669256Y-14657198D01*
X10669256Y-14657198D02*
X10678780Y-14676246D01*
X10678780Y-14676246D02*
X10678780Y-14733388D01*
X10678780Y-14733388D02*
X10669256Y-14752436D01*
X10669256Y-14752436D02*
X10659733Y-14761960D01*
X10659733Y-14761960D02*
X10640685Y-14771484D01*
X10640685Y-14771484D02*
X10602590Y-14771484D01*
X10602590Y-14771484D02*
X10583542Y-14761960D01*
X10764494Y-14752436D02*
X10774018Y-14761960D01*
X10774018Y-14761960D02*
X10764494Y-14771484D01*
X10764494Y-14771484D02*
X10754971Y-14761960D01*
X10754971Y-14761960D02*
X10764494Y-14752436D01*
X10764494Y-14752436D02*
X10764494Y-14771484D01*
X10764494Y-14647674D02*
X10774018Y-14657198D01*
X10774018Y-14657198D02*
X10764494Y-14666722D01*
X10764494Y-14666722D02*
X10754971Y-14657198D01*
X10754971Y-14657198D02*
X10764494Y-14647674D01*
X10764494Y-14647674D02*
X10764494Y-14666722D01*
D12*
X9102289Y-15085000D02*
X9132289Y-15115000D01*
X9132289Y-15085000D02*
X9102289Y-15115000D01*
D10*
X9431161Y-14991484D02*
X9450209Y-14991484D01*
X9450209Y-14991484D02*
X9469256Y-15001008D01*
X9469256Y-15001008D02*
X9478780Y-15010531D01*
X9478780Y-15010531D02*
X9488304Y-15029579D01*
X9488304Y-15029579D02*
X9497828Y-15067674D01*
X9497828Y-15067674D02*
X9497828Y-15115293D01*
X9497828Y-15115293D02*
X9488304Y-15153388D01*
X9488304Y-15153388D02*
X9478780Y-15172436D01*
X9478780Y-15172436D02*
X9469256Y-15181960D01*
X9469256Y-15181960D02*
X9450209Y-15191484D01*
X9450209Y-15191484D02*
X9431161Y-15191484D01*
X9431161Y-15191484D02*
X9412113Y-15181960D01*
X9412113Y-15181960D02*
X9402590Y-15172436D01*
X9402590Y-15172436D02*
X9393066Y-15153388D01*
X9393066Y-15153388D02*
X9383542Y-15115293D01*
X9383542Y-15115293D02*
X9383542Y-15067674D01*
X9383542Y-15067674D02*
X9393066Y-15029579D01*
X9393066Y-15029579D02*
X9402590Y-15010531D01*
X9402590Y-15010531D02*
X9412113Y-15001008D01*
X9412113Y-15001008D02*
X9431161Y-14991484D01*
X9583542Y-15172436D02*
X9593066Y-15181960D01*
X9593066Y-15181960D02*
X9583542Y-15191484D01*
X9583542Y-15191484D02*
X9574018Y-15181960D01*
X9574018Y-15181960D02*
X9583542Y-15172436D01*
X9583542Y-15172436D02*
X9583542Y-15191484D01*
X9659733Y-14991484D02*
X9783542Y-14991484D01*
X9783542Y-14991484D02*
X9716875Y-15067674D01*
X9716875Y-15067674D02*
X9745447Y-15067674D01*
X9745447Y-15067674D02*
X9764494Y-15077198D01*
X9764494Y-15077198D02*
X9774018Y-15086722D01*
X9774018Y-15086722D02*
X9783542Y-15105769D01*
X9783542Y-15105769D02*
X9783542Y-15153388D01*
X9783542Y-15153388D02*
X9774018Y-15172436D01*
X9774018Y-15172436D02*
X9764494Y-15181960D01*
X9764494Y-15181960D02*
X9745447Y-15191484D01*
X9745447Y-15191484D02*
X9688304Y-15191484D01*
X9688304Y-15191484D02*
X9669256Y-15181960D01*
X9669256Y-15181960D02*
X9659733Y-15172436D01*
X9907352Y-14991484D02*
X9926399Y-14991484D01*
X9926399Y-14991484D02*
X9945447Y-15001008D01*
X9945447Y-15001008D02*
X9954971Y-15010531D01*
X9954971Y-15010531D02*
X9964494Y-15029579D01*
X9964494Y-15029579D02*
X9974018Y-15067674D01*
X9974018Y-15067674D02*
X9974018Y-15115293D01*
X9974018Y-15115293D02*
X9964494Y-15153388D01*
X9964494Y-15153388D02*
X9954971Y-15172436D01*
X9954971Y-15172436D02*
X9945447Y-15181960D01*
X9945447Y-15181960D02*
X9926399Y-15191484D01*
X9926399Y-15191484D02*
X9907352Y-15191484D01*
X9907352Y-15191484D02*
X9888304Y-15181960D01*
X9888304Y-15181960D02*
X9878780Y-15172436D01*
X9878780Y-15172436D02*
X9869256Y-15153388D01*
X9869256Y-15153388D02*
X9859733Y-15115293D01*
X9859733Y-15115293D02*
X9859733Y-15067674D01*
X9859733Y-15067674D02*
X9869256Y-15029579D01*
X9869256Y-15029579D02*
X9878780Y-15010531D01*
X9878780Y-15010531D02*
X9888304Y-15001008D01*
X9888304Y-15001008D02*
X9907352Y-14991484D01*
X10097828Y-14991484D02*
X10116875Y-14991484D01*
X10116875Y-14991484D02*
X10135923Y-15001008D01*
X10135923Y-15001008D02*
X10145447Y-15010531D01*
X10145447Y-15010531D02*
X10154971Y-15029579D01*
X10154971Y-15029579D02*
X10164494Y-15067674D01*
X10164494Y-15067674D02*
X10164494Y-15115293D01*
X10164494Y-15115293D02*
X10154971Y-15153388D01*
X10154971Y-15153388D02*
X10145447Y-15172436D01*
X10145447Y-15172436D02*
X10135923Y-15181960D01*
X10135923Y-15181960D02*
X10116875Y-15191484D01*
X10116875Y-15191484D02*
X10097828Y-15191484D01*
X10097828Y-15191484D02*
X10078780Y-15181960D01*
X10078780Y-15181960D02*
X10069256Y-15172436D01*
X10069256Y-15172436D02*
X10059733Y-15153388D01*
X10059733Y-15153388D02*
X10050209Y-15115293D01*
X10050209Y-15115293D02*
X10050209Y-15067674D01*
X10050209Y-15067674D02*
X10059733Y-15029579D01*
X10059733Y-15029579D02*
X10069256Y-15010531D01*
X10069256Y-15010531D02*
X10078780Y-15001008D01*
X10078780Y-15001008D02*
X10097828Y-14991484D01*
X10250209Y-15191484D02*
X10250209Y-15058150D01*
X10250209Y-15077198D02*
X10259733Y-15067674D01*
X10259733Y-15067674D02*
X10278780Y-15058150D01*
X10278780Y-15058150D02*
X10307352Y-15058150D01*
X10307352Y-15058150D02*
X10326399Y-15067674D01*
X10326399Y-15067674D02*
X10335923Y-15086722D01*
X10335923Y-15086722D02*
X10335923Y-15191484D01*
X10335923Y-15086722D02*
X10345447Y-15067674D01*
X10345447Y-15067674D02*
X10364494Y-15058150D01*
X10364494Y-15058150D02*
X10393066Y-15058150D01*
X10393066Y-15058150D02*
X10412114Y-15067674D01*
X10412114Y-15067674D02*
X10421637Y-15086722D01*
X10421637Y-15086722D02*
X10421637Y-15191484D01*
X10516875Y-15191484D02*
X10516875Y-15058150D01*
X10516875Y-15077198D02*
X10526399Y-15067674D01*
X10526399Y-15067674D02*
X10545447Y-15058150D01*
X10545447Y-15058150D02*
X10574018Y-15058150D01*
X10574018Y-15058150D02*
X10593066Y-15067674D01*
X10593066Y-15067674D02*
X10602590Y-15086722D01*
X10602590Y-15086722D02*
X10602590Y-15191484D01*
X10602590Y-15086722D02*
X10612114Y-15067674D01*
X10612114Y-15067674D02*
X10631161Y-15058150D01*
X10631161Y-15058150D02*
X10659733Y-15058150D01*
X10659733Y-15058150D02*
X10678780Y-15067674D01*
X10678780Y-15067674D02*
X10688304Y-15086722D01*
X10688304Y-15086722D02*
X10688304Y-15191484D01*
X11078780Y-14981960D02*
X10907352Y-15239103D01*
X11335923Y-14991484D02*
X11354971Y-14991484D01*
X11354971Y-14991484D02*
X11374018Y-15001008D01*
X11374018Y-15001008D02*
X11383542Y-15010531D01*
X11383542Y-15010531D02*
X11393066Y-15029579D01*
X11393066Y-15029579D02*
X11402590Y-15067674D01*
X11402590Y-15067674D02*
X11402590Y-15115293D01*
X11402590Y-15115293D02*
X11393066Y-15153388D01*
X11393066Y-15153388D02*
X11383542Y-15172436D01*
X11383542Y-15172436D02*
X11374018Y-15181960D01*
X11374018Y-15181960D02*
X11354971Y-15191484D01*
X11354971Y-15191484D02*
X11335923Y-15191484D01*
X11335923Y-15191484D02*
X11316875Y-15181960D01*
X11316875Y-15181960D02*
X11307352Y-15172436D01*
X11307352Y-15172436D02*
X11297828Y-15153388D01*
X11297828Y-15153388D02*
X11288304Y-15115293D01*
X11288304Y-15115293D02*
X11288304Y-15067674D01*
X11288304Y-15067674D02*
X11297828Y-15029579D01*
X11297828Y-15029579D02*
X11307352Y-15010531D01*
X11307352Y-15010531D02*
X11316875Y-15001008D01*
X11316875Y-15001008D02*
X11335923Y-14991484D01*
X11488304Y-15172436D02*
X11497828Y-15181960D01*
X11497828Y-15181960D02*
X11488304Y-15191484D01*
X11488304Y-15191484D02*
X11478780Y-15181960D01*
X11478780Y-15181960D02*
X11488304Y-15172436D01*
X11488304Y-15172436D02*
X11488304Y-15191484D01*
X11621637Y-14991484D02*
X11640685Y-14991484D01*
X11640685Y-14991484D02*
X11659733Y-15001008D01*
X11659733Y-15001008D02*
X11669256Y-15010531D01*
X11669256Y-15010531D02*
X11678780Y-15029579D01*
X11678780Y-15029579D02*
X11688304Y-15067674D01*
X11688304Y-15067674D02*
X11688304Y-15115293D01*
X11688304Y-15115293D02*
X11678780Y-15153388D01*
X11678780Y-15153388D02*
X11669256Y-15172436D01*
X11669256Y-15172436D02*
X11659733Y-15181960D01*
X11659733Y-15181960D02*
X11640685Y-15191484D01*
X11640685Y-15191484D02*
X11621637Y-15191484D01*
X11621637Y-15191484D02*
X11602590Y-15181960D01*
X11602590Y-15181960D02*
X11593066Y-15172436D01*
X11593066Y-15172436D02*
X11583542Y-15153388D01*
X11583542Y-15153388D02*
X11574018Y-15115293D01*
X11574018Y-15115293D02*
X11574018Y-15067674D01*
X11574018Y-15067674D02*
X11583542Y-15029579D01*
X11583542Y-15029579D02*
X11593066Y-15010531D01*
X11593066Y-15010531D02*
X11602590Y-15001008D01*
X11602590Y-15001008D02*
X11621637Y-14991484D01*
X11878780Y-15191484D02*
X11764495Y-15191484D01*
X11821637Y-15191484D02*
X11821637Y-14991484D01*
X11821637Y-14991484D02*
X11802590Y-15020055D01*
X11802590Y-15020055D02*
X11783542Y-15039103D01*
X11783542Y-15039103D02*
X11764495Y-15048627D01*
X12069256Y-15191484D02*
X11954971Y-15191484D01*
X12012114Y-15191484D02*
X12012114Y-14991484D01*
X12012114Y-14991484D02*
X11993066Y-15020055D01*
X11993066Y-15020055D02*
X11974018Y-15039103D01*
X11974018Y-15039103D02*
X11954971Y-15048627D01*
X12183542Y-15077198D02*
X12164495Y-15067674D01*
X12164495Y-15067674D02*
X12154971Y-15058150D01*
X12154971Y-15058150D02*
X12145447Y-15039103D01*
X12145447Y-15039103D02*
X12145447Y-15029579D01*
X12145447Y-15029579D02*
X12154971Y-15010531D01*
X12154971Y-15010531D02*
X12164495Y-15001008D01*
X12164495Y-15001008D02*
X12183542Y-14991484D01*
X12183542Y-14991484D02*
X12221637Y-14991484D01*
X12221637Y-14991484D02*
X12240685Y-15001008D01*
X12240685Y-15001008D02*
X12250209Y-15010531D01*
X12250209Y-15010531D02*
X12259733Y-15029579D01*
X12259733Y-15029579D02*
X12259733Y-15039103D01*
X12259733Y-15039103D02*
X12250209Y-15058150D01*
X12250209Y-15058150D02*
X12240685Y-15067674D01*
X12240685Y-15067674D02*
X12221637Y-15077198D01*
X12221637Y-15077198D02*
X12183542Y-15077198D01*
X12183542Y-15077198D02*
X12164495Y-15086722D01*
X12164495Y-15086722D02*
X12154971Y-15096246D01*
X12154971Y-15096246D02*
X12145447Y-15115293D01*
X12145447Y-15115293D02*
X12145447Y-15153388D01*
X12145447Y-15153388D02*
X12154971Y-15172436D01*
X12154971Y-15172436D02*
X12164495Y-15181960D01*
X12164495Y-15181960D02*
X12183542Y-15191484D01*
X12183542Y-15191484D02*
X12221637Y-15191484D01*
X12221637Y-15191484D02*
X12240685Y-15181960D01*
X12240685Y-15181960D02*
X12250209Y-15172436D01*
X12250209Y-15172436D02*
X12259733Y-15153388D01*
X12259733Y-15153388D02*
X12259733Y-15115293D01*
X12259733Y-15115293D02*
X12250209Y-15096246D01*
X12250209Y-15096246D02*
X12240685Y-15086722D01*
X12240685Y-15086722D02*
X12221637Y-15077198D01*
X12335923Y-14991484D02*
X12335923Y-15029579D01*
X12412114Y-14991484D02*
X12412114Y-15029579D01*
X12707352Y-15267674D02*
X12697828Y-15258150D01*
X12697828Y-15258150D02*
X12678780Y-15229579D01*
X12678780Y-15229579D02*
X12669257Y-15210531D01*
X12669257Y-15210531D02*
X12659733Y-15181960D01*
X12659733Y-15181960D02*
X12650209Y-15134341D01*
X12650209Y-15134341D02*
X12650209Y-15096246D01*
X12650209Y-15096246D02*
X12659733Y-15048627D01*
X12659733Y-15048627D02*
X12669257Y-15020055D01*
X12669257Y-15020055D02*
X12678780Y-15001008D01*
X12678780Y-15001008D02*
X12697828Y-14972436D01*
X12697828Y-14972436D02*
X12707352Y-14962912D01*
X12774018Y-15010531D02*
X12783542Y-15001008D01*
X12783542Y-15001008D02*
X12802590Y-14991484D01*
X12802590Y-14991484D02*
X12850209Y-14991484D01*
X12850209Y-14991484D02*
X12869257Y-15001008D01*
X12869257Y-15001008D02*
X12878780Y-15010531D01*
X12878780Y-15010531D02*
X12888304Y-15029579D01*
X12888304Y-15029579D02*
X12888304Y-15048627D01*
X12888304Y-15048627D02*
X12878780Y-15077198D01*
X12878780Y-15077198D02*
X12764495Y-15191484D01*
X12764495Y-15191484D02*
X12888304Y-15191484D01*
X13059733Y-15058150D02*
X13059733Y-15191484D01*
X13012114Y-14981960D02*
X12964495Y-15124817D01*
X12964495Y-15124817D02*
X13088304Y-15124817D01*
X13316876Y-15191484D02*
X13316876Y-14991484D01*
X13402590Y-15191484D02*
X13402590Y-15086722D01*
X13402590Y-15086722D02*
X13393066Y-15067674D01*
X13393066Y-15067674D02*
X13374019Y-15058150D01*
X13374019Y-15058150D02*
X13345447Y-15058150D01*
X13345447Y-15058150D02*
X13326399Y-15067674D01*
X13326399Y-15067674D02*
X13316876Y-15077198D01*
X13526399Y-15191484D02*
X13507352Y-15181960D01*
X13507352Y-15181960D02*
X13497828Y-15172436D01*
X13497828Y-15172436D02*
X13488304Y-15153388D01*
X13488304Y-15153388D02*
X13488304Y-15096246D01*
X13488304Y-15096246D02*
X13497828Y-15077198D01*
X13497828Y-15077198D02*
X13507352Y-15067674D01*
X13507352Y-15067674D02*
X13526399Y-15058150D01*
X13526399Y-15058150D02*
X13554971Y-15058150D01*
X13554971Y-15058150D02*
X13574019Y-15067674D01*
X13574019Y-15067674D02*
X13583542Y-15077198D01*
X13583542Y-15077198D02*
X13593066Y-15096246D01*
X13593066Y-15096246D02*
X13593066Y-15153388D01*
X13593066Y-15153388D02*
X13583542Y-15172436D01*
X13583542Y-15172436D02*
X13574019Y-15181960D01*
X13574019Y-15181960D02*
X13554971Y-15191484D01*
X13554971Y-15191484D02*
X13526399Y-15191484D01*
X13707352Y-15191484D02*
X13688304Y-15181960D01*
X13688304Y-15181960D02*
X13678780Y-15162912D01*
X13678780Y-15162912D02*
X13678780Y-14991484D01*
X13859733Y-15181960D02*
X13840685Y-15191484D01*
X13840685Y-15191484D02*
X13802590Y-15191484D01*
X13802590Y-15191484D02*
X13783542Y-15181960D01*
X13783542Y-15181960D02*
X13774019Y-15162912D01*
X13774019Y-15162912D02*
X13774019Y-15086722D01*
X13774019Y-15086722D02*
X13783542Y-15067674D01*
X13783542Y-15067674D02*
X13802590Y-15058150D01*
X13802590Y-15058150D02*
X13840685Y-15058150D01*
X13840685Y-15058150D02*
X13859733Y-15067674D01*
X13859733Y-15067674D02*
X13869257Y-15086722D01*
X13869257Y-15086722D02*
X13869257Y-15105769D01*
X13869257Y-15105769D02*
X13774019Y-15124817D01*
X13945447Y-15181960D02*
X13964495Y-15191484D01*
X13964495Y-15191484D02*
X14002590Y-15191484D01*
X14002590Y-15191484D02*
X14021638Y-15181960D01*
X14021638Y-15181960D02*
X14031161Y-15162912D01*
X14031161Y-15162912D02*
X14031161Y-15153388D01*
X14031161Y-15153388D02*
X14021638Y-15134341D01*
X14021638Y-15134341D02*
X14002590Y-15124817D01*
X14002590Y-15124817D02*
X13974019Y-15124817D01*
X13974019Y-15124817D02*
X13954971Y-15115293D01*
X13954971Y-15115293D02*
X13945447Y-15096246D01*
X13945447Y-15096246D02*
X13945447Y-15086722D01*
X13945447Y-15086722D02*
X13954971Y-15067674D01*
X13954971Y-15067674D02*
X13974019Y-15058150D01*
X13974019Y-15058150D02*
X14002590Y-15058150D01*
X14002590Y-15058150D02*
X14021638Y-15067674D01*
X14097828Y-15267674D02*
X14107352Y-15258150D01*
X14107352Y-15258150D02*
X14126400Y-15229579D01*
X14126400Y-15229579D02*
X14135923Y-15210531D01*
X14135923Y-15210531D02*
X14145447Y-15181960D01*
X14145447Y-15181960D02*
X14154971Y-15134341D01*
X14154971Y-15134341D02*
X14154971Y-15096246D01*
X14154971Y-15096246D02*
X14145447Y-15048627D01*
X14145447Y-15048627D02*
X14135923Y-15020055D01*
X14135923Y-15020055D02*
X14126400Y-15001008D01*
X14126400Y-15001008D02*
X14107352Y-14972436D01*
X14107352Y-14972436D02*
X14097828Y-14962912D01*
D12*
X9132289Y-15364000D02*
G75*
G02*
X9032289Y-15364000I-50000J0D01*
G01*
X9032289Y-15364000D02*
G75*
G02*
X9132289Y-15364000I50000J0D01*
G01*
D10*
X9497828Y-15455484D02*
X9383542Y-15455484D01*
X9440685Y-15455484D02*
X9440685Y-15255484D01*
X9440685Y-15255484D02*
X9421637Y-15284055D01*
X9421637Y-15284055D02*
X9402590Y-15303103D01*
X9402590Y-15303103D02*
X9383542Y-15312627D01*
X9583542Y-15436436D02*
X9593066Y-15445960D01*
X9593066Y-15445960D02*
X9583542Y-15455484D01*
X9583542Y-15455484D02*
X9574018Y-15445960D01*
X9574018Y-15445960D02*
X9583542Y-15436436D01*
X9583542Y-15436436D02*
X9583542Y-15455484D01*
X9716875Y-15255484D02*
X9735923Y-15255484D01*
X9735923Y-15255484D02*
X9754971Y-15265008D01*
X9754971Y-15265008D02*
X9764494Y-15274531D01*
X9764494Y-15274531D02*
X9774018Y-15293579D01*
X9774018Y-15293579D02*
X9783542Y-15331674D01*
X9783542Y-15331674D02*
X9783542Y-15379293D01*
X9783542Y-15379293D02*
X9774018Y-15417388D01*
X9774018Y-15417388D02*
X9764494Y-15436436D01*
X9764494Y-15436436D02*
X9754971Y-15445960D01*
X9754971Y-15445960D02*
X9735923Y-15455484D01*
X9735923Y-15455484D02*
X9716875Y-15455484D01*
X9716875Y-15455484D02*
X9697828Y-15445960D01*
X9697828Y-15445960D02*
X9688304Y-15436436D01*
X9688304Y-15436436D02*
X9678780Y-15417388D01*
X9678780Y-15417388D02*
X9669256Y-15379293D01*
X9669256Y-15379293D02*
X9669256Y-15331674D01*
X9669256Y-15331674D02*
X9678780Y-15293579D01*
X9678780Y-15293579D02*
X9688304Y-15274531D01*
X9688304Y-15274531D02*
X9697828Y-15265008D01*
X9697828Y-15265008D02*
X9716875Y-15255484D01*
X9907352Y-15255484D02*
X9926399Y-15255484D01*
X9926399Y-15255484D02*
X9945447Y-15265008D01*
X9945447Y-15265008D02*
X9954971Y-15274531D01*
X9954971Y-15274531D02*
X9964494Y-15293579D01*
X9964494Y-15293579D02*
X9974018Y-15331674D01*
X9974018Y-15331674D02*
X9974018Y-15379293D01*
X9974018Y-15379293D02*
X9964494Y-15417388D01*
X9964494Y-15417388D02*
X9954971Y-15436436D01*
X9954971Y-15436436D02*
X9945447Y-15445960D01*
X9945447Y-15445960D02*
X9926399Y-15455484D01*
X9926399Y-15455484D02*
X9907352Y-15455484D01*
X9907352Y-15455484D02*
X9888304Y-15445960D01*
X9888304Y-15445960D02*
X9878780Y-15436436D01*
X9878780Y-15436436D02*
X9869256Y-15417388D01*
X9869256Y-15417388D02*
X9859733Y-15379293D01*
X9859733Y-15379293D02*
X9859733Y-15331674D01*
X9859733Y-15331674D02*
X9869256Y-15293579D01*
X9869256Y-15293579D02*
X9878780Y-15274531D01*
X9878780Y-15274531D02*
X9888304Y-15265008D01*
X9888304Y-15265008D02*
X9907352Y-15255484D01*
X10097828Y-15255484D02*
X10116875Y-15255484D01*
X10116875Y-15255484D02*
X10135923Y-15265008D01*
X10135923Y-15265008D02*
X10145447Y-15274531D01*
X10145447Y-15274531D02*
X10154971Y-15293579D01*
X10154971Y-15293579D02*
X10164494Y-15331674D01*
X10164494Y-15331674D02*
X10164494Y-15379293D01*
X10164494Y-15379293D02*
X10154971Y-15417388D01*
X10154971Y-15417388D02*
X10145447Y-15436436D01*
X10145447Y-15436436D02*
X10135923Y-15445960D01*
X10135923Y-15445960D02*
X10116875Y-15455484D01*
X10116875Y-15455484D02*
X10097828Y-15455484D01*
X10097828Y-15455484D02*
X10078780Y-15445960D01*
X10078780Y-15445960D02*
X10069256Y-15436436D01*
X10069256Y-15436436D02*
X10059733Y-15417388D01*
X10059733Y-15417388D02*
X10050209Y-15379293D01*
X10050209Y-15379293D02*
X10050209Y-15331674D01*
X10050209Y-15331674D02*
X10059733Y-15293579D01*
X10059733Y-15293579D02*
X10069256Y-15274531D01*
X10069256Y-15274531D02*
X10078780Y-15265008D01*
X10078780Y-15265008D02*
X10097828Y-15255484D01*
X10250209Y-15455484D02*
X10250209Y-15322150D01*
X10250209Y-15341198D02*
X10259733Y-15331674D01*
X10259733Y-15331674D02*
X10278780Y-15322150D01*
X10278780Y-15322150D02*
X10307352Y-15322150D01*
X10307352Y-15322150D02*
X10326399Y-15331674D01*
X10326399Y-15331674D02*
X10335923Y-15350722D01*
X10335923Y-15350722D02*
X10335923Y-15455484D01*
X10335923Y-15350722D02*
X10345447Y-15331674D01*
X10345447Y-15331674D02*
X10364494Y-15322150D01*
X10364494Y-15322150D02*
X10393066Y-15322150D01*
X10393066Y-15322150D02*
X10412114Y-15331674D01*
X10412114Y-15331674D02*
X10421637Y-15350722D01*
X10421637Y-15350722D02*
X10421637Y-15455484D01*
X10516875Y-15455484D02*
X10516875Y-15322150D01*
X10516875Y-15341198D02*
X10526399Y-15331674D01*
X10526399Y-15331674D02*
X10545447Y-15322150D01*
X10545447Y-15322150D02*
X10574018Y-15322150D01*
X10574018Y-15322150D02*
X10593066Y-15331674D01*
X10593066Y-15331674D02*
X10602590Y-15350722D01*
X10602590Y-15350722D02*
X10602590Y-15455484D01*
X10602590Y-15350722D02*
X10612114Y-15331674D01*
X10612114Y-15331674D02*
X10631161Y-15322150D01*
X10631161Y-15322150D02*
X10659733Y-15322150D01*
X10659733Y-15322150D02*
X10678780Y-15331674D01*
X10678780Y-15331674D02*
X10688304Y-15350722D01*
X10688304Y-15350722D02*
X10688304Y-15455484D01*
X11078780Y-15245960D02*
X10907352Y-15503103D01*
X11335923Y-15255484D02*
X11354971Y-15255484D01*
X11354971Y-15255484D02*
X11374018Y-15265008D01*
X11374018Y-15265008D02*
X11383542Y-15274531D01*
X11383542Y-15274531D02*
X11393066Y-15293579D01*
X11393066Y-15293579D02*
X11402590Y-15331674D01*
X11402590Y-15331674D02*
X11402590Y-15379293D01*
X11402590Y-15379293D02*
X11393066Y-15417388D01*
X11393066Y-15417388D02*
X11383542Y-15436436D01*
X11383542Y-15436436D02*
X11374018Y-15445960D01*
X11374018Y-15445960D02*
X11354971Y-15455484D01*
X11354971Y-15455484D02*
X11335923Y-15455484D01*
X11335923Y-15455484D02*
X11316875Y-15445960D01*
X11316875Y-15445960D02*
X11307352Y-15436436D01*
X11307352Y-15436436D02*
X11297828Y-15417388D01*
X11297828Y-15417388D02*
X11288304Y-15379293D01*
X11288304Y-15379293D02*
X11288304Y-15331674D01*
X11288304Y-15331674D02*
X11297828Y-15293579D01*
X11297828Y-15293579D02*
X11307352Y-15274531D01*
X11307352Y-15274531D02*
X11316875Y-15265008D01*
X11316875Y-15265008D02*
X11335923Y-15255484D01*
X11488304Y-15436436D02*
X11497828Y-15445960D01*
X11497828Y-15445960D02*
X11488304Y-15455484D01*
X11488304Y-15455484D02*
X11478780Y-15445960D01*
X11478780Y-15445960D02*
X11488304Y-15436436D01*
X11488304Y-15436436D02*
X11488304Y-15455484D01*
X11621637Y-15255484D02*
X11640685Y-15255484D01*
X11640685Y-15255484D02*
X11659733Y-15265008D01*
X11659733Y-15265008D02*
X11669256Y-15274531D01*
X11669256Y-15274531D02*
X11678780Y-15293579D01*
X11678780Y-15293579D02*
X11688304Y-15331674D01*
X11688304Y-15331674D02*
X11688304Y-15379293D01*
X11688304Y-15379293D02*
X11678780Y-15417388D01*
X11678780Y-15417388D02*
X11669256Y-15436436D01*
X11669256Y-15436436D02*
X11659733Y-15445960D01*
X11659733Y-15445960D02*
X11640685Y-15455484D01*
X11640685Y-15455484D02*
X11621637Y-15455484D01*
X11621637Y-15455484D02*
X11602590Y-15445960D01*
X11602590Y-15445960D02*
X11593066Y-15436436D01*
X11593066Y-15436436D02*
X11583542Y-15417388D01*
X11583542Y-15417388D02*
X11574018Y-15379293D01*
X11574018Y-15379293D02*
X11574018Y-15331674D01*
X11574018Y-15331674D02*
X11583542Y-15293579D01*
X11583542Y-15293579D02*
X11593066Y-15274531D01*
X11593066Y-15274531D02*
X11602590Y-15265008D01*
X11602590Y-15265008D02*
X11621637Y-15255484D01*
X11754971Y-15255484D02*
X11878780Y-15255484D01*
X11878780Y-15255484D02*
X11812114Y-15331674D01*
X11812114Y-15331674D02*
X11840685Y-15331674D01*
X11840685Y-15331674D02*
X11859733Y-15341198D01*
X11859733Y-15341198D02*
X11869256Y-15350722D01*
X11869256Y-15350722D02*
X11878780Y-15369769D01*
X11878780Y-15369769D02*
X11878780Y-15417388D01*
X11878780Y-15417388D02*
X11869256Y-15436436D01*
X11869256Y-15436436D02*
X11859733Y-15445960D01*
X11859733Y-15445960D02*
X11840685Y-15455484D01*
X11840685Y-15455484D02*
X11783542Y-15455484D01*
X11783542Y-15455484D02*
X11764495Y-15445960D01*
X11764495Y-15445960D02*
X11754971Y-15436436D01*
X11974018Y-15455484D02*
X12012114Y-15455484D01*
X12012114Y-15455484D02*
X12031161Y-15445960D01*
X12031161Y-15445960D02*
X12040685Y-15436436D01*
X12040685Y-15436436D02*
X12059733Y-15407865D01*
X12059733Y-15407865D02*
X12069256Y-15369769D01*
X12069256Y-15369769D02*
X12069256Y-15293579D01*
X12069256Y-15293579D02*
X12059733Y-15274531D01*
X12059733Y-15274531D02*
X12050209Y-15265008D01*
X12050209Y-15265008D02*
X12031161Y-15255484D01*
X12031161Y-15255484D02*
X11993066Y-15255484D01*
X11993066Y-15255484D02*
X11974018Y-15265008D01*
X11974018Y-15265008D02*
X11964495Y-15274531D01*
X11964495Y-15274531D02*
X11954971Y-15293579D01*
X11954971Y-15293579D02*
X11954971Y-15341198D01*
X11954971Y-15341198D02*
X11964495Y-15360246D01*
X11964495Y-15360246D02*
X11974018Y-15369769D01*
X11974018Y-15369769D02*
X11993066Y-15379293D01*
X11993066Y-15379293D02*
X12031161Y-15379293D01*
X12031161Y-15379293D02*
X12050209Y-15369769D01*
X12050209Y-15369769D02*
X12059733Y-15360246D01*
X12059733Y-15360246D02*
X12069256Y-15341198D01*
X12240685Y-15322150D02*
X12240685Y-15455484D01*
X12193066Y-15245960D02*
X12145447Y-15388817D01*
X12145447Y-15388817D02*
X12269256Y-15388817D01*
X12335923Y-15255484D02*
X12335923Y-15293579D01*
X12412114Y-15255484D02*
X12412114Y-15293579D01*
X12707352Y-15531674D02*
X12697828Y-15522150D01*
X12697828Y-15522150D02*
X12678780Y-15493579D01*
X12678780Y-15493579D02*
X12669257Y-15474531D01*
X12669257Y-15474531D02*
X12659733Y-15445960D01*
X12659733Y-15445960D02*
X12650209Y-15398341D01*
X12650209Y-15398341D02*
X12650209Y-15360246D01*
X12650209Y-15360246D02*
X12659733Y-15312627D01*
X12659733Y-15312627D02*
X12669257Y-15284055D01*
X12669257Y-15284055D02*
X12678780Y-15265008D01*
X12678780Y-15265008D02*
X12697828Y-15236436D01*
X12697828Y-15236436D02*
X12707352Y-15226912D01*
X12869257Y-15255484D02*
X12831161Y-15255484D01*
X12831161Y-15255484D02*
X12812114Y-15265008D01*
X12812114Y-15265008D02*
X12802590Y-15274531D01*
X12802590Y-15274531D02*
X12783542Y-15303103D01*
X12783542Y-15303103D02*
X12774018Y-15341198D01*
X12774018Y-15341198D02*
X12774018Y-15417388D01*
X12774018Y-15417388D02*
X12783542Y-15436436D01*
X12783542Y-15436436D02*
X12793066Y-15445960D01*
X12793066Y-15445960D02*
X12812114Y-15455484D01*
X12812114Y-15455484D02*
X12850209Y-15455484D01*
X12850209Y-15455484D02*
X12869257Y-15445960D01*
X12869257Y-15445960D02*
X12878780Y-15436436D01*
X12878780Y-15436436D02*
X12888304Y-15417388D01*
X12888304Y-15417388D02*
X12888304Y-15369769D01*
X12888304Y-15369769D02*
X12878780Y-15350722D01*
X12878780Y-15350722D02*
X12869257Y-15341198D01*
X12869257Y-15341198D02*
X12850209Y-15331674D01*
X12850209Y-15331674D02*
X12812114Y-15331674D01*
X12812114Y-15331674D02*
X12793066Y-15341198D01*
X12793066Y-15341198D02*
X12783542Y-15350722D01*
X12783542Y-15350722D02*
X12774018Y-15369769D01*
X13126399Y-15455484D02*
X13126399Y-15255484D01*
X13212114Y-15455484D02*
X13212114Y-15350722D01*
X13212114Y-15350722D02*
X13202590Y-15331674D01*
X13202590Y-15331674D02*
X13183542Y-15322150D01*
X13183542Y-15322150D02*
X13154971Y-15322150D01*
X13154971Y-15322150D02*
X13135923Y-15331674D01*
X13135923Y-15331674D02*
X13126399Y-15341198D01*
X13335923Y-15455484D02*
X13316876Y-15445960D01*
X13316876Y-15445960D02*
X13307352Y-15436436D01*
X13307352Y-15436436D02*
X13297828Y-15417388D01*
X13297828Y-15417388D02*
X13297828Y-15360246D01*
X13297828Y-15360246D02*
X13307352Y-15341198D01*
X13307352Y-15341198D02*
X13316876Y-15331674D01*
X13316876Y-15331674D02*
X13335923Y-15322150D01*
X13335923Y-15322150D02*
X13364495Y-15322150D01*
X13364495Y-15322150D02*
X13383542Y-15331674D01*
X13383542Y-15331674D02*
X13393066Y-15341198D01*
X13393066Y-15341198D02*
X13402590Y-15360246D01*
X13402590Y-15360246D02*
X13402590Y-15417388D01*
X13402590Y-15417388D02*
X13393066Y-15436436D01*
X13393066Y-15436436D02*
X13383542Y-15445960D01*
X13383542Y-15445960D02*
X13364495Y-15455484D01*
X13364495Y-15455484D02*
X13335923Y-15455484D01*
X13516876Y-15455484D02*
X13497828Y-15445960D01*
X13497828Y-15445960D02*
X13488304Y-15426912D01*
X13488304Y-15426912D02*
X13488304Y-15255484D01*
X13669257Y-15445960D02*
X13650209Y-15455484D01*
X13650209Y-15455484D02*
X13612114Y-15455484D01*
X13612114Y-15455484D02*
X13593066Y-15445960D01*
X13593066Y-15445960D02*
X13583542Y-15426912D01*
X13583542Y-15426912D02*
X13583542Y-15350722D01*
X13583542Y-15350722D02*
X13593066Y-15331674D01*
X13593066Y-15331674D02*
X13612114Y-15322150D01*
X13612114Y-15322150D02*
X13650209Y-15322150D01*
X13650209Y-15322150D02*
X13669257Y-15331674D01*
X13669257Y-15331674D02*
X13678780Y-15350722D01*
X13678780Y-15350722D02*
X13678780Y-15369769D01*
X13678780Y-15369769D02*
X13583542Y-15388817D01*
X13754971Y-15445960D02*
X13774019Y-15455484D01*
X13774019Y-15455484D02*
X13812114Y-15455484D01*
X13812114Y-15455484D02*
X13831161Y-15445960D01*
X13831161Y-15445960D02*
X13840685Y-15426912D01*
X13840685Y-15426912D02*
X13840685Y-15417388D01*
X13840685Y-15417388D02*
X13831161Y-15398341D01*
X13831161Y-15398341D02*
X13812114Y-15388817D01*
X13812114Y-15388817D02*
X13783542Y-15388817D01*
X13783542Y-15388817D02*
X13764495Y-15379293D01*
X13764495Y-15379293D02*
X13754971Y-15360246D01*
X13754971Y-15360246D02*
X13754971Y-15350722D01*
X13754971Y-15350722D02*
X13764495Y-15331674D01*
X13764495Y-15331674D02*
X13783542Y-15322150D01*
X13783542Y-15322150D02*
X13812114Y-15322150D01*
X13812114Y-15322150D02*
X13831161Y-15331674D01*
X13907352Y-15531674D02*
X13916876Y-15522150D01*
X13916876Y-15522150D02*
X13935923Y-15493579D01*
X13935923Y-15493579D02*
X13945447Y-15474531D01*
X13945447Y-15474531D02*
X13954971Y-15445960D01*
X13954971Y-15445960D02*
X13964495Y-15398341D01*
X13964495Y-15398341D02*
X13964495Y-15360246D01*
X13964495Y-15360246D02*
X13954971Y-15312627D01*
X13954971Y-15312627D02*
X13945447Y-15284055D01*
X13945447Y-15284055D02*
X13935923Y-15265008D01*
X13935923Y-15265008D02*
X13916876Y-15236436D01*
X13916876Y-15236436D02*
X13907352Y-15226912D01*
M02*
