M48
; DRILL file {KiCad 8.0.9} date 2025-09-24T23:27:43+0900
; FORMAT={-:-/ absolute / metric / decimal}
; #@! TF.CreationDate,2025-09-24T23:27:43+09:00
; #@! TF.GenerationSoftware,Kicad,Pcbnew,8.0.9
; #@! TF.FileFunction,Plated,1,2,PTH
FMAT,2
METRIC
; #@! TA.AperFunction,Plated,PTH,ViaDrill
T1C0.300
; #@! TA.AperFunction,Plated,PTH,ComponentDrill
T2C1.000
%
G90
G05
T1
X102.3Y-113.4
X116.4Y-136.0
X116.4Y-137.7
X126.8Y-110.3
X132.4Y-136.0
X132.4Y-137.7
X142.94Y-92.66
X145.6Y-114.5
X146.3Y-93.3
X146.8Y-106.0
X147.8Y-121.125
X148.0Y-97.6
X152.7Y-113.61
X153.725Y-119.925
X160.2Y-117.8
X162.25Y-113.55
X166.35Y-116.15
X170.775Y-106.925
X171.4Y-114.9
X173.1Y-120.075
X173.125Y-114.0
X177.075Y-121.725
X180.275Y-121.725
X183.375Y-121.725
T2
X135.32Y-90.0
X137.86Y-90.0
X140.4Y-90.0
X142.94Y-90.0
X145.48Y-90.0
X148.02Y-90.0
M30
