%TF.GenerationSoftware,KiCad,Pcbnew,8.0.9*%
%TF.CreationDate,2025-09-16T20:51:41+09:00*%
%TF.ProjectId,usb_sfc_pad,7573625f-7366-4635-9f70-61642e6b6963,rev?*%
%TF.SameCoordinates,Original*%
%TF.FileFunction,Drillmap*%
%TF.FilePolarity,Positive*%
%FSLAX45Y45*%
G04 Gerber Fmt 4.5, Leading zero omitted, Abs format (unit mm)*
G04 Created by KiCad (PCBNEW 8.0.9) date 2025-09-16 20:51:41*
%MOMM*%
%LPD*%
G01*
G04 APERTURE LIST*
%ADD10C,0.050000*%
%ADD11C,0.200000*%
%ADD12C,0.100000*%
G04 APERTURE END LIST*
D10*
X8043771Y-4960436D02*
G75*
G02*
X8243771Y-4960436I100000J0D01*
G01*
X5843771Y-5472936D02*
X8043771Y-5472936D01*
X8243771Y-5472936D02*
X10443771Y-5472936D01*
X8243771Y-5172936D02*
G75*
G02*
X8043771Y-5172936I-100000J0D01*
G01*
X8043771Y-4960436D02*
X8043771Y-5172936D01*
X8043771Y-5472936D02*
G75*
G02*
X8243771Y-5472936I100000J0D01*
G01*
X5843771Y-3972936D02*
X5843771Y-5472936D01*
X8043771Y-3972936D02*
X5843771Y-3972936D01*
X10443771Y-5472936D02*
X10443771Y-3972936D01*
X10443771Y-3972936D02*
X8243771Y-3972936D01*
X8243771Y-4660436D02*
G75*
G02*
X8043771Y-4660436I-100000J0D01*
G01*
X8243771Y-4960436D02*
X8243771Y-5172936D01*
X8043771Y-3972936D02*
X8043771Y-4660436D01*
X8243771Y-3972936D02*
X8243771Y-4660436D01*
D11*
D12*
X6455000Y-4115000D02*
X6485000Y-4145000D01*
X6485000Y-4115000D02*
X6455000Y-4145000D01*
X6465000Y-5315000D02*
X6495000Y-5345000D01*
X6495000Y-5315000D02*
X6465000Y-5345000D01*
X9765000Y-4095000D02*
X9795000Y-4125000D01*
X9795000Y-4095000D02*
X9765000Y-4125000D01*
X9785000Y-5315000D02*
X9815000Y-5345000D01*
X9815000Y-5315000D02*
X9785000Y-5345000D01*
D11*
X6102048Y-5786920D02*
X6102048Y-5586920D01*
X6102048Y-5586920D02*
X6149667Y-5586920D01*
X6149667Y-5586920D02*
X6178238Y-5596444D01*
X6178238Y-5596444D02*
X6197286Y-5615491D01*
X6197286Y-5615491D02*
X6206810Y-5634539D01*
X6206810Y-5634539D02*
X6216333Y-5672634D01*
X6216333Y-5672634D02*
X6216333Y-5701205D01*
X6216333Y-5701205D02*
X6206810Y-5739301D01*
X6206810Y-5739301D02*
X6197286Y-5758348D01*
X6197286Y-5758348D02*
X6178238Y-5777396D01*
X6178238Y-5777396D02*
X6149667Y-5786920D01*
X6149667Y-5786920D02*
X6102048Y-5786920D01*
X6302048Y-5786920D02*
X6302048Y-5653586D01*
X6302048Y-5691682D02*
X6311572Y-5672634D01*
X6311572Y-5672634D02*
X6321095Y-5663110D01*
X6321095Y-5663110D02*
X6340143Y-5653586D01*
X6340143Y-5653586D02*
X6359191Y-5653586D01*
X6425857Y-5786920D02*
X6425857Y-5653586D01*
X6425857Y-5586920D02*
X6416333Y-5596444D01*
X6416333Y-5596444D02*
X6425857Y-5605967D01*
X6425857Y-5605967D02*
X6435381Y-5596444D01*
X6435381Y-5596444D02*
X6425857Y-5586920D01*
X6425857Y-5586920D02*
X6425857Y-5605967D01*
X6549667Y-5786920D02*
X6530619Y-5777396D01*
X6530619Y-5777396D02*
X6521095Y-5758348D01*
X6521095Y-5758348D02*
X6521095Y-5586920D01*
X6654429Y-5786920D02*
X6635381Y-5777396D01*
X6635381Y-5777396D02*
X6625857Y-5758348D01*
X6625857Y-5758348D02*
X6625857Y-5586920D01*
X6883000Y-5786920D02*
X6883000Y-5586920D01*
X6883000Y-5586920D02*
X6949667Y-5729777D01*
X6949667Y-5729777D02*
X7016333Y-5586920D01*
X7016333Y-5586920D02*
X7016333Y-5786920D01*
X7197286Y-5786920D02*
X7197286Y-5682158D01*
X7197286Y-5682158D02*
X7187762Y-5663110D01*
X7187762Y-5663110D02*
X7168714Y-5653586D01*
X7168714Y-5653586D02*
X7130619Y-5653586D01*
X7130619Y-5653586D02*
X7111572Y-5663110D01*
X7197286Y-5777396D02*
X7178238Y-5786920D01*
X7178238Y-5786920D02*
X7130619Y-5786920D01*
X7130619Y-5786920D02*
X7111572Y-5777396D01*
X7111572Y-5777396D02*
X7102048Y-5758348D01*
X7102048Y-5758348D02*
X7102048Y-5739301D01*
X7102048Y-5739301D02*
X7111572Y-5720253D01*
X7111572Y-5720253D02*
X7130619Y-5710729D01*
X7130619Y-5710729D02*
X7178238Y-5710729D01*
X7178238Y-5710729D02*
X7197286Y-5701205D01*
X7292524Y-5653586D02*
X7292524Y-5853586D01*
X7292524Y-5663110D02*
X7311572Y-5653586D01*
X7311572Y-5653586D02*
X7349667Y-5653586D01*
X7349667Y-5653586D02*
X7368714Y-5663110D01*
X7368714Y-5663110D02*
X7378238Y-5672634D01*
X7378238Y-5672634D02*
X7387762Y-5691682D01*
X7387762Y-5691682D02*
X7387762Y-5748824D01*
X7387762Y-5748824D02*
X7378238Y-5767872D01*
X7378238Y-5767872D02*
X7368714Y-5777396D01*
X7368714Y-5777396D02*
X7349667Y-5786920D01*
X7349667Y-5786920D02*
X7311572Y-5786920D01*
X7311572Y-5786920D02*
X7292524Y-5777396D01*
X7473476Y-5767872D02*
X7483000Y-5777396D01*
X7483000Y-5777396D02*
X7473476Y-5786920D01*
X7473476Y-5786920D02*
X7463953Y-5777396D01*
X7463953Y-5777396D02*
X7473476Y-5767872D01*
X7473476Y-5767872D02*
X7473476Y-5786920D01*
X7473476Y-5663110D02*
X7483000Y-5672634D01*
X7483000Y-5672634D02*
X7473476Y-5682158D01*
X7473476Y-5682158D02*
X7463953Y-5672634D01*
X7463953Y-5672634D02*
X7473476Y-5663110D01*
X7473476Y-5663110D02*
X7473476Y-5682158D01*
D12*
X5811271Y-6100436D02*
X5841271Y-6130436D01*
X5841271Y-6100436D02*
X5811271Y-6130436D01*
D11*
X6140143Y-6006920D02*
X6159191Y-6006920D01*
X6159191Y-6006920D02*
X6178238Y-6016444D01*
X6178238Y-6016444D02*
X6187762Y-6025967D01*
X6187762Y-6025967D02*
X6197286Y-6045015D01*
X6197286Y-6045015D02*
X6206810Y-6083110D01*
X6206810Y-6083110D02*
X6206810Y-6130729D01*
X6206810Y-6130729D02*
X6197286Y-6168824D01*
X6197286Y-6168824D02*
X6187762Y-6187872D01*
X6187762Y-6187872D02*
X6178238Y-6197396D01*
X6178238Y-6197396D02*
X6159191Y-6206920D01*
X6159191Y-6206920D02*
X6140143Y-6206920D01*
X6140143Y-6206920D02*
X6121095Y-6197396D01*
X6121095Y-6197396D02*
X6111572Y-6187872D01*
X6111572Y-6187872D02*
X6102048Y-6168824D01*
X6102048Y-6168824D02*
X6092524Y-6130729D01*
X6092524Y-6130729D02*
X6092524Y-6083110D01*
X6092524Y-6083110D02*
X6102048Y-6045015D01*
X6102048Y-6045015D02*
X6111572Y-6025967D01*
X6111572Y-6025967D02*
X6121095Y-6016444D01*
X6121095Y-6016444D02*
X6140143Y-6006920D01*
X6292524Y-6187872D02*
X6302048Y-6197396D01*
X6302048Y-6197396D02*
X6292524Y-6206920D01*
X6292524Y-6206920D02*
X6283000Y-6197396D01*
X6283000Y-6197396D02*
X6292524Y-6187872D01*
X6292524Y-6187872D02*
X6292524Y-6206920D01*
X6368714Y-6006920D02*
X6492524Y-6006920D01*
X6492524Y-6006920D02*
X6425857Y-6083110D01*
X6425857Y-6083110D02*
X6454429Y-6083110D01*
X6454429Y-6083110D02*
X6473476Y-6092634D01*
X6473476Y-6092634D02*
X6483000Y-6102158D01*
X6483000Y-6102158D02*
X6492524Y-6121205D01*
X6492524Y-6121205D02*
X6492524Y-6168824D01*
X6492524Y-6168824D02*
X6483000Y-6187872D01*
X6483000Y-6187872D02*
X6473476Y-6197396D01*
X6473476Y-6197396D02*
X6454429Y-6206920D01*
X6454429Y-6206920D02*
X6397286Y-6206920D01*
X6397286Y-6206920D02*
X6378238Y-6197396D01*
X6378238Y-6197396D02*
X6368714Y-6187872D01*
X6616333Y-6006920D02*
X6635381Y-6006920D01*
X6635381Y-6006920D02*
X6654429Y-6016444D01*
X6654429Y-6016444D02*
X6663953Y-6025967D01*
X6663953Y-6025967D02*
X6673476Y-6045015D01*
X6673476Y-6045015D02*
X6683000Y-6083110D01*
X6683000Y-6083110D02*
X6683000Y-6130729D01*
X6683000Y-6130729D02*
X6673476Y-6168824D01*
X6673476Y-6168824D02*
X6663953Y-6187872D01*
X6663953Y-6187872D02*
X6654429Y-6197396D01*
X6654429Y-6197396D02*
X6635381Y-6206920D01*
X6635381Y-6206920D02*
X6616333Y-6206920D01*
X6616333Y-6206920D02*
X6597286Y-6197396D01*
X6597286Y-6197396D02*
X6587762Y-6187872D01*
X6587762Y-6187872D02*
X6578238Y-6168824D01*
X6578238Y-6168824D02*
X6568714Y-6130729D01*
X6568714Y-6130729D02*
X6568714Y-6083110D01*
X6568714Y-6083110D02*
X6578238Y-6045015D01*
X6578238Y-6045015D02*
X6587762Y-6025967D01*
X6587762Y-6025967D02*
X6597286Y-6016444D01*
X6597286Y-6016444D02*
X6616333Y-6006920D01*
X6806810Y-6006920D02*
X6825857Y-6006920D01*
X6825857Y-6006920D02*
X6844905Y-6016444D01*
X6844905Y-6016444D02*
X6854429Y-6025967D01*
X6854429Y-6025967D02*
X6863953Y-6045015D01*
X6863953Y-6045015D02*
X6873476Y-6083110D01*
X6873476Y-6083110D02*
X6873476Y-6130729D01*
X6873476Y-6130729D02*
X6863953Y-6168824D01*
X6863953Y-6168824D02*
X6854429Y-6187872D01*
X6854429Y-6187872D02*
X6844905Y-6197396D01*
X6844905Y-6197396D02*
X6825857Y-6206920D01*
X6825857Y-6206920D02*
X6806810Y-6206920D01*
X6806810Y-6206920D02*
X6787762Y-6197396D01*
X6787762Y-6197396D02*
X6778238Y-6187872D01*
X6778238Y-6187872D02*
X6768714Y-6168824D01*
X6768714Y-6168824D02*
X6759191Y-6130729D01*
X6759191Y-6130729D02*
X6759191Y-6083110D01*
X6759191Y-6083110D02*
X6768714Y-6045015D01*
X6768714Y-6045015D02*
X6778238Y-6025967D01*
X6778238Y-6025967D02*
X6787762Y-6016444D01*
X6787762Y-6016444D02*
X6806810Y-6006920D01*
X6959191Y-6206920D02*
X6959191Y-6073586D01*
X6959191Y-6092634D02*
X6968714Y-6083110D01*
X6968714Y-6083110D02*
X6987762Y-6073586D01*
X6987762Y-6073586D02*
X7016334Y-6073586D01*
X7016334Y-6073586D02*
X7035381Y-6083110D01*
X7035381Y-6083110D02*
X7044905Y-6102158D01*
X7044905Y-6102158D02*
X7044905Y-6206920D01*
X7044905Y-6102158D02*
X7054429Y-6083110D01*
X7054429Y-6083110D02*
X7073476Y-6073586D01*
X7073476Y-6073586D02*
X7102048Y-6073586D01*
X7102048Y-6073586D02*
X7121095Y-6083110D01*
X7121095Y-6083110D02*
X7130619Y-6102158D01*
X7130619Y-6102158D02*
X7130619Y-6206920D01*
X7225857Y-6206920D02*
X7225857Y-6073586D01*
X7225857Y-6092634D02*
X7235381Y-6083110D01*
X7235381Y-6083110D02*
X7254429Y-6073586D01*
X7254429Y-6073586D02*
X7283000Y-6073586D01*
X7283000Y-6073586D02*
X7302048Y-6083110D01*
X7302048Y-6083110D02*
X7311572Y-6102158D01*
X7311572Y-6102158D02*
X7311572Y-6206920D01*
X7311572Y-6102158D02*
X7321095Y-6083110D01*
X7321095Y-6083110D02*
X7340143Y-6073586D01*
X7340143Y-6073586D02*
X7368714Y-6073586D01*
X7368714Y-6073586D02*
X7387762Y-6083110D01*
X7387762Y-6083110D02*
X7397286Y-6102158D01*
X7397286Y-6102158D02*
X7397286Y-6206920D01*
X7787762Y-5997396D02*
X7616334Y-6254539D01*
X8044905Y-6006920D02*
X8063953Y-6006920D01*
X8063953Y-6006920D02*
X8083000Y-6016444D01*
X8083000Y-6016444D02*
X8092524Y-6025967D01*
X8092524Y-6025967D02*
X8102048Y-6045015D01*
X8102048Y-6045015D02*
X8111572Y-6083110D01*
X8111572Y-6083110D02*
X8111572Y-6130729D01*
X8111572Y-6130729D02*
X8102048Y-6168824D01*
X8102048Y-6168824D02*
X8092524Y-6187872D01*
X8092524Y-6187872D02*
X8083000Y-6197396D01*
X8083000Y-6197396D02*
X8063953Y-6206920D01*
X8063953Y-6206920D02*
X8044905Y-6206920D01*
X8044905Y-6206920D02*
X8025857Y-6197396D01*
X8025857Y-6197396D02*
X8016334Y-6187872D01*
X8016334Y-6187872D02*
X8006810Y-6168824D01*
X8006810Y-6168824D02*
X7997286Y-6130729D01*
X7997286Y-6130729D02*
X7997286Y-6083110D01*
X7997286Y-6083110D02*
X8006810Y-6045015D01*
X8006810Y-6045015D02*
X8016334Y-6025967D01*
X8016334Y-6025967D02*
X8025857Y-6016444D01*
X8025857Y-6016444D02*
X8044905Y-6006920D01*
X8197286Y-6187872D02*
X8206810Y-6197396D01*
X8206810Y-6197396D02*
X8197286Y-6206920D01*
X8197286Y-6206920D02*
X8187762Y-6197396D01*
X8187762Y-6197396D02*
X8197286Y-6187872D01*
X8197286Y-6187872D02*
X8197286Y-6206920D01*
X8330619Y-6006920D02*
X8349667Y-6006920D01*
X8349667Y-6006920D02*
X8368715Y-6016444D01*
X8368715Y-6016444D02*
X8378238Y-6025967D01*
X8378238Y-6025967D02*
X8387762Y-6045015D01*
X8387762Y-6045015D02*
X8397286Y-6083110D01*
X8397286Y-6083110D02*
X8397286Y-6130729D01*
X8397286Y-6130729D02*
X8387762Y-6168824D01*
X8387762Y-6168824D02*
X8378238Y-6187872D01*
X8378238Y-6187872D02*
X8368715Y-6197396D01*
X8368715Y-6197396D02*
X8349667Y-6206920D01*
X8349667Y-6206920D02*
X8330619Y-6206920D01*
X8330619Y-6206920D02*
X8311572Y-6197396D01*
X8311572Y-6197396D02*
X8302048Y-6187872D01*
X8302048Y-6187872D02*
X8292524Y-6168824D01*
X8292524Y-6168824D02*
X8283000Y-6130729D01*
X8283000Y-6130729D02*
X8283000Y-6083110D01*
X8283000Y-6083110D02*
X8292524Y-6045015D01*
X8292524Y-6045015D02*
X8302048Y-6025967D01*
X8302048Y-6025967D02*
X8311572Y-6016444D01*
X8311572Y-6016444D02*
X8330619Y-6006920D01*
X8587762Y-6206920D02*
X8473477Y-6206920D01*
X8530619Y-6206920D02*
X8530619Y-6006920D01*
X8530619Y-6006920D02*
X8511572Y-6035491D01*
X8511572Y-6035491D02*
X8492524Y-6054539D01*
X8492524Y-6054539D02*
X8473477Y-6064063D01*
X8778239Y-6206920D02*
X8663953Y-6206920D01*
X8721096Y-6206920D02*
X8721096Y-6006920D01*
X8721096Y-6006920D02*
X8702048Y-6035491D01*
X8702048Y-6035491D02*
X8683000Y-6054539D01*
X8683000Y-6054539D02*
X8663953Y-6064063D01*
X8892524Y-6092634D02*
X8873477Y-6083110D01*
X8873477Y-6083110D02*
X8863953Y-6073586D01*
X8863953Y-6073586D02*
X8854429Y-6054539D01*
X8854429Y-6054539D02*
X8854429Y-6045015D01*
X8854429Y-6045015D02*
X8863953Y-6025967D01*
X8863953Y-6025967D02*
X8873477Y-6016444D01*
X8873477Y-6016444D02*
X8892524Y-6006920D01*
X8892524Y-6006920D02*
X8930620Y-6006920D01*
X8930620Y-6006920D02*
X8949667Y-6016444D01*
X8949667Y-6016444D02*
X8959191Y-6025967D01*
X8959191Y-6025967D02*
X8968715Y-6045015D01*
X8968715Y-6045015D02*
X8968715Y-6054539D01*
X8968715Y-6054539D02*
X8959191Y-6073586D01*
X8959191Y-6073586D02*
X8949667Y-6083110D01*
X8949667Y-6083110D02*
X8930620Y-6092634D01*
X8930620Y-6092634D02*
X8892524Y-6092634D01*
X8892524Y-6092634D02*
X8873477Y-6102158D01*
X8873477Y-6102158D02*
X8863953Y-6111682D01*
X8863953Y-6111682D02*
X8854429Y-6130729D01*
X8854429Y-6130729D02*
X8854429Y-6168824D01*
X8854429Y-6168824D02*
X8863953Y-6187872D01*
X8863953Y-6187872D02*
X8873477Y-6197396D01*
X8873477Y-6197396D02*
X8892524Y-6206920D01*
X8892524Y-6206920D02*
X8930620Y-6206920D01*
X8930620Y-6206920D02*
X8949667Y-6197396D01*
X8949667Y-6197396D02*
X8959191Y-6187872D01*
X8959191Y-6187872D02*
X8968715Y-6168824D01*
X8968715Y-6168824D02*
X8968715Y-6130729D01*
X8968715Y-6130729D02*
X8959191Y-6111682D01*
X8959191Y-6111682D02*
X8949667Y-6102158D01*
X8949667Y-6102158D02*
X8930620Y-6092634D01*
X9044905Y-6006920D02*
X9044905Y-6045015D01*
X9121096Y-6006920D02*
X9121096Y-6045015D01*
X9416334Y-6283110D02*
X9406810Y-6273586D01*
X9406810Y-6273586D02*
X9387762Y-6245015D01*
X9387762Y-6245015D02*
X9378239Y-6225967D01*
X9378239Y-6225967D02*
X9368715Y-6197396D01*
X9368715Y-6197396D02*
X9359191Y-6149777D01*
X9359191Y-6149777D02*
X9359191Y-6111682D01*
X9359191Y-6111682D02*
X9368715Y-6064063D01*
X9368715Y-6064063D02*
X9378239Y-6035491D01*
X9378239Y-6035491D02*
X9387762Y-6016444D01*
X9387762Y-6016444D02*
X9406810Y-5987872D01*
X9406810Y-5987872D02*
X9416334Y-5978348D01*
X9578239Y-6073586D02*
X9578239Y-6206920D01*
X9530620Y-5997396D02*
X9483001Y-6140253D01*
X9483001Y-6140253D02*
X9606810Y-6140253D01*
X9835382Y-6206920D02*
X9835382Y-6006920D01*
X9921096Y-6206920D02*
X9921096Y-6102158D01*
X9921096Y-6102158D02*
X9911572Y-6083110D01*
X9911572Y-6083110D02*
X9892524Y-6073586D01*
X9892524Y-6073586D02*
X9863953Y-6073586D01*
X9863953Y-6073586D02*
X9844905Y-6083110D01*
X9844905Y-6083110D02*
X9835382Y-6092634D01*
X10044905Y-6206920D02*
X10025858Y-6197396D01*
X10025858Y-6197396D02*
X10016334Y-6187872D01*
X10016334Y-6187872D02*
X10006810Y-6168824D01*
X10006810Y-6168824D02*
X10006810Y-6111682D01*
X10006810Y-6111682D02*
X10016334Y-6092634D01*
X10016334Y-6092634D02*
X10025858Y-6083110D01*
X10025858Y-6083110D02*
X10044905Y-6073586D01*
X10044905Y-6073586D02*
X10073477Y-6073586D01*
X10073477Y-6073586D02*
X10092524Y-6083110D01*
X10092524Y-6083110D02*
X10102048Y-6092634D01*
X10102048Y-6092634D02*
X10111572Y-6111682D01*
X10111572Y-6111682D02*
X10111572Y-6168824D01*
X10111572Y-6168824D02*
X10102048Y-6187872D01*
X10102048Y-6187872D02*
X10092524Y-6197396D01*
X10092524Y-6197396D02*
X10073477Y-6206920D01*
X10073477Y-6206920D02*
X10044905Y-6206920D01*
X10225858Y-6206920D02*
X10206810Y-6197396D01*
X10206810Y-6197396D02*
X10197286Y-6178348D01*
X10197286Y-6178348D02*
X10197286Y-6006920D01*
X10378239Y-6197396D02*
X10359191Y-6206920D01*
X10359191Y-6206920D02*
X10321096Y-6206920D01*
X10321096Y-6206920D02*
X10302048Y-6197396D01*
X10302048Y-6197396D02*
X10292524Y-6178348D01*
X10292524Y-6178348D02*
X10292524Y-6102158D01*
X10292524Y-6102158D02*
X10302048Y-6083110D01*
X10302048Y-6083110D02*
X10321096Y-6073586D01*
X10321096Y-6073586D02*
X10359191Y-6073586D01*
X10359191Y-6073586D02*
X10378239Y-6083110D01*
X10378239Y-6083110D02*
X10387763Y-6102158D01*
X10387763Y-6102158D02*
X10387763Y-6121205D01*
X10387763Y-6121205D02*
X10292524Y-6140253D01*
X10463953Y-6197396D02*
X10483001Y-6206920D01*
X10483001Y-6206920D02*
X10521096Y-6206920D01*
X10521096Y-6206920D02*
X10540144Y-6197396D01*
X10540144Y-6197396D02*
X10549667Y-6178348D01*
X10549667Y-6178348D02*
X10549667Y-6168824D01*
X10549667Y-6168824D02*
X10540144Y-6149777D01*
X10540144Y-6149777D02*
X10521096Y-6140253D01*
X10521096Y-6140253D02*
X10492524Y-6140253D01*
X10492524Y-6140253D02*
X10473477Y-6130729D01*
X10473477Y-6130729D02*
X10463953Y-6111682D01*
X10463953Y-6111682D02*
X10463953Y-6102158D01*
X10463953Y-6102158D02*
X10473477Y-6083110D01*
X10473477Y-6083110D02*
X10492524Y-6073586D01*
X10492524Y-6073586D02*
X10521096Y-6073586D01*
X10521096Y-6073586D02*
X10540144Y-6083110D01*
X10616334Y-6283110D02*
X10625858Y-6273586D01*
X10625858Y-6273586D02*
X10644905Y-6245015D01*
X10644905Y-6245015D02*
X10654429Y-6225967D01*
X10654429Y-6225967D02*
X10663953Y-6197396D01*
X10663953Y-6197396D02*
X10673477Y-6149777D01*
X10673477Y-6149777D02*
X10673477Y-6111682D01*
X10673477Y-6111682D02*
X10663953Y-6064063D01*
X10663953Y-6064063D02*
X10654429Y-6035491D01*
X10654429Y-6035491D02*
X10644905Y-6016444D01*
X10644905Y-6016444D02*
X10625858Y-5987872D01*
X10625858Y-5987872D02*
X10616334Y-5978348D01*
M02*
