G04 #@! TF.GenerationSoftware,KiCad,Pcbnew,8.0.9*
G04 #@! TF.CreationDate,2025-09-16T20:51:35+09:00*
G04 #@! TF.ProjectId,usb_sfc_pad,7573625f-7366-4635-9f70-61642e6b6963,rev?*
G04 #@! TF.SameCoordinates,Original*
G04 #@! TF.FileFunction,Copper,L2,Bot*
G04 #@! TF.FilePolarity,Positive*
%FSLAX46Y46*%
G04 Gerber Fmt 4.6, Leading zero omitted, Abs format (unit mm)*
G04 Created by KiCad (PCBNEW 8.0.9) date 2025-09-16 20:51:35*
%MOMM*%
%LPD*%
G01*
G04 APERTURE LIST*
G04 #@! TA.AperFunction,SMDPad,CuDef*
%ADD10R,1.701800X0.812800*%
G04 #@! TD*
G04 #@! TA.AperFunction,SMDPad,CuDef*
%ADD11R,3.098800X2.209800*%
G04 #@! TD*
G04 #@! TA.AperFunction,ViaPad*
%ADD12C,0.600000*%
G04 #@! TD*
G04 #@! TA.AperFunction,Conductor*
%ADD13C,0.400000*%
G04 #@! TD*
G04 APERTURE END LIST*
D10*
X61700001Y-46600000D03*
X61700001Y-47850000D03*
D11*
X64600000Y-50400000D03*
X64600000Y-44050000D03*
D10*
X100999999Y-47825000D03*
X100999999Y-46575000D03*
D11*
X98100000Y-44025000D03*
X98100000Y-50375000D03*
D12*
X98000000Y-53300000D03*
X97800000Y-41100000D03*
X64700000Y-41300000D03*
X64800000Y-53300000D03*
D13*
X60000000Y-48300000D02*
X60000000Y-52700000D01*
X60600000Y-53300000D02*
X64800000Y-53300000D01*
X61795500Y-47850000D02*
X60450000Y-47850000D01*
X60000000Y-46100000D02*
X60500000Y-46600000D01*
X60000000Y-52700000D02*
X60600000Y-53300000D01*
X60000000Y-41900000D02*
X60000000Y-46100000D01*
X64700000Y-41300000D02*
X60600000Y-41300000D01*
X60600000Y-41300000D02*
X60000000Y-41900000D01*
X60500000Y-46600000D02*
X61795500Y-46600000D01*
X102700000Y-41700000D02*
X102700000Y-46100000D01*
X60450000Y-47850000D02*
X60000000Y-48300000D01*
X98000000Y-53300000D02*
X102100000Y-53300000D01*
X102700000Y-52700000D02*
X102700000Y-48300000D01*
X102100000Y-41100000D02*
X102700000Y-41700000D01*
X102225000Y-46575000D02*
X100799999Y-46575000D01*
X97800000Y-41100000D02*
X102100000Y-41100000D01*
X102100000Y-53300000D02*
X102700000Y-52700000D01*
X102225000Y-47825000D02*
X100799999Y-47825000D01*
X102700000Y-48300000D02*
X102225000Y-47825000D01*
X102700000Y-46100000D02*
X102225000Y-46575000D01*
M02*
