G04 #@! TF.GenerationSoftware,KiCad,Pcbnew,8.0.9*
G04 #@! TF.CreationDate,2025-09-16T20:51:35+09:00*
G04 #@! TF.ProjectId,usb_sfc_pad,7573625f-7366-4635-9f70-61642e6b6963,rev?*
G04 #@! TF.SameCoordinates,Original*
G04 #@! TF.FileFunction,Legend,Top*
G04 #@! TF.FilePolarity,Positive*
%FSLAX46Y46*%
G04 Gerber Fmt 4.6, Leading zero omitted, Abs format (unit mm)*
G04 Created by KiCad (PCBNEW 8.0.9) date 2025-09-16 20:51:35*
%MOMM*%
%LPD*%
G01*
G04 APERTURE LIST*
G04 Aperture macros list*
%AMFreePoly0*
4,1,19,0.300000,-2.700000,-3.900000,-2.700000,-3.900000,-2.200000,-0.700000,-2.200000,-0.700000,-1.200000,-3.900000,-1.200000,-3.900000,-0.800000,-0.700000,-0.800000,-0.700000,0.200000,-3.900000,0.200000,-3.900000,0.600000,-0.700000,0.600000,-0.700000,1.600000,-3.900000,1.600000,-3.900000,2.000000,-0.700000,2.000000,-0.700000,2.800000,0.300000,2.800000,0.300000,-2.700000,0.300000,-2.700000,
$1*%
%AMFreePoly1*
4,1,19,3.900000,2.200000,0.700000,2.200000,0.700000,1.200000,3.900000,1.200000,3.900000,0.800000,0.700000,0.800000,0.700000,-0.200000,3.900000,-0.200000,3.900000,-0.600000,0.700000,-0.600000,0.700000,-1.600000,3.900000,-1.600000,3.900000,-2.000000,0.700000,-2.000000,0.700000,-2.800000,-0.300000,-2.800000,-0.300000,2.700000,3.900000,2.700000,3.900000,2.200000,3.900000,2.200000,
$1*%
G04 Aperture macros list end*
%ADD10C,0.100000*%
%ADD11C,0.508000*%
%ADD12FreePoly0,180.000000*%
%ADD13FreePoly1,180.000000*%
G04 APERTURE END LIST*
D10*
X71385713Y-43040200D02*
X71242856Y-42992580D01*
X71242856Y-42992580D02*
X71004761Y-42992580D01*
X71004761Y-42992580D02*
X70909523Y-43040200D01*
X70909523Y-43040200D02*
X70861904Y-43087819D01*
X70861904Y-43087819D02*
X70814285Y-43183057D01*
X70814285Y-43183057D02*
X70814285Y-43278295D01*
X70814285Y-43278295D02*
X70861904Y-43373533D01*
X70861904Y-43373533D02*
X70909523Y-43421152D01*
X70909523Y-43421152D02*
X71004761Y-43468771D01*
X71004761Y-43468771D02*
X71195237Y-43516390D01*
X71195237Y-43516390D02*
X71290475Y-43564009D01*
X71290475Y-43564009D02*
X71338094Y-43611628D01*
X71338094Y-43611628D02*
X71385713Y-43706866D01*
X71385713Y-43706866D02*
X71385713Y-43802104D01*
X71385713Y-43802104D02*
X71338094Y-43897342D01*
X71338094Y-43897342D02*
X71290475Y-43944961D01*
X71290475Y-43944961D02*
X71195237Y-43992580D01*
X71195237Y-43992580D02*
X70957142Y-43992580D01*
X70957142Y-43992580D02*
X70814285Y-43944961D01*
X70480951Y-43992580D02*
X70242856Y-42992580D01*
X70242856Y-42992580D02*
X70052380Y-43706866D01*
X70052380Y-43706866D02*
X69861904Y-42992580D01*
X69861904Y-42992580D02*
X69623809Y-43992580D01*
X68719047Y-42992580D02*
X69290475Y-42992580D01*
X69004761Y-42992580D02*
X69004761Y-43992580D01*
X69004761Y-43992580D02*
X69099999Y-43849723D01*
X69099999Y-43849723D02*
X69195237Y-43754485D01*
X69195237Y-43754485D02*
X69290475Y-43706866D01*
X67766666Y-42992580D02*
X68338094Y-42992580D01*
X68052380Y-42992580D02*
X68052380Y-43992580D01*
X68052380Y-43992580D02*
X68147618Y-43849723D01*
X68147618Y-43849723D02*
X68242856Y-43754485D01*
X68242856Y-43754485D02*
X68338094Y-43706866D01*
X67385713Y-43897342D02*
X67338094Y-43944961D01*
X67338094Y-43944961D02*
X67242856Y-43992580D01*
X67242856Y-43992580D02*
X67004761Y-43992580D01*
X67004761Y-43992580D02*
X66909523Y-43944961D01*
X66909523Y-43944961D02*
X66861904Y-43897342D01*
X66861904Y-43897342D02*
X66814285Y-43802104D01*
X66814285Y-43802104D02*
X66814285Y-43706866D01*
X66814285Y-43706866D02*
X66861904Y-43564009D01*
X66861904Y-43564009D02*
X67433332Y-42992580D01*
X67433332Y-42992580D02*
X66814285Y-42992580D01*
X95385713Y-43040200D02*
X95242856Y-42992580D01*
X95242856Y-42992580D02*
X95004761Y-42992580D01*
X95004761Y-42992580D02*
X94909523Y-43040200D01*
X94909523Y-43040200D02*
X94861904Y-43087819D01*
X94861904Y-43087819D02*
X94814285Y-43183057D01*
X94814285Y-43183057D02*
X94814285Y-43278295D01*
X94814285Y-43278295D02*
X94861904Y-43373533D01*
X94861904Y-43373533D02*
X94909523Y-43421152D01*
X94909523Y-43421152D02*
X95004761Y-43468771D01*
X95004761Y-43468771D02*
X95195237Y-43516390D01*
X95195237Y-43516390D02*
X95290475Y-43564009D01*
X95290475Y-43564009D02*
X95338094Y-43611628D01*
X95338094Y-43611628D02*
X95385713Y-43706866D01*
X95385713Y-43706866D02*
X95385713Y-43802104D01*
X95385713Y-43802104D02*
X95338094Y-43897342D01*
X95338094Y-43897342D02*
X95290475Y-43944961D01*
X95290475Y-43944961D02*
X95195237Y-43992580D01*
X95195237Y-43992580D02*
X94957142Y-43992580D01*
X94957142Y-43992580D02*
X94814285Y-43944961D01*
X94480951Y-43992580D02*
X94242856Y-42992580D01*
X94242856Y-42992580D02*
X94052380Y-43706866D01*
X94052380Y-43706866D02*
X93861904Y-42992580D01*
X93861904Y-42992580D02*
X93623809Y-43992580D01*
X92719047Y-42992580D02*
X93290475Y-42992580D01*
X93004761Y-42992580D02*
X93004761Y-43992580D01*
X93004761Y-43992580D02*
X93099999Y-43849723D01*
X93099999Y-43849723D02*
X93195237Y-43754485D01*
X93195237Y-43754485D02*
X93290475Y-43706866D01*
X91766666Y-42992580D02*
X92338094Y-42992580D01*
X92052380Y-42992580D02*
X92052380Y-43992580D01*
X92052380Y-43992580D02*
X92147618Y-43849723D01*
X92147618Y-43849723D02*
X92242856Y-43754485D01*
X92242856Y-43754485D02*
X92338094Y-43706866D01*
X90814285Y-42992580D02*
X91385713Y-42992580D01*
X91099999Y-42992580D02*
X91099999Y-43992580D01*
X91099999Y-43992580D02*
X91195237Y-43849723D01*
X91195237Y-43849723D02*
X91290475Y-43754485D01*
X91290475Y-43754485D02*
X91385713Y-43706866D01*
D11*
X62081001Y-42843500D02*
G75*
G02*
X61319001Y-42843500I-381000J0D01*
G01*
X61319001Y-42843500D02*
G75*
G02*
X62081001Y-42843500I381000J0D01*
G01*
X101380999Y-51581500D02*
G75*
G02*
X100618999Y-51581500I-381000J0D01*
G01*
X100618999Y-51581500D02*
G75*
G02*
X101380999Y-51581500I381000J0D01*
G01*
%LPC*%
D12*
X66850000Y-47150000D03*
D13*
X71750000Y-47250000D03*
D12*
X90850000Y-47150000D03*
D13*
X95750000Y-47250000D03*
%LPD*%
M02*
