G04 #@! TF.GenerationSoftware,KiCad,Pcbnew,8.0.9*
G04 #@! TF.CreationDate,2025-09-16T20:51:35+09:00*
G04 #@! TF.ProjectId,usb_sfc_pad,7573625f-7366-4635-9f70-61642e6b6963,rev?*
G04 #@! TF.SameCoordinates,Original*
G04 #@! TF.FileFunction,Legend,Bot*
G04 #@! TF.FilePolarity,Positive*
%FSLAX46Y46*%
G04 Gerber Fmt 4.6, Leading zero omitted, Abs format (unit mm)*
G04 Created by KiCad (PCBNEW 8.0.9) date 2025-09-16 20:51:35*
%MOMM*%
%LPD*%
G01*
G04 APERTURE LIST*
%ADD10C,0.150000*%
%ADD11C,0.152400*%
%ADD12C,0.508000*%
%ADD13R,1.701800X0.812800*%
%ADD14R,3.098800X2.209800*%
G04 APERTURE END LIST*
D10*
X68445180Y-48385714D02*
X67730895Y-48385714D01*
X67730895Y-48385714D02*
X67588038Y-48433333D01*
X67588038Y-48433333D02*
X67492800Y-48528571D01*
X67492800Y-48528571D02*
X67445180Y-48671428D01*
X67445180Y-48671428D02*
X67445180Y-48766666D01*
X67445180Y-47385714D02*
X67445180Y-47957142D01*
X67445180Y-47671428D02*
X68445180Y-47671428D01*
X68445180Y-47671428D02*
X68302323Y-47766666D01*
X68302323Y-47766666D02*
X68207085Y-47861904D01*
X68207085Y-47861904D02*
X68159466Y-47957142D01*
X68445180Y-46766666D02*
X68445180Y-46671428D01*
X68445180Y-46671428D02*
X68397561Y-46576190D01*
X68397561Y-46576190D02*
X68349942Y-46528571D01*
X68349942Y-46528571D02*
X68254704Y-46480952D01*
X68254704Y-46480952D02*
X68064228Y-46433333D01*
X68064228Y-46433333D02*
X67826133Y-46433333D01*
X67826133Y-46433333D02*
X67635657Y-46480952D01*
X67635657Y-46480952D02*
X67540419Y-46528571D01*
X67540419Y-46528571D02*
X67492800Y-46576190D01*
X67492800Y-46576190D02*
X67445180Y-46671428D01*
X67445180Y-46671428D02*
X67445180Y-46766666D01*
X67445180Y-46766666D02*
X67492800Y-46861904D01*
X67492800Y-46861904D02*
X67540419Y-46909523D01*
X67540419Y-46909523D02*
X67635657Y-46957142D01*
X67635657Y-46957142D02*
X67826133Y-47004761D01*
X67826133Y-47004761D02*
X68064228Y-47004761D01*
X68064228Y-47004761D02*
X68254704Y-46957142D01*
X68254704Y-46957142D02*
X68349942Y-46909523D01*
X68349942Y-46909523D02*
X68397561Y-46861904D01*
X68397561Y-46861904D02*
X68445180Y-46766666D01*
X68445180Y-45576190D02*
X68445180Y-45766666D01*
X68445180Y-45766666D02*
X68397561Y-45861904D01*
X68397561Y-45861904D02*
X68349942Y-45909523D01*
X68349942Y-45909523D02*
X68207085Y-46004761D01*
X68207085Y-46004761D02*
X68016609Y-46052380D01*
X68016609Y-46052380D02*
X67635657Y-46052380D01*
X67635657Y-46052380D02*
X67540419Y-46004761D01*
X67540419Y-46004761D02*
X67492800Y-45957142D01*
X67492800Y-45957142D02*
X67445180Y-45861904D01*
X67445180Y-45861904D02*
X67445180Y-45671428D01*
X67445180Y-45671428D02*
X67492800Y-45576190D01*
X67492800Y-45576190D02*
X67540419Y-45528571D01*
X67540419Y-45528571D02*
X67635657Y-45480952D01*
X67635657Y-45480952D02*
X67873752Y-45480952D01*
X67873752Y-45480952D02*
X67968990Y-45528571D01*
X67968990Y-45528571D02*
X68016609Y-45576190D01*
X68016609Y-45576190D02*
X68064228Y-45671428D01*
X68064228Y-45671428D02*
X68064228Y-45861904D01*
X68064228Y-45861904D02*
X68016609Y-45957142D01*
X68016609Y-45957142D02*
X67968990Y-46004761D01*
X67968990Y-46004761D02*
X67873752Y-46052380D01*
X94354819Y-45914285D02*
X95069104Y-45914285D01*
X95069104Y-45914285D02*
X95211961Y-45866666D01*
X95211961Y-45866666D02*
X95307200Y-45771428D01*
X95307200Y-45771428D02*
X95354819Y-45628571D01*
X95354819Y-45628571D02*
X95354819Y-45533333D01*
X95354819Y-46914285D02*
X95354819Y-46342857D01*
X95354819Y-46628571D02*
X94354819Y-46628571D01*
X94354819Y-46628571D02*
X94497676Y-46533333D01*
X94497676Y-46533333D02*
X94592914Y-46438095D01*
X94592914Y-46438095D02*
X94640533Y-46342857D01*
X94354819Y-47533333D02*
X94354819Y-47628571D01*
X94354819Y-47628571D02*
X94402438Y-47723809D01*
X94402438Y-47723809D02*
X94450057Y-47771428D01*
X94450057Y-47771428D02*
X94545295Y-47819047D01*
X94545295Y-47819047D02*
X94735771Y-47866666D01*
X94735771Y-47866666D02*
X94973866Y-47866666D01*
X94973866Y-47866666D02*
X95164342Y-47819047D01*
X95164342Y-47819047D02*
X95259580Y-47771428D01*
X95259580Y-47771428D02*
X95307200Y-47723809D01*
X95307200Y-47723809D02*
X95354819Y-47628571D01*
X95354819Y-47628571D02*
X95354819Y-47533333D01*
X95354819Y-47533333D02*
X95307200Y-47438095D01*
X95307200Y-47438095D02*
X95259580Y-47390476D01*
X95259580Y-47390476D02*
X95164342Y-47342857D01*
X95164342Y-47342857D02*
X94973866Y-47295238D01*
X94973866Y-47295238D02*
X94735771Y-47295238D01*
X94735771Y-47295238D02*
X94545295Y-47342857D01*
X94545295Y-47342857D02*
X94450057Y-47390476D01*
X94450057Y-47390476D02*
X94402438Y-47438095D01*
X94402438Y-47438095D02*
X94354819Y-47533333D01*
X94688152Y-48723809D02*
X95354819Y-48723809D01*
X94307200Y-48485714D02*
X95021485Y-48247619D01*
X95021485Y-48247619D02*
X95021485Y-48866666D01*
D11*
X62382001Y-43478500D02*
X62382001Y-45860860D01*
X62382001Y-48589140D02*
X62382001Y-50971500D01*
X62382001Y-50971500D02*
X62717860Y-50971500D01*
X62717860Y-43478500D02*
X62382001Y-43478500D01*
X66482140Y-50971500D02*
X66827001Y-50971500D01*
X66827001Y-43478500D02*
X66482140Y-43478500D01*
X66827001Y-50971500D02*
X66827001Y-43478500D01*
D12*
X62081001Y-42843500D02*
G75*
G02*
X61319001Y-42843500I-381000J0D01*
G01*
X61319001Y-42843500D02*
G75*
G02*
X62081001Y-42843500I381000J0D01*
G01*
D11*
X95872999Y-43453500D02*
X95872999Y-50946500D01*
X95872999Y-50946500D02*
X96217860Y-50946500D01*
X96217860Y-43453500D02*
X95872999Y-43453500D01*
X99982140Y-50946500D02*
X100317999Y-50946500D01*
X100317999Y-43453500D02*
X99982140Y-43453500D01*
X100317999Y-45835860D02*
X100317999Y-43453500D01*
X100317999Y-50946500D02*
X100317999Y-48564140D01*
D12*
X101380999Y-51581500D02*
G75*
G02*
X100618999Y-51581500I-381000J0D01*
G01*
X100618999Y-51581500D02*
G75*
G02*
X101380999Y-51581500I381000J0D01*
G01*
%LPC*%
D13*
X61700001Y-46600000D03*
X61700001Y-47850000D03*
D14*
X64600000Y-50400000D03*
X64600000Y-44050000D03*
D13*
X100999999Y-47825000D03*
X100999999Y-46575000D03*
D14*
X98100000Y-44025000D03*
X98100000Y-50375000D03*
%LPD*%
M02*
