%TF.GenerationSoftware,KiCad,Pcbnew,8.0.9*%
%TF.CreationDate,2025-09-17T21:58:45+09:00*%
%TF.ProjectId,usb_sfc_pad,7573625f-7366-4635-9f70-61642e6b6963,rev?*%
%TF.SameCoordinates,Original*%
%TF.FileFunction,Drillmap*%
%TF.FilePolarity,Positive*%
%FSLAX45Y45*%
G04 Gerber Fmt 4.5, Leading zero omitted, Abs format (unit mm)*
G04 Created by KiCad (PCBNEW 8.0.9) date 2025-09-17 21:58:45*
%MOMM*%
%LPD*%
G01*
G04 APERTURE LIST*
%ADD10C,0.200000*%
%ADD11C,0.050000*%
G04 APERTURE END LIST*
D10*
X15166155Y-12552955D02*
G75*
G02*
X15666787Y-12558575I250275J-6465D01*
G01*
X13392241Y-8609462D02*
X12992122Y-8609462D01*
X21708663Y-11801257D02*
G75*
G02*
X21708662Y-11282103I-31583J259577D01*
G01*
X12956271Y-12747936D02*
X14856271Y-12747936D01*
X17907513Y-8870472D02*
G75*
G02*
X17816331Y-8961653I-91183J2D01*
G01*
X17816331Y-8961654D02*
X16674113Y-8961654D01*
X18978236Y-8269557D02*
X18338130Y-8269557D01*
X17907513Y-8700174D02*
G75*
G02*
X18338130Y-8269553I430617J4D01*
G01*
X13489798Y-8574752D02*
G75*
G02*
X13392241Y-8609461I-97558J119752D01*
G01*
X9142289Y-11813560D02*
X9142289Y-11944802D01*
X9421554Y-9052068D02*
X9231940Y-9114902D01*
X12992122Y-8609462D02*
G75*
G02*
X12859578Y-8476923I-2J132542D01*
G01*
X12859583Y-8476923D02*
X12859583Y-8398885D01*
X9142289Y-11297846D02*
G75*
G02*
X9142289Y-11813560I36020J-257857D01*
G01*
X21216225Y-9052481D02*
X21125553Y-9337870D01*
X9737625Y-9353309D02*
X9642500Y-9385000D01*
X11773121Y-8389529D02*
G75*
G02*
X11861629Y-8266892I88509J29379D01*
G01*
X18724928Y-8971095D02*
G75*
G02*
X18272108Y-8971095I-226410J0D01*
G01*
X18272108Y-8971095D02*
G75*
G02*
X18724928Y-8971095I226410J0D01*
G01*
X11773121Y-8389529D02*
X11859256Y-8648994D01*
X21708663Y-11940487D02*
X21708663Y-11801257D01*
X15666791Y-12558575D02*
X15666791Y-12747936D01*
X21393964Y-9707707D02*
G75*
G02*
X21167544Y-9707707I-113210J0D01*
G01*
X21167544Y-9707707D02*
G75*
G02*
X21393964Y-9707707I113210J0D01*
G01*
X14982698Y-11211638D02*
G75*
G02*
X14806068Y-11211638I-88315J0D01*
G01*
X14806068Y-11211638D02*
G75*
G02*
X14982698Y-11211638I88315J0D01*
G01*
X9421554Y-9052068D02*
G75*
G02*
X9554031Y-9118512I33016J-99462D01*
G01*
X9676283Y-9708732D02*
G75*
G02*
X9356283Y-9708732I-160000J0D01*
G01*
X9356283Y-9708732D02*
G75*
G02*
X9676283Y-9708732I160000J0D01*
G01*
X9142289Y-9239125D02*
G75*
G02*
X9231941Y-9114905I130891J-5D01*
G01*
X21216225Y-9052481D02*
G75*
G02*
X21305850Y-9005853I68215J-21669D01*
G01*
X16321176Y-8614729D02*
X15150646Y-8614729D01*
X12551631Y-8964978D02*
G75*
G02*
X12051631Y-8964978I-250000J0D01*
G01*
X12051631Y-8964978D02*
G75*
G02*
X12551631Y-8964978I250000J0D01*
G01*
X15666791Y-12747936D02*
X20666039Y-12747936D01*
X9142289Y-11944802D02*
X10156271Y-12747936D01*
X21708663Y-11282092D02*
X21708663Y-9239664D01*
X15130040Y-8612264D02*
G75*
G02*
X15059998Y-8575002I21250J124404D01*
G01*
X18996614Y-8661480D02*
X19077864Y-8405745D01*
D11*
X15130040Y-8612264D02*
X15150646Y-8614729D01*
D10*
X17907513Y-8700174D02*
X17907513Y-8870472D01*
X16674113Y-8961654D02*
X16321176Y-8614729D01*
X9142289Y-9239125D02*
X9142289Y-11297846D01*
X14856271Y-12747936D02*
X15166155Y-12747936D01*
X15166155Y-12747936D02*
X15166155Y-12552955D01*
X21125553Y-9337870D02*
X18996614Y-8661480D01*
X15060000Y-8575000D02*
X13489798Y-8574752D01*
X11456271Y-12747936D02*
X12956271Y-12747936D01*
X12727589Y-8266890D02*
X11861629Y-8266890D01*
X21606014Y-9099921D02*
G75*
G02*
X21708661Y-9239664I-43794J-139739D01*
G01*
X9642500Y-9385000D02*
X9554034Y-9118511D01*
X10156271Y-12747936D02*
X11456271Y-12747936D01*
X18978237Y-8269557D02*
G75*
G02*
X19077865Y-8405745I3J-104533D01*
G01*
X21606014Y-9099921D02*
X21305851Y-9005851D01*
X12727589Y-8266890D02*
G75*
G02*
X12859580Y-8398885I1J-131990D01*
G01*
X11859256Y-8648994D02*
X9737625Y-9353309D01*
X20666039Y-12747936D02*
X21708663Y-11940487D01*
X9393066Y-13069420D02*
X9393066Y-12869420D01*
X9393066Y-12869420D02*
X9440685Y-12869420D01*
X9440685Y-12869420D02*
X9469256Y-12878944D01*
X9469256Y-12878944D02*
X9488304Y-12897991D01*
X9488304Y-12897991D02*
X9497828Y-12917039D01*
X9497828Y-12917039D02*
X9507352Y-12955134D01*
X9507352Y-12955134D02*
X9507352Y-12983705D01*
X9507352Y-12983705D02*
X9497828Y-13021801D01*
X9497828Y-13021801D02*
X9488304Y-13040848D01*
X9488304Y-13040848D02*
X9469256Y-13059896D01*
X9469256Y-13059896D02*
X9440685Y-13069420D01*
X9440685Y-13069420D02*
X9393066Y-13069420D01*
X9593066Y-13069420D02*
X9593066Y-12936086D01*
X9593066Y-12974182D02*
X9602590Y-12955134D01*
X9602590Y-12955134D02*
X9612113Y-12945610D01*
X9612113Y-12945610D02*
X9631161Y-12936086D01*
X9631161Y-12936086D02*
X9650209Y-12936086D01*
X9716875Y-13069420D02*
X9716875Y-12936086D01*
X9716875Y-12869420D02*
X9707352Y-12878944D01*
X9707352Y-12878944D02*
X9716875Y-12888467D01*
X9716875Y-12888467D02*
X9726399Y-12878944D01*
X9726399Y-12878944D02*
X9716875Y-12869420D01*
X9716875Y-12869420D02*
X9716875Y-12888467D01*
X9840685Y-13069420D02*
X9821637Y-13059896D01*
X9821637Y-13059896D02*
X9812113Y-13040848D01*
X9812113Y-13040848D02*
X9812113Y-12869420D01*
X9945447Y-13069420D02*
X9926399Y-13059896D01*
X9926399Y-13059896D02*
X9916875Y-13040848D01*
X9916875Y-13040848D02*
X9916875Y-12869420D01*
X10174018Y-13069420D02*
X10174018Y-12869420D01*
X10174018Y-12869420D02*
X10240685Y-13012277D01*
X10240685Y-13012277D02*
X10307352Y-12869420D01*
X10307352Y-12869420D02*
X10307352Y-13069420D01*
X10488304Y-13069420D02*
X10488304Y-12964658D01*
X10488304Y-12964658D02*
X10478780Y-12945610D01*
X10478780Y-12945610D02*
X10459733Y-12936086D01*
X10459733Y-12936086D02*
X10421637Y-12936086D01*
X10421637Y-12936086D02*
X10402590Y-12945610D01*
X10488304Y-13059896D02*
X10469256Y-13069420D01*
X10469256Y-13069420D02*
X10421637Y-13069420D01*
X10421637Y-13069420D02*
X10402590Y-13059896D01*
X10402590Y-13059896D02*
X10393066Y-13040848D01*
X10393066Y-13040848D02*
X10393066Y-13021801D01*
X10393066Y-13021801D02*
X10402590Y-13002753D01*
X10402590Y-13002753D02*
X10421637Y-12993229D01*
X10421637Y-12993229D02*
X10469256Y-12993229D01*
X10469256Y-12993229D02*
X10488304Y-12983705D01*
X10583542Y-12936086D02*
X10583542Y-13136086D01*
X10583542Y-12945610D02*
X10602590Y-12936086D01*
X10602590Y-12936086D02*
X10640685Y-12936086D01*
X10640685Y-12936086D02*
X10659733Y-12945610D01*
X10659733Y-12945610D02*
X10669256Y-12955134D01*
X10669256Y-12955134D02*
X10678780Y-12974182D01*
X10678780Y-12974182D02*
X10678780Y-13031324D01*
X10678780Y-13031324D02*
X10669256Y-13050372D01*
X10669256Y-13050372D02*
X10659733Y-13059896D01*
X10659733Y-13059896D02*
X10640685Y-13069420D01*
X10640685Y-13069420D02*
X10602590Y-13069420D01*
X10602590Y-13069420D02*
X10583542Y-13059896D01*
X10764494Y-13050372D02*
X10774018Y-13059896D01*
X10774018Y-13059896D02*
X10764494Y-13069420D01*
X10764494Y-13069420D02*
X10754971Y-13059896D01*
X10754971Y-13059896D02*
X10764494Y-13050372D01*
X10764494Y-13050372D02*
X10764494Y-13069420D01*
X10764494Y-12945610D02*
X10774018Y-12955134D01*
X10774018Y-12955134D02*
X10764494Y-12964658D01*
X10764494Y-12964658D02*
X10754971Y-12955134D01*
X10754971Y-12955134D02*
X10764494Y-12945610D01*
X10764494Y-12945610D02*
X10764494Y-12964658D01*
M02*
