G04 #@! TF.GenerationSoftware,KiCad,Pcbnew,8.0.9*
G04 #@! TF.CreationDate,2025-09-16T20:49:19+09:00*
G04 #@! TF.ProjectId,usb_sfc_pad,7573625f-7366-4635-9f70-61642e6b6963,rev?*
G04 #@! TF.SameCoordinates,Original*
G04 #@! TF.FileFunction,Profile,NP*
%FSLAX46Y46*%
G04 Gerber Fmt 4.6, Leading zero omitted, Abs format (unit mm)*
G04 Created by KiCad (PCBNEW 8.0.9) date 2025-09-16 20:49:19*
%MOMM*%
%LPD*%
G01*
G04 APERTURE LIST*
G04 #@! TA.AperFunction,Profile*
%ADD10C,0.200000*%
G04 #@! TD*
G04 #@! TA.AperFunction,Profile*
%ADD11C,0.050000*%
G04 #@! TD*
G04 APERTURE END LIST*
D10*
X151661550Y-125529550D02*
G75*
G02*
X156667871Y-125585750I2502750J-64650D01*
G01*
X133922410Y-86094620D02*
X129921220Y-86094620D01*
X217086630Y-118012570D02*
G75*
G02*
X217086617Y-112821028I-315830J2595770D01*
G01*
X129562710Y-127479360D02*
X148562710Y-127479360D01*
X179075130Y-88704720D02*
G75*
G02*
X178163310Y-89616530I-911830J20D01*
G01*
X178163310Y-89616540D02*
X166741130Y-89616540D01*
X189782360Y-82695570D02*
X183381300Y-82695570D01*
X179075130Y-87001740D02*
G75*
G02*
X183381300Y-82695530I4306170J40D01*
G01*
X134897980Y-85747520D02*
G75*
G02*
X133922410Y-86094607I-975580J1197520D01*
G01*
X91422890Y-118135600D02*
X91422890Y-119448020D01*
X94215540Y-90520680D02*
X92319400Y-91149020D01*
X129921220Y-86094620D02*
G75*
G02*
X128595780Y-84769230I-20J1325420D01*
G01*
X128595830Y-84769230D02*
X128595830Y-83988850D01*
X91422890Y-112978460D02*
G75*
G02*
X91422890Y-118135600I360200J-2578570D01*
G01*
X212162250Y-90524810D02*
X211255530Y-93378700D01*
X97376250Y-93533090D02*
X96425000Y-93850000D01*
X117731210Y-83895290D02*
G75*
G02*
X118616290Y-82668925I885090J293790D01*
G01*
X187249280Y-89710950D02*
G75*
G02*
X182721080Y-89710950I-2264100J0D01*
G01*
X182721080Y-89710950D02*
G75*
G02*
X187249280Y-89710950I2264100J0D01*
G01*
X117731210Y-83895290D02*
X118592560Y-86489940D01*
X217086630Y-119404870D02*
X217086630Y-118012570D01*
X156667910Y-125585750D02*
X156667910Y-127479360D01*
X213939640Y-97077070D02*
G75*
G02*
X211675440Y-97077070I-1132100J0D01*
G01*
X211675440Y-97077070D02*
G75*
G02*
X213939640Y-97077070I1132100J0D01*
G01*
X149826980Y-112116380D02*
G75*
G02*
X148060680Y-112116380I-883150J0D01*
G01*
X148060680Y-112116380D02*
G75*
G02*
X149826980Y-112116380I883150J0D01*
G01*
X94215540Y-90520680D02*
G75*
G02*
X95540313Y-91185119I330160J-994620D01*
G01*
X96762830Y-97087320D02*
G75*
G02*
X93562830Y-97087320I-1600000J0D01*
G01*
X93562830Y-97087320D02*
G75*
G02*
X96762830Y-97087320I1600000J0D01*
G01*
X91422890Y-92391250D02*
G75*
G02*
X92319411Y-91149052I1308910J-50D01*
G01*
X212162250Y-90524810D02*
G75*
G02*
X213058503Y-90058534I682150J-216690D01*
G01*
X163211760Y-86147290D02*
X151506460Y-86147290D01*
X125516310Y-89649780D02*
G75*
G02*
X120516310Y-89649780I-2500000J0D01*
G01*
X120516310Y-89649780D02*
G75*
G02*
X125516310Y-89649780I2500000J0D01*
G01*
X156667910Y-127479360D02*
X206660390Y-127479360D01*
X91422890Y-119448020D02*
X101562710Y-127479360D01*
X217086630Y-112820920D02*
X217086630Y-92396640D01*
X151300400Y-86122640D02*
G75*
G02*
X150599981Y-85750019I212500J1244040D01*
G01*
X189966140Y-86614800D02*
X190778640Y-84057450D01*
D11*
X151300400Y-86122640D02*
X151506460Y-86147290D01*
D10*
X179075130Y-87001740D02*
X179075130Y-88704720D01*
X166741130Y-89616540D02*
X163211760Y-86147290D01*
X91422890Y-92391250D02*
X91422890Y-112978460D01*
X148562710Y-127479360D02*
X151661550Y-127479360D01*
X151661550Y-127479360D02*
X151661550Y-125529550D01*
X211255530Y-93378700D02*
X189966140Y-86614800D01*
X150600000Y-85750000D02*
X134897980Y-85747520D01*
X114562710Y-127479360D02*
X129562710Y-127479360D01*
X127275890Y-82668900D02*
X118616290Y-82668900D01*
X216060140Y-90999210D02*
G75*
G02*
X217086608Y-92396640I-437940J-1397390D01*
G01*
X96425000Y-93850000D02*
X95540340Y-91185110D01*
X101562710Y-127479360D02*
X114562710Y-127479360D01*
X189782370Y-82695570D02*
G75*
G02*
X190778648Y-84057453I30J-1045330D01*
G01*
X216060140Y-90999210D02*
X213058510Y-90058510D01*
X127275890Y-82668900D02*
G75*
G02*
X128595800Y-83988850I10J-1319900D01*
G01*
X118592560Y-86489940D02*
X97376250Y-93533090D01*
X206660390Y-127479360D02*
X217086630Y-119404870D01*
M02*
