%TF.GenerationSoftware,KiCad,Pcbnew,8.0.9*%
%TF.CreationDate,2025-09-17T21:58:45+09:00*%
%TF.ProjectId,usb_sfc_pad,7573625f-7366-4635-9f70-61642e6b6963,rev?*%
%TF.SameCoordinates,Original*%
%TF.FileFunction,Drillmap*%
%TF.FilePolarity,Positive*%
%FSLAX45Y45*%
G04 Gerber Fmt 4.5, Leading zero omitted, Abs format (unit mm)*
G04 Created by KiCad (PCBNEW 8.0.9) date 2025-09-17 21:58:45*
%MOMM*%
%LPD*%
G01*
G04 APERTURE LIST*
%ADD10C,0.200000*%
%ADD11C,0.050000*%
%ADD12C,0.100000*%
G04 APERTURE END LIST*
D10*
X15166155Y-12552955D02*
G75*
G02*
X15666787Y-12558575I250275J-6465D01*
G01*
X13392241Y-8609462D02*
X12992122Y-8609462D01*
X21708663Y-11801257D02*
G75*
G02*
X21708662Y-11282103I-31583J259577D01*
G01*
X12956271Y-12747936D02*
X14856271Y-12747936D01*
X17907513Y-8870472D02*
G75*
G02*
X17816331Y-8961653I-91183J2D01*
G01*
X17816331Y-8961654D02*
X16674113Y-8961654D01*
X18978236Y-8269557D02*
X18338130Y-8269557D01*
X17907513Y-8700174D02*
G75*
G02*
X18338130Y-8269553I430617J4D01*
G01*
X13489798Y-8574752D02*
G75*
G02*
X13392241Y-8609461I-97558J119752D01*
G01*
X9142289Y-11813560D02*
X9142289Y-11944802D01*
X9421554Y-9052068D02*
X9231940Y-9114902D01*
X12992122Y-8609462D02*
G75*
G02*
X12859578Y-8476923I-2J132542D01*
G01*
X12859583Y-8476923D02*
X12859583Y-8398885D01*
X9142289Y-11297846D02*
G75*
G02*
X9142289Y-11813560I36020J-257857D01*
G01*
X21216225Y-9052481D02*
X21125553Y-9337870D01*
X9737625Y-9353309D02*
X9642500Y-9385000D01*
X11773121Y-8389529D02*
G75*
G02*
X11861629Y-8266892I88509J29379D01*
G01*
X18724928Y-8971095D02*
G75*
G02*
X18272108Y-8971095I-226410J0D01*
G01*
X18272108Y-8971095D02*
G75*
G02*
X18724928Y-8971095I226410J0D01*
G01*
X11773121Y-8389529D02*
X11859256Y-8648994D01*
X21708663Y-11940487D02*
X21708663Y-11801257D01*
X15666791Y-12558575D02*
X15666791Y-12747936D01*
X21393964Y-9707707D02*
G75*
G02*
X21167544Y-9707707I-113210J0D01*
G01*
X21167544Y-9707707D02*
G75*
G02*
X21393964Y-9707707I113210J0D01*
G01*
X14982698Y-11211638D02*
G75*
G02*
X14806068Y-11211638I-88315J0D01*
G01*
X14806068Y-11211638D02*
G75*
G02*
X14982698Y-11211638I88315J0D01*
G01*
X9421554Y-9052068D02*
G75*
G02*
X9554031Y-9118512I33016J-99462D01*
G01*
X9676283Y-9708732D02*
G75*
G02*
X9356283Y-9708732I-160000J0D01*
G01*
X9356283Y-9708732D02*
G75*
G02*
X9676283Y-9708732I160000J0D01*
G01*
X9142289Y-9239125D02*
G75*
G02*
X9231941Y-9114905I130891J-5D01*
G01*
X21216225Y-9052481D02*
G75*
G02*
X21305850Y-9005853I68215J-21669D01*
G01*
X16321176Y-8614729D02*
X15150646Y-8614729D01*
X12551631Y-8964978D02*
G75*
G02*
X12051631Y-8964978I-250000J0D01*
G01*
X12051631Y-8964978D02*
G75*
G02*
X12551631Y-8964978I250000J0D01*
G01*
X15666791Y-12747936D02*
X20666039Y-12747936D01*
X9142289Y-11944802D02*
X10156271Y-12747936D01*
X21708663Y-11282092D02*
X21708663Y-9239664D01*
X15130040Y-8612264D02*
G75*
G02*
X15059998Y-8575002I21250J124404D01*
G01*
X18996614Y-8661480D02*
X19077864Y-8405745D01*
D11*
X15130040Y-8612264D02*
X15150646Y-8614729D01*
D10*
X17907513Y-8700174D02*
X17907513Y-8870472D01*
X16674113Y-8961654D02*
X16321176Y-8614729D01*
X9142289Y-9239125D02*
X9142289Y-11297846D01*
X14856271Y-12747936D02*
X15166155Y-12747936D01*
X15166155Y-12747936D02*
X15166155Y-12552955D01*
X21125553Y-9337870D02*
X18996614Y-8661480D01*
X15060000Y-8575000D02*
X13489798Y-8574752D01*
X11456271Y-12747936D02*
X12956271Y-12747936D01*
X12727589Y-8266890D02*
X11861629Y-8266890D01*
X21606014Y-9099921D02*
G75*
G02*
X21708661Y-9239664I-43794J-139739D01*
G01*
X9642500Y-9385000D02*
X9554034Y-9118511D01*
X10156271Y-12747936D02*
X11456271Y-12747936D01*
X18978237Y-8269557D02*
G75*
G02*
X19077865Y-8405745I3J-104533D01*
G01*
X21606014Y-9099921D02*
X21305851Y-9005851D01*
X12727589Y-8266890D02*
G75*
G02*
X12859580Y-8398885I1J-131990D01*
G01*
X11859256Y-8648994D02*
X9737625Y-9353309D01*
X20666039Y-12747936D02*
X21708663Y-11940487D01*
D12*
X10215000Y-11325000D02*
X10245000Y-11355000D01*
X10245000Y-11325000D02*
X10215000Y-11355000D01*
X12675000Y-10945000D02*
X12705000Y-10975000D01*
X12705000Y-10945000D02*
X12675000Y-10975000D01*
X14279000Y-9251000D02*
X14309000Y-9281000D01*
X14309000Y-9251000D02*
X14279000Y-9281000D01*
X14545000Y-11435000D02*
X14575000Y-11465000D01*
X14575000Y-11435000D02*
X14545000Y-11465000D01*
X14615000Y-9315000D02*
X14645000Y-9345000D01*
X14645000Y-9315000D02*
X14615000Y-9345000D01*
X14665000Y-10585000D02*
X14695000Y-10615000D01*
X14695000Y-10585000D02*
X14665000Y-10615000D01*
X14765000Y-12097500D02*
X14795000Y-12127500D01*
X14795000Y-12097500D02*
X14765000Y-12127500D01*
X14785000Y-9745000D02*
X14815000Y-9775000D01*
X14815000Y-9745000D02*
X14785000Y-9775000D01*
X15255000Y-11346029D02*
X15285000Y-11376029D01*
X15285000Y-11346029D02*
X15255000Y-11376029D01*
X15357500Y-11977500D02*
X15387500Y-12007500D01*
X15387500Y-11977500D02*
X15357500Y-12007500D01*
X16005000Y-11765000D02*
X16035000Y-11795000D01*
X16035000Y-11765000D02*
X16005000Y-11795000D01*
X16210000Y-11340000D02*
X16240000Y-11370000D01*
X16240000Y-11340000D02*
X16210000Y-11370000D01*
X16620000Y-11600000D02*
X16650000Y-11630000D01*
X16650000Y-11600000D02*
X16620000Y-11630000D01*
X17062500Y-10677500D02*
X17092500Y-10707500D01*
X17092500Y-10677500D02*
X17062500Y-10707500D01*
X17125000Y-11475000D02*
X17155000Y-11505000D01*
X17155000Y-11475000D02*
X17125000Y-11505000D01*
X17295000Y-11992500D02*
X17325000Y-12022500D01*
X17325000Y-11992500D02*
X17295000Y-12022500D01*
X17297500Y-11385000D02*
X17327500Y-11415000D01*
X17327500Y-11385000D02*
X17297500Y-11415000D01*
X17692500Y-12157500D02*
X17722500Y-12187500D01*
X17722500Y-12157500D02*
X17692500Y-12187500D01*
X18012500Y-12157500D02*
X18042500Y-12187500D01*
X18042500Y-12157500D02*
X18012500Y-12187500D01*
X18322500Y-12157500D02*
X18352500Y-12187500D01*
X18352500Y-12157500D02*
X18322500Y-12187500D01*
X13582000Y-9000000D02*
G75*
G02*
X13482000Y-9000000I-50000J0D01*
G01*
X13482000Y-9000000D02*
G75*
G02*
X13582000Y-9000000I50000J0D01*
G01*
X13836000Y-9000000D02*
G75*
G02*
X13736000Y-9000000I-50000J0D01*
G01*
X13736000Y-9000000D02*
G75*
G02*
X13836000Y-9000000I50000J0D01*
G01*
X14090000Y-9000000D02*
G75*
G02*
X13990000Y-9000000I-50000J0D01*
G01*
X13990000Y-9000000D02*
G75*
G02*
X14090000Y-9000000I50000J0D01*
G01*
X14344000Y-9000000D02*
G75*
G02*
X14244000Y-9000000I-50000J0D01*
G01*
X14244000Y-9000000D02*
G75*
G02*
X14344000Y-9000000I50000J0D01*
G01*
X14598000Y-9000000D02*
G75*
G02*
X14498000Y-9000000I-50000J0D01*
G01*
X14498000Y-9000000D02*
G75*
G02*
X14598000Y-9000000I50000J0D01*
G01*
X14852000Y-9000000D02*
G75*
G02*
X14752000Y-9000000I-50000J0D01*
G01*
X14752000Y-9000000D02*
G75*
G02*
X14852000Y-9000000I50000J0D01*
G01*
D10*
X9393066Y-13069420D02*
X9393066Y-12869420D01*
X9393066Y-12869420D02*
X9440685Y-12869420D01*
X9440685Y-12869420D02*
X9469256Y-12878944D01*
X9469256Y-12878944D02*
X9488304Y-12897991D01*
X9488304Y-12897991D02*
X9497828Y-12917039D01*
X9497828Y-12917039D02*
X9507352Y-12955134D01*
X9507352Y-12955134D02*
X9507352Y-12983705D01*
X9507352Y-12983705D02*
X9497828Y-13021801D01*
X9497828Y-13021801D02*
X9488304Y-13040848D01*
X9488304Y-13040848D02*
X9469256Y-13059896D01*
X9469256Y-13059896D02*
X9440685Y-13069420D01*
X9440685Y-13069420D02*
X9393066Y-13069420D01*
X9593066Y-13069420D02*
X9593066Y-12936086D01*
X9593066Y-12974182D02*
X9602590Y-12955134D01*
X9602590Y-12955134D02*
X9612113Y-12945610D01*
X9612113Y-12945610D02*
X9631161Y-12936086D01*
X9631161Y-12936086D02*
X9650209Y-12936086D01*
X9716875Y-13069420D02*
X9716875Y-12936086D01*
X9716875Y-12869420D02*
X9707352Y-12878944D01*
X9707352Y-12878944D02*
X9716875Y-12888467D01*
X9716875Y-12888467D02*
X9726399Y-12878944D01*
X9726399Y-12878944D02*
X9716875Y-12869420D01*
X9716875Y-12869420D02*
X9716875Y-12888467D01*
X9840685Y-13069420D02*
X9821637Y-13059896D01*
X9821637Y-13059896D02*
X9812113Y-13040848D01*
X9812113Y-13040848D02*
X9812113Y-12869420D01*
X9945447Y-13069420D02*
X9926399Y-13059896D01*
X9926399Y-13059896D02*
X9916875Y-13040848D01*
X9916875Y-13040848D02*
X9916875Y-12869420D01*
X10174018Y-13069420D02*
X10174018Y-12869420D01*
X10174018Y-12869420D02*
X10240685Y-13012277D01*
X10240685Y-13012277D02*
X10307352Y-12869420D01*
X10307352Y-12869420D02*
X10307352Y-13069420D01*
X10488304Y-13069420D02*
X10488304Y-12964658D01*
X10488304Y-12964658D02*
X10478780Y-12945610D01*
X10478780Y-12945610D02*
X10459733Y-12936086D01*
X10459733Y-12936086D02*
X10421637Y-12936086D01*
X10421637Y-12936086D02*
X10402590Y-12945610D01*
X10488304Y-13059896D02*
X10469256Y-13069420D01*
X10469256Y-13069420D02*
X10421637Y-13069420D01*
X10421637Y-13069420D02*
X10402590Y-13059896D01*
X10402590Y-13059896D02*
X10393066Y-13040848D01*
X10393066Y-13040848D02*
X10393066Y-13021801D01*
X10393066Y-13021801D02*
X10402590Y-13002753D01*
X10402590Y-13002753D02*
X10421637Y-12993229D01*
X10421637Y-12993229D02*
X10469256Y-12993229D01*
X10469256Y-12993229D02*
X10488304Y-12983705D01*
X10583542Y-12936086D02*
X10583542Y-13136086D01*
X10583542Y-12945610D02*
X10602590Y-12936086D01*
X10602590Y-12936086D02*
X10640685Y-12936086D01*
X10640685Y-12936086D02*
X10659733Y-12945610D01*
X10659733Y-12945610D02*
X10669256Y-12955134D01*
X10669256Y-12955134D02*
X10678780Y-12974182D01*
X10678780Y-12974182D02*
X10678780Y-13031324D01*
X10678780Y-13031324D02*
X10669256Y-13050372D01*
X10669256Y-13050372D02*
X10659733Y-13059896D01*
X10659733Y-13059896D02*
X10640685Y-13069420D01*
X10640685Y-13069420D02*
X10602590Y-13069420D01*
X10602590Y-13069420D02*
X10583542Y-13059896D01*
X10764494Y-13050372D02*
X10774018Y-13059896D01*
X10774018Y-13059896D02*
X10764494Y-13069420D01*
X10764494Y-13069420D02*
X10754971Y-13059896D01*
X10754971Y-13059896D02*
X10764494Y-13050372D01*
X10764494Y-13050372D02*
X10764494Y-13069420D01*
X10764494Y-12945610D02*
X10774018Y-12955134D01*
X10774018Y-12955134D02*
X10764494Y-12964658D01*
X10764494Y-12964658D02*
X10754971Y-12955134D01*
X10754971Y-12955134D02*
X10764494Y-12945610D01*
X10764494Y-12945610D02*
X10764494Y-12964658D01*
D12*
X9102289Y-13382936D02*
X9132289Y-13412936D01*
X9132289Y-13382936D02*
X9102289Y-13412936D01*
D10*
X9431161Y-13289420D02*
X9450209Y-13289420D01*
X9450209Y-13289420D02*
X9469256Y-13298944D01*
X9469256Y-13298944D02*
X9478780Y-13308467D01*
X9478780Y-13308467D02*
X9488304Y-13327515D01*
X9488304Y-13327515D02*
X9497828Y-13365610D01*
X9497828Y-13365610D02*
X9497828Y-13413229D01*
X9497828Y-13413229D02*
X9488304Y-13451324D01*
X9488304Y-13451324D02*
X9478780Y-13470372D01*
X9478780Y-13470372D02*
X9469256Y-13479896D01*
X9469256Y-13479896D02*
X9450209Y-13489420D01*
X9450209Y-13489420D02*
X9431161Y-13489420D01*
X9431161Y-13489420D02*
X9412113Y-13479896D01*
X9412113Y-13479896D02*
X9402590Y-13470372D01*
X9402590Y-13470372D02*
X9393066Y-13451324D01*
X9393066Y-13451324D02*
X9383542Y-13413229D01*
X9383542Y-13413229D02*
X9383542Y-13365610D01*
X9383542Y-13365610D02*
X9393066Y-13327515D01*
X9393066Y-13327515D02*
X9402590Y-13308467D01*
X9402590Y-13308467D02*
X9412113Y-13298944D01*
X9412113Y-13298944D02*
X9431161Y-13289420D01*
X9583542Y-13470372D02*
X9593066Y-13479896D01*
X9593066Y-13479896D02*
X9583542Y-13489420D01*
X9583542Y-13489420D02*
X9574018Y-13479896D01*
X9574018Y-13479896D02*
X9583542Y-13470372D01*
X9583542Y-13470372D02*
X9583542Y-13489420D01*
X9659733Y-13289420D02*
X9783542Y-13289420D01*
X9783542Y-13289420D02*
X9716875Y-13365610D01*
X9716875Y-13365610D02*
X9745447Y-13365610D01*
X9745447Y-13365610D02*
X9764494Y-13375134D01*
X9764494Y-13375134D02*
X9774018Y-13384658D01*
X9774018Y-13384658D02*
X9783542Y-13403705D01*
X9783542Y-13403705D02*
X9783542Y-13451324D01*
X9783542Y-13451324D02*
X9774018Y-13470372D01*
X9774018Y-13470372D02*
X9764494Y-13479896D01*
X9764494Y-13479896D02*
X9745447Y-13489420D01*
X9745447Y-13489420D02*
X9688304Y-13489420D01*
X9688304Y-13489420D02*
X9669256Y-13479896D01*
X9669256Y-13479896D02*
X9659733Y-13470372D01*
X9907352Y-13289420D02*
X9926399Y-13289420D01*
X9926399Y-13289420D02*
X9945447Y-13298944D01*
X9945447Y-13298944D02*
X9954971Y-13308467D01*
X9954971Y-13308467D02*
X9964494Y-13327515D01*
X9964494Y-13327515D02*
X9974018Y-13365610D01*
X9974018Y-13365610D02*
X9974018Y-13413229D01*
X9974018Y-13413229D02*
X9964494Y-13451324D01*
X9964494Y-13451324D02*
X9954971Y-13470372D01*
X9954971Y-13470372D02*
X9945447Y-13479896D01*
X9945447Y-13479896D02*
X9926399Y-13489420D01*
X9926399Y-13489420D02*
X9907352Y-13489420D01*
X9907352Y-13489420D02*
X9888304Y-13479896D01*
X9888304Y-13479896D02*
X9878780Y-13470372D01*
X9878780Y-13470372D02*
X9869256Y-13451324D01*
X9869256Y-13451324D02*
X9859733Y-13413229D01*
X9859733Y-13413229D02*
X9859733Y-13365610D01*
X9859733Y-13365610D02*
X9869256Y-13327515D01*
X9869256Y-13327515D02*
X9878780Y-13308467D01*
X9878780Y-13308467D02*
X9888304Y-13298944D01*
X9888304Y-13298944D02*
X9907352Y-13289420D01*
X10097828Y-13289420D02*
X10116875Y-13289420D01*
X10116875Y-13289420D02*
X10135923Y-13298944D01*
X10135923Y-13298944D02*
X10145447Y-13308467D01*
X10145447Y-13308467D02*
X10154971Y-13327515D01*
X10154971Y-13327515D02*
X10164494Y-13365610D01*
X10164494Y-13365610D02*
X10164494Y-13413229D01*
X10164494Y-13413229D02*
X10154971Y-13451324D01*
X10154971Y-13451324D02*
X10145447Y-13470372D01*
X10145447Y-13470372D02*
X10135923Y-13479896D01*
X10135923Y-13479896D02*
X10116875Y-13489420D01*
X10116875Y-13489420D02*
X10097828Y-13489420D01*
X10097828Y-13489420D02*
X10078780Y-13479896D01*
X10078780Y-13479896D02*
X10069256Y-13470372D01*
X10069256Y-13470372D02*
X10059733Y-13451324D01*
X10059733Y-13451324D02*
X10050209Y-13413229D01*
X10050209Y-13413229D02*
X10050209Y-13365610D01*
X10050209Y-13365610D02*
X10059733Y-13327515D01*
X10059733Y-13327515D02*
X10069256Y-13308467D01*
X10069256Y-13308467D02*
X10078780Y-13298944D01*
X10078780Y-13298944D02*
X10097828Y-13289420D01*
X10250209Y-13489420D02*
X10250209Y-13356086D01*
X10250209Y-13375134D02*
X10259733Y-13365610D01*
X10259733Y-13365610D02*
X10278780Y-13356086D01*
X10278780Y-13356086D02*
X10307352Y-13356086D01*
X10307352Y-13356086D02*
X10326399Y-13365610D01*
X10326399Y-13365610D02*
X10335923Y-13384658D01*
X10335923Y-13384658D02*
X10335923Y-13489420D01*
X10335923Y-13384658D02*
X10345447Y-13365610D01*
X10345447Y-13365610D02*
X10364494Y-13356086D01*
X10364494Y-13356086D02*
X10393066Y-13356086D01*
X10393066Y-13356086D02*
X10412114Y-13365610D01*
X10412114Y-13365610D02*
X10421637Y-13384658D01*
X10421637Y-13384658D02*
X10421637Y-13489420D01*
X10516875Y-13489420D02*
X10516875Y-13356086D01*
X10516875Y-13375134D02*
X10526399Y-13365610D01*
X10526399Y-13365610D02*
X10545447Y-13356086D01*
X10545447Y-13356086D02*
X10574018Y-13356086D01*
X10574018Y-13356086D02*
X10593066Y-13365610D01*
X10593066Y-13365610D02*
X10602590Y-13384658D01*
X10602590Y-13384658D02*
X10602590Y-13489420D01*
X10602590Y-13384658D02*
X10612114Y-13365610D01*
X10612114Y-13365610D02*
X10631161Y-13356086D01*
X10631161Y-13356086D02*
X10659733Y-13356086D01*
X10659733Y-13356086D02*
X10678780Y-13365610D01*
X10678780Y-13365610D02*
X10688304Y-13384658D01*
X10688304Y-13384658D02*
X10688304Y-13489420D01*
X11078780Y-13279896D02*
X10907352Y-13537039D01*
X11335923Y-13289420D02*
X11354971Y-13289420D01*
X11354971Y-13289420D02*
X11374018Y-13298944D01*
X11374018Y-13298944D02*
X11383542Y-13308467D01*
X11383542Y-13308467D02*
X11393066Y-13327515D01*
X11393066Y-13327515D02*
X11402590Y-13365610D01*
X11402590Y-13365610D02*
X11402590Y-13413229D01*
X11402590Y-13413229D02*
X11393066Y-13451324D01*
X11393066Y-13451324D02*
X11383542Y-13470372D01*
X11383542Y-13470372D02*
X11374018Y-13479896D01*
X11374018Y-13479896D02*
X11354971Y-13489420D01*
X11354971Y-13489420D02*
X11335923Y-13489420D01*
X11335923Y-13489420D02*
X11316875Y-13479896D01*
X11316875Y-13479896D02*
X11307352Y-13470372D01*
X11307352Y-13470372D02*
X11297828Y-13451324D01*
X11297828Y-13451324D02*
X11288304Y-13413229D01*
X11288304Y-13413229D02*
X11288304Y-13365610D01*
X11288304Y-13365610D02*
X11297828Y-13327515D01*
X11297828Y-13327515D02*
X11307352Y-13308467D01*
X11307352Y-13308467D02*
X11316875Y-13298944D01*
X11316875Y-13298944D02*
X11335923Y-13289420D01*
X11488304Y-13470372D02*
X11497828Y-13479896D01*
X11497828Y-13479896D02*
X11488304Y-13489420D01*
X11488304Y-13489420D02*
X11478780Y-13479896D01*
X11478780Y-13479896D02*
X11488304Y-13470372D01*
X11488304Y-13470372D02*
X11488304Y-13489420D01*
X11621637Y-13289420D02*
X11640685Y-13289420D01*
X11640685Y-13289420D02*
X11659733Y-13298944D01*
X11659733Y-13298944D02*
X11669256Y-13308467D01*
X11669256Y-13308467D02*
X11678780Y-13327515D01*
X11678780Y-13327515D02*
X11688304Y-13365610D01*
X11688304Y-13365610D02*
X11688304Y-13413229D01*
X11688304Y-13413229D02*
X11678780Y-13451324D01*
X11678780Y-13451324D02*
X11669256Y-13470372D01*
X11669256Y-13470372D02*
X11659733Y-13479896D01*
X11659733Y-13479896D02*
X11640685Y-13489420D01*
X11640685Y-13489420D02*
X11621637Y-13489420D01*
X11621637Y-13489420D02*
X11602590Y-13479896D01*
X11602590Y-13479896D02*
X11593066Y-13470372D01*
X11593066Y-13470372D02*
X11583542Y-13451324D01*
X11583542Y-13451324D02*
X11574018Y-13413229D01*
X11574018Y-13413229D02*
X11574018Y-13365610D01*
X11574018Y-13365610D02*
X11583542Y-13327515D01*
X11583542Y-13327515D02*
X11593066Y-13308467D01*
X11593066Y-13308467D02*
X11602590Y-13298944D01*
X11602590Y-13298944D02*
X11621637Y-13289420D01*
X11878780Y-13489420D02*
X11764495Y-13489420D01*
X11821637Y-13489420D02*
X11821637Y-13289420D01*
X11821637Y-13289420D02*
X11802590Y-13317991D01*
X11802590Y-13317991D02*
X11783542Y-13337039D01*
X11783542Y-13337039D02*
X11764495Y-13346563D01*
X12069256Y-13489420D02*
X11954971Y-13489420D01*
X12012114Y-13489420D02*
X12012114Y-13289420D01*
X12012114Y-13289420D02*
X11993066Y-13317991D01*
X11993066Y-13317991D02*
X11974018Y-13337039D01*
X11974018Y-13337039D02*
X11954971Y-13346563D01*
X12183542Y-13375134D02*
X12164495Y-13365610D01*
X12164495Y-13365610D02*
X12154971Y-13356086D01*
X12154971Y-13356086D02*
X12145447Y-13337039D01*
X12145447Y-13337039D02*
X12145447Y-13327515D01*
X12145447Y-13327515D02*
X12154971Y-13308467D01*
X12154971Y-13308467D02*
X12164495Y-13298944D01*
X12164495Y-13298944D02*
X12183542Y-13289420D01*
X12183542Y-13289420D02*
X12221637Y-13289420D01*
X12221637Y-13289420D02*
X12240685Y-13298944D01*
X12240685Y-13298944D02*
X12250209Y-13308467D01*
X12250209Y-13308467D02*
X12259733Y-13327515D01*
X12259733Y-13327515D02*
X12259733Y-13337039D01*
X12259733Y-13337039D02*
X12250209Y-13356086D01*
X12250209Y-13356086D02*
X12240685Y-13365610D01*
X12240685Y-13365610D02*
X12221637Y-13375134D01*
X12221637Y-13375134D02*
X12183542Y-13375134D01*
X12183542Y-13375134D02*
X12164495Y-13384658D01*
X12164495Y-13384658D02*
X12154971Y-13394182D01*
X12154971Y-13394182D02*
X12145447Y-13413229D01*
X12145447Y-13413229D02*
X12145447Y-13451324D01*
X12145447Y-13451324D02*
X12154971Y-13470372D01*
X12154971Y-13470372D02*
X12164495Y-13479896D01*
X12164495Y-13479896D02*
X12183542Y-13489420D01*
X12183542Y-13489420D02*
X12221637Y-13489420D01*
X12221637Y-13489420D02*
X12240685Y-13479896D01*
X12240685Y-13479896D02*
X12250209Y-13470372D01*
X12250209Y-13470372D02*
X12259733Y-13451324D01*
X12259733Y-13451324D02*
X12259733Y-13413229D01*
X12259733Y-13413229D02*
X12250209Y-13394182D01*
X12250209Y-13394182D02*
X12240685Y-13384658D01*
X12240685Y-13384658D02*
X12221637Y-13375134D01*
X12335923Y-13289420D02*
X12335923Y-13327515D01*
X12412114Y-13289420D02*
X12412114Y-13327515D01*
X12707352Y-13565610D02*
X12697828Y-13556086D01*
X12697828Y-13556086D02*
X12678780Y-13527515D01*
X12678780Y-13527515D02*
X12669257Y-13508467D01*
X12669257Y-13508467D02*
X12659733Y-13479896D01*
X12659733Y-13479896D02*
X12650209Y-13432277D01*
X12650209Y-13432277D02*
X12650209Y-13394182D01*
X12650209Y-13394182D02*
X12659733Y-13346563D01*
X12659733Y-13346563D02*
X12669257Y-13317991D01*
X12669257Y-13317991D02*
X12678780Y-13298944D01*
X12678780Y-13298944D02*
X12697828Y-13270372D01*
X12697828Y-13270372D02*
X12707352Y-13260848D01*
X12774018Y-13308467D02*
X12783542Y-13298944D01*
X12783542Y-13298944D02*
X12802590Y-13289420D01*
X12802590Y-13289420D02*
X12850209Y-13289420D01*
X12850209Y-13289420D02*
X12869257Y-13298944D01*
X12869257Y-13298944D02*
X12878780Y-13308467D01*
X12878780Y-13308467D02*
X12888304Y-13327515D01*
X12888304Y-13327515D02*
X12888304Y-13346563D01*
X12888304Y-13346563D02*
X12878780Y-13375134D01*
X12878780Y-13375134D02*
X12764495Y-13489420D01*
X12764495Y-13489420D02*
X12888304Y-13489420D01*
X13012114Y-13289420D02*
X13031161Y-13289420D01*
X13031161Y-13289420D02*
X13050209Y-13298944D01*
X13050209Y-13298944D02*
X13059733Y-13308467D01*
X13059733Y-13308467D02*
X13069257Y-13327515D01*
X13069257Y-13327515D02*
X13078780Y-13365610D01*
X13078780Y-13365610D02*
X13078780Y-13413229D01*
X13078780Y-13413229D02*
X13069257Y-13451324D01*
X13069257Y-13451324D02*
X13059733Y-13470372D01*
X13059733Y-13470372D02*
X13050209Y-13479896D01*
X13050209Y-13479896D02*
X13031161Y-13489420D01*
X13031161Y-13489420D02*
X13012114Y-13489420D01*
X13012114Y-13489420D02*
X12993066Y-13479896D01*
X12993066Y-13479896D02*
X12983542Y-13470372D01*
X12983542Y-13470372D02*
X12974018Y-13451324D01*
X12974018Y-13451324D02*
X12964495Y-13413229D01*
X12964495Y-13413229D02*
X12964495Y-13365610D01*
X12964495Y-13365610D02*
X12974018Y-13327515D01*
X12974018Y-13327515D02*
X12983542Y-13308467D01*
X12983542Y-13308467D02*
X12993066Y-13298944D01*
X12993066Y-13298944D02*
X13012114Y-13289420D01*
X13316876Y-13489420D02*
X13316876Y-13289420D01*
X13402590Y-13489420D02*
X13402590Y-13384658D01*
X13402590Y-13384658D02*
X13393066Y-13365610D01*
X13393066Y-13365610D02*
X13374019Y-13356086D01*
X13374019Y-13356086D02*
X13345447Y-13356086D01*
X13345447Y-13356086D02*
X13326399Y-13365610D01*
X13326399Y-13365610D02*
X13316876Y-13375134D01*
X13526399Y-13489420D02*
X13507352Y-13479896D01*
X13507352Y-13479896D02*
X13497828Y-13470372D01*
X13497828Y-13470372D02*
X13488304Y-13451324D01*
X13488304Y-13451324D02*
X13488304Y-13394182D01*
X13488304Y-13394182D02*
X13497828Y-13375134D01*
X13497828Y-13375134D02*
X13507352Y-13365610D01*
X13507352Y-13365610D02*
X13526399Y-13356086D01*
X13526399Y-13356086D02*
X13554971Y-13356086D01*
X13554971Y-13356086D02*
X13574019Y-13365610D01*
X13574019Y-13365610D02*
X13583542Y-13375134D01*
X13583542Y-13375134D02*
X13593066Y-13394182D01*
X13593066Y-13394182D02*
X13593066Y-13451324D01*
X13593066Y-13451324D02*
X13583542Y-13470372D01*
X13583542Y-13470372D02*
X13574019Y-13479896D01*
X13574019Y-13479896D02*
X13554971Y-13489420D01*
X13554971Y-13489420D02*
X13526399Y-13489420D01*
X13707352Y-13489420D02*
X13688304Y-13479896D01*
X13688304Y-13479896D02*
X13678780Y-13460848D01*
X13678780Y-13460848D02*
X13678780Y-13289420D01*
X13859733Y-13479896D02*
X13840685Y-13489420D01*
X13840685Y-13489420D02*
X13802590Y-13489420D01*
X13802590Y-13489420D02*
X13783542Y-13479896D01*
X13783542Y-13479896D02*
X13774019Y-13460848D01*
X13774019Y-13460848D02*
X13774019Y-13384658D01*
X13774019Y-13384658D02*
X13783542Y-13365610D01*
X13783542Y-13365610D02*
X13802590Y-13356086D01*
X13802590Y-13356086D02*
X13840685Y-13356086D01*
X13840685Y-13356086D02*
X13859733Y-13365610D01*
X13859733Y-13365610D02*
X13869257Y-13384658D01*
X13869257Y-13384658D02*
X13869257Y-13403705D01*
X13869257Y-13403705D02*
X13774019Y-13422753D01*
X13945447Y-13479896D02*
X13964495Y-13489420D01*
X13964495Y-13489420D02*
X14002590Y-13489420D01*
X14002590Y-13489420D02*
X14021638Y-13479896D01*
X14021638Y-13479896D02*
X14031161Y-13460848D01*
X14031161Y-13460848D02*
X14031161Y-13451324D01*
X14031161Y-13451324D02*
X14021638Y-13432277D01*
X14021638Y-13432277D02*
X14002590Y-13422753D01*
X14002590Y-13422753D02*
X13974019Y-13422753D01*
X13974019Y-13422753D02*
X13954971Y-13413229D01*
X13954971Y-13413229D02*
X13945447Y-13394182D01*
X13945447Y-13394182D02*
X13945447Y-13384658D01*
X13945447Y-13384658D02*
X13954971Y-13365610D01*
X13954971Y-13365610D02*
X13974019Y-13356086D01*
X13974019Y-13356086D02*
X14002590Y-13356086D01*
X14002590Y-13356086D02*
X14021638Y-13365610D01*
X14097828Y-13565610D02*
X14107352Y-13556086D01*
X14107352Y-13556086D02*
X14126400Y-13527515D01*
X14126400Y-13527515D02*
X14135923Y-13508467D01*
X14135923Y-13508467D02*
X14145447Y-13479896D01*
X14145447Y-13479896D02*
X14154971Y-13432277D01*
X14154971Y-13432277D02*
X14154971Y-13394182D01*
X14154971Y-13394182D02*
X14145447Y-13346563D01*
X14145447Y-13346563D02*
X14135923Y-13317991D01*
X14135923Y-13317991D02*
X14126400Y-13298944D01*
X14126400Y-13298944D02*
X14107352Y-13270372D01*
X14107352Y-13270372D02*
X14097828Y-13260848D01*
D12*
X9132289Y-13661936D02*
G75*
G02*
X9032289Y-13661936I-50000J0D01*
G01*
X9032289Y-13661936D02*
G75*
G02*
X9132289Y-13661936I50000J0D01*
G01*
D10*
X9497828Y-13753420D02*
X9383542Y-13753420D01*
X9440685Y-13753420D02*
X9440685Y-13553420D01*
X9440685Y-13553420D02*
X9421637Y-13581991D01*
X9421637Y-13581991D02*
X9402590Y-13601039D01*
X9402590Y-13601039D02*
X9383542Y-13610563D01*
X9583542Y-13734372D02*
X9593066Y-13743896D01*
X9593066Y-13743896D02*
X9583542Y-13753420D01*
X9583542Y-13753420D02*
X9574018Y-13743896D01*
X9574018Y-13743896D02*
X9583542Y-13734372D01*
X9583542Y-13734372D02*
X9583542Y-13753420D01*
X9716875Y-13553420D02*
X9735923Y-13553420D01*
X9735923Y-13553420D02*
X9754971Y-13562944D01*
X9754971Y-13562944D02*
X9764494Y-13572467D01*
X9764494Y-13572467D02*
X9774018Y-13591515D01*
X9774018Y-13591515D02*
X9783542Y-13629610D01*
X9783542Y-13629610D02*
X9783542Y-13677229D01*
X9783542Y-13677229D02*
X9774018Y-13715324D01*
X9774018Y-13715324D02*
X9764494Y-13734372D01*
X9764494Y-13734372D02*
X9754971Y-13743896D01*
X9754971Y-13743896D02*
X9735923Y-13753420D01*
X9735923Y-13753420D02*
X9716875Y-13753420D01*
X9716875Y-13753420D02*
X9697828Y-13743896D01*
X9697828Y-13743896D02*
X9688304Y-13734372D01*
X9688304Y-13734372D02*
X9678780Y-13715324D01*
X9678780Y-13715324D02*
X9669256Y-13677229D01*
X9669256Y-13677229D02*
X9669256Y-13629610D01*
X9669256Y-13629610D02*
X9678780Y-13591515D01*
X9678780Y-13591515D02*
X9688304Y-13572467D01*
X9688304Y-13572467D02*
X9697828Y-13562944D01*
X9697828Y-13562944D02*
X9716875Y-13553420D01*
X9907352Y-13553420D02*
X9926399Y-13553420D01*
X9926399Y-13553420D02*
X9945447Y-13562944D01*
X9945447Y-13562944D02*
X9954971Y-13572467D01*
X9954971Y-13572467D02*
X9964494Y-13591515D01*
X9964494Y-13591515D02*
X9974018Y-13629610D01*
X9974018Y-13629610D02*
X9974018Y-13677229D01*
X9974018Y-13677229D02*
X9964494Y-13715324D01*
X9964494Y-13715324D02*
X9954971Y-13734372D01*
X9954971Y-13734372D02*
X9945447Y-13743896D01*
X9945447Y-13743896D02*
X9926399Y-13753420D01*
X9926399Y-13753420D02*
X9907352Y-13753420D01*
X9907352Y-13753420D02*
X9888304Y-13743896D01*
X9888304Y-13743896D02*
X9878780Y-13734372D01*
X9878780Y-13734372D02*
X9869256Y-13715324D01*
X9869256Y-13715324D02*
X9859733Y-13677229D01*
X9859733Y-13677229D02*
X9859733Y-13629610D01*
X9859733Y-13629610D02*
X9869256Y-13591515D01*
X9869256Y-13591515D02*
X9878780Y-13572467D01*
X9878780Y-13572467D02*
X9888304Y-13562944D01*
X9888304Y-13562944D02*
X9907352Y-13553420D01*
X10097828Y-13553420D02*
X10116875Y-13553420D01*
X10116875Y-13553420D02*
X10135923Y-13562944D01*
X10135923Y-13562944D02*
X10145447Y-13572467D01*
X10145447Y-13572467D02*
X10154971Y-13591515D01*
X10154971Y-13591515D02*
X10164494Y-13629610D01*
X10164494Y-13629610D02*
X10164494Y-13677229D01*
X10164494Y-13677229D02*
X10154971Y-13715324D01*
X10154971Y-13715324D02*
X10145447Y-13734372D01*
X10145447Y-13734372D02*
X10135923Y-13743896D01*
X10135923Y-13743896D02*
X10116875Y-13753420D01*
X10116875Y-13753420D02*
X10097828Y-13753420D01*
X10097828Y-13753420D02*
X10078780Y-13743896D01*
X10078780Y-13743896D02*
X10069256Y-13734372D01*
X10069256Y-13734372D02*
X10059733Y-13715324D01*
X10059733Y-13715324D02*
X10050209Y-13677229D01*
X10050209Y-13677229D02*
X10050209Y-13629610D01*
X10050209Y-13629610D02*
X10059733Y-13591515D01*
X10059733Y-13591515D02*
X10069256Y-13572467D01*
X10069256Y-13572467D02*
X10078780Y-13562944D01*
X10078780Y-13562944D02*
X10097828Y-13553420D01*
X10250209Y-13753420D02*
X10250209Y-13620086D01*
X10250209Y-13639134D02*
X10259733Y-13629610D01*
X10259733Y-13629610D02*
X10278780Y-13620086D01*
X10278780Y-13620086D02*
X10307352Y-13620086D01*
X10307352Y-13620086D02*
X10326399Y-13629610D01*
X10326399Y-13629610D02*
X10335923Y-13648658D01*
X10335923Y-13648658D02*
X10335923Y-13753420D01*
X10335923Y-13648658D02*
X10345447Y-13629610D01*
X10345447Y-13629610D02*
X10364494Y-13620086D01*
X10364494Y-13620086D02*
X10393066Y-13620086D01*
X10393066Y-13620086D02*
X10412114Y-13629610D01*
X10412114Y-13629610D02*
X10421637Y-13648658D01*
X10421637Y-13648658D02*
X10421637Y-13753420D01*
X10516875Y-13753420D02*
X10516875Y-13620086D01*
X10516875Y-13639134D02*
X10526399Y-13629610D01*
X10526399Y-13629610D02*
X10545447Y-13620086D01*
X10545447Y-13620086D02*
X10574018Y-13620086D01*
X10574018Y-13620086D02*
X10593066Y-13629610D01*
X10593066Y-13629610D02*
X10602590Y-13648658D01*
X10602590Y-13648658D02*
X10602590Y-13753420D01*
X10602590Y-13648658D02*
X10612114Y-13629610D01*
X10612114Y-13629610D02*
X10631161Y-13620086D01*
X10631161Y-13620086D02*
X10659733Y-13620086D01*
X10659733Y-13620086D02*
X10678780Y-13629610D01*
X10678780Y-13629610D02*
X10688304Y-13648658D01*
X10688304Y-13648658D02*
X10688304Y-13753420D01*
X11078780Y-13543896D02*
X10907352Y-13801039D01*
X11335923Y-13553420D02*
X11354971Y-13553420D01*
X11354971Y-13553420D02*
X11374018Y-13562944D01*
X11374018Y-13562944D02*
X11383542Y-13572467D01*
X11383542Y-13572467D02*
X11393066Y-13591515D01*
X11393066Y-13591515D02*
X11402590Y-13629610D01*
X11402590Y-13629610D02*
X11402590Y-13677229D01*
X11402590Y-13677229D02*
X11393066Y-13715324D01*
X11393066Y-13715324D02*
X11383542Y-13734372D01*
X11383542Y-13734372D02*
X11374018Y-13743896D01*
X11374018Y-13743896D02*
X11354971Y-13753420D01*
X11354971Y-13753420D02*
X11335923Y-13753420D01*
X11335923Y-13753420D02*
X11316875Y-13743896D01*
X11316875Y-13743896D02*
X11307352Y-13734372D01*
X11307352Y-13734372D02*
X11297828Y-13715324D01*
X11297828Y-13715324D02*
X11288304Y-13677229D01*
X11288304Y-13677229D02*
X11288304Y-13629610D01*
X11288304Y-13629610D02*
X11297828Y-13591515D01*
X11297828Y-13591515D02*
X11307352Y-13572467D01*
X11307352Y-13572467D02*
X11316875Y-13562944D01*
X11316875Y-13562944D02*
X11335923Y-13553420D01*
X11488304Y-13734372D02*
X11497828Y-13743896D01*
X11497828Y-13743896D02*
X11488304Y-13753420D01*
X11488304Y-13753420D02*
X11478780Y-13743896D01*
X11478780Y-13743896D02*
X11488304Y-13734372D01*
X11488304Y-13734372D02*
X11488304Y-13753420D01*
X11621637Y-13553420D02*
X11640685Y-13553420D01*
X11640685Y-13553420D02*
X11659733Y-13562944D01*
X11659733Y-13562944D02*
X11669256Y-13572467D01*
X11669256Y-13572467D02*
X11678780Y-13591515D01*
X11678780Y-13591515D02*
X11688304Y-13629610D01*
X11688304Y-13629610D02*
X11688304Y-13677229D01*
X11688304Y-13677229D02*
X11678780Y-13715324D01*
X11678780Y-13715324D02*
X11669256Y-13734372D01*
X11669256Y-13734372D02*
X11659733Y-13743896D01*
X11659733Y-13743896D02*
X11640685Y-13753420D01*
X11640685Y-13753420D02*
X11621637Y-13753420D01*
X11621637Y-13753420D02*
X11602590Y-13743896D01*
X11602590Y-13743896D02*
X11593066Y-13734372D01*
X11593066Y-13734372D02*
X11583542Y-13715324D01*
X11583542Y-13715324D02*
X11574018Y-13677229D01*
X11574018Y-13677229D02*
X11574018Y-13629610D01*
X11574018Y-13629610D02*
X11583542Y-13591515D01*
X11583542Y-13591515D02*
X11593066Y-13572467D01*
X11593066Y-13572467D02*
X11602590Y-13562944D01*
X11602590Y-13562944D02*
X11621637Y-13553420D01*
X11754971Y-13553420D02*
X11878780Y-13553420D01*
X11878780Y-13553420D02*
X11812114Y-13629610D01*
X11812114Y-13629610D02*
X11840685Y-13629610D01*
X11840685Y-13629610D02*
X11859733Y-13639134D01*
X11859733Y-13639134D02*
X11869256Y-13648658D01*
X11869256Y-13648658D02*
X11878780Y-13667705D01*
X11878780Y-13667705D02*
X11878780Y-13715324D01*
X11878780Y-13715324D02*
X11869256Y-13734372D01*
X11869256Y-13734372D02*
X11859733Y-13743896D01*
X11859733Y-13743896D02*
X11840685Y-13753420D01*
X11840685Y-13753420D02*
X11783542Y-13753420D01*
X11783542Y-13753420D02*
X11764495Y-13743896D01*
X11764495Y-13743896D02*
X11754971Y-13734372D01*
X11974018Y-13753420D02*
X12012114Y-13753420D01*
X12012114Y-13753420D02*
X12031161Y-13743896D01*
X12031161Y-13743896D02*
X12040685Y-13734372D01*
X12040685Y-13734372D02*
X12059733Y-13705801D01*
X12059733Y-13705801D02*
X12069256Y-13667705D01*
X12069256Y-13667705D02*
X12069256Y-13591515D01*
X12069256Y-13591515D02*
X12059733Y-13572467D01*
X12059733Y-13572467D02*
X12050209Y-13562944D01*
X12050209Y-13562944D02*
X12031161Y-13553420D01*
X12031161Y-13553420D02*
X11993066Y-13553420D01*
X11993066Y-13553420D02*
X11974018Y-13562944D01*
X11974018Y-13562944D02*
X11964495Y-13572467D01*
X11964495Y-13572467D02*
X11954971Y-13591515D01*
X11954971Y-13591515D02*
X11954971Y-13639134D01*
X11954971Y-13639134D02*
X11964495Y-13658182D01*
X11964495Y-13658182D02*
X11974018Y-13667705D01*
X11974018Y-13667705D02*
X11993066Y-13677229D01*
X11993066Y-13677229D02*
X12031161Y-13677229D01*
X12031161Y-13677229D02*
X12050209Y-13667705D01*
X12050209Y-13667705D02*
X12059733Y-13658182D01*
X12059733Y-13658182D02*
X12069256Y-13639134D01*
X12240685Y-13620086D02*
X12240685Y-13753420D01*
X12193066Y-13543896D02*
X12145447Y-13686753D01*
X12145447Y-13686753D02*
X12269256Y-13686753D01*
X12335923Y-13553420D02*
X12335923Y-13591515D01*
X12412114Y-13553420D02*
X12412114Y-13591515D01*
X12707352Y-13829610D02*
X12697828Y-13820086D01*
X12697828Y-13820086D02*
X12678780Y-13791515D01*
X12678780Y-13791515D02*
X12669257Y-13772467D01*
X12669257Y-13772467D02*
X12659733Y-13743896D01*
X12659733Y-13743896D02*
X12650209Y-13696277D01*
X12650209Y-13696277D02*
X12650209Y-13658182D01*
X12650209Y-13658182D02*
X12659733Y-13610563D01*
X12659733Y-13610563D02*
X12669257Y-13581991D01*
X12669257Y-13581991D02*
X12678780Y-13562944D01*
X12678780Y-13562944D02*
X12697828Y-13534372D01*
X12697828Y-13534372D02*
X12707352Y-13524848D01*
X12869257Y-13553420D02*
X12831161Y-13553420D01*
X12831161Y-13553420D02*
X12812114Y-13562944D01*
X12812114Y-13562944D02*
X12802590Y-13572467D01*
X12802590Y-13572467D02*
X12783542Y-13601039D01*
X12783542Y-13601039D02*
X12774018Y-13639134D01*
X12774018Y-13639134D02*
X12774018Y-13715324D01*
X12774018Y-13715324D02*
X12783542Y-13734372D01*
X12783542Y-13734372D02*
X12793066Y-13743896D01*
X12793066Y-13743896D02*
X12812114Y-13753420D01*
X12812114Y-13753420D02*
X12850209Y-13753420D01*
X12850209Y-13753420D02*
X12869257Y-13743896D01*
X12869257Y-13743896D02*
X12878780Y-13734372D01*
X12878780Y-13734372D02*
X12888304Y-13715324D01*
X12888304Y-13715324D02*
X12888304Y-13667705D01*
X12888304Y-13667705D02*
X12878780Y-13648658D01*
X12878780Y-13648658D02*
X12869257Y-13639134D01*
X12869257Y-13639134D02*
X12850209Y-13629610D01*
X12850209Y-13629610D02*
X12812114Y-13629610D01*
X12812114Y-13629610D02*
X12793066Y-13639134D01*
X12793066Y-13639134D02*
X12783542Y-13648658D01*
X12783542Y-13648658D02*
X12774018Y-13667705D01*
X13126399Y-13753420D02*
X13126399Y-13553420D01*
X13212114Y-13753420D02*
X13212114Y-13648658D01*
X13212114Y-13648658D02*
X13202590Y-13629610D01*
X13202590Y-13629610D02*
X13183542Y-13620086D01*
X13183542Y-13620086D02*
X13154971Y-13620086D01*
X13154971Y-13620086D02*
X13135923Y-13629610D01*
X13135923Y-13629610D02*
X13126399Y-13639134D01*
X13335923Y-13753420D02*
X13316876Y-13743896D01*
X13316876Y-13743896D02*
X13307352Y-13734372D01*
X13307352Y-13734372D02*
X13297828Y-13715324D01*
X13297828Y-13715324D02*
X13297828Y-13658182D01*
X13297828Y-13658182D02*
X13307352Y-13639134D01*
X13307352Y-13639134D02*
X13316876Y-13629610D01*
X13316876Y-13629610D02*
X13335923Y-13620086D01*
X13335923Y-13620086D02*
X13364495Y-13620086D01*
X13364495Y-13620086D02*
X13383542Y-13629610D01*
X13383542Y-13629610D02*
X13393066Y-13639134D01*
X13393066Y-13639134D02*
X13402590Y-13658182D01*
X13402590Y-13658182D02*
X13402590Y-13715324D01*
X13402590Y-13715324D02*
X13393066Y-13734372D01*
X13393066Y-13734372D02*
X13383542Y-13743896D01*
X13383542Y-13743896D02*
X13364495Y-13753420D01*
X13364495Y-13753420D02*
X13335923Y-13753420D01*
X13516876Y-13753420D02*
X13497828Y-13743896D01*
X13497828Y-13743896D02*
X13488304Y-13724848D01*
X13488304Y-13724848D02*
X13488304Y-13553420D01*
X13669257Y-13743896D02*
X13650209Y-13753420D01*
X13650209Y-13753420D02*
X13612114Y-13753420D01*
X13612114Y-13753420D02*
X13593066Y-13743896D01*
X13593066Y-13743896D02*
X13583542Y-13724848D01*
X13583542Y-13724848D02*
X13583542Y-13648658D01*
X13583542Y-13648658D02*
X13593066Y-13629610D01*
X13593066Y-13629610D02*
X13612114Y-13620086D01*
X13612114Y-13620086D02*
X13650209Y-13620086D01*
X13650209Y-13620086D02*
X13669257Y-13629610D01*
X13669257Y-13629610D02*
X13678780Y-13648658D01*
X13678780Y-13648658D02*
X13678780Y-13667705D01*
X13678780Y-13667705D02*
X13583542Y-13686753D01*
X13754971Y-13743896D02*
X13774019Y-13753420D01*
X13774019Y-13753420D02*
X13812114Y-13753420D01*
X13812114Y-13753420D02*
X13831161Y-13743896D01*
X13831161Y-13743896D02*
X13840685Y-13724848D01*
X13840685Y-13724848D02*
X13840685Y-13715324D01*
X13840685Y-13715324D02*
X13831161Y-13696277D01*
X13831161Y-13696277D02*
X13812114Y-13686753D01*
X13812114Y-13686753D02*
X13783542Y-13686753D01*
X13783542Y-13686753D02*
X13764495Y-13677229D01*
X13764495Y-13677229D02*
X13754971Y-13658182D01*
X13754971Y-13658182D02*
X13754971Y-13648658D01*
X13754971Y-13648658D02*
X13764495Y-13629610D01*
X13764495Y-13629610D02*
X13783542Y-13620086D01*
X13783542Y-13620086D02*
X13812114Y-13620086D01*
X13812114Y-13620086D02*
X13831161Y-13629610D01*
X13907352Y-13829610D02*
X13916876Y-13820086D01*
X13916876Y-13820086D02*
X13935923Y-13791515D01*
X13935923Y-13791515D02*
X13945447Y-13772467D01*
X13945447Y-13772467D02*
X13954971Y-13743896D01*
X13954971Y-13743896D02*
X13964495Y-13696277D01*
X13964495Y-13696277D02*
X13964495Y-13658182D01*
X13964495Y-13658182D02*
X13954971Y-13610563D01*
X13954971Y-13610563D02*
X13945447Y-13581991D01*
X13945447Y-13581991D02*
X13935923Y-13562944D01*
X13935923Y-13562944D02*
X13916876Y-13534372D01*
X13916876Y-13534372D02*
X13907352Y-13524848D01*
M02*
